M48
; DRILL file {KiCad (5.1.10-1-10_14)} date Wednesday, December 08, 2021 at 10:21:55 PM
; FORMAT={-:-/ absolute / inch / decimal}
; #@! TF.CreationDate,2021-12-08T22:21:55-05:00
; #@! TF.GenerationSoftware,Kicad,Pcbnew,(5.1.10-1-10_14)
; #@! TF.FileFunction,Plated,1,2,PTH
FMAT,2
INCH
T1C0.0197
T2C0.0280
T3C0.0315
T4C0.0350
%
G90
G05
T1
X1.5187Y-2.4698
X1.5245Y-1.807
X1.5617Y-2.4767
X1.9831Y-1.5543
X2.1493Y-1.1543
X2.1645Y-1.4737
X2.1912Y-1.0767
X2.2258Y-2.6835
X2.2426Y-2.5392
X2.2937Y-1.0767
X2.2938Y-2.6691
X2.4941Y-2.2765
X2.5573Y-1.244
X2.5739Y-2.5849
X2.5751Y-2.5374
X2.585Y-1.1979
X2.592Y-1.916
X2.5971Y-1.322
X2.599Y-1.814
X2.6281Y-1.198
X2.6454Y-1.5575
X2.648Y-1.1132
X2.6487Y-1.3847
X2.7519Y-2.0145
X2.772Y-1.9335
X2.7796Y-1.1132
X2.7968Y-1.4146
X2.8096Y-2.3563
X2.8187Y-2.0908
X2.8437Y-1.9359
X2.8883Y-2.5472
X2.8941Y-2.0707
X2.9513Y-1.8874
X2.9564Y-1.4886
X2.957Y-1.8049
X2.9732Y-2.5472
X2.9849Y-1.9434
X2.9946Y-1.9027
X3.0197Y-1.8489
X3.0264Y-2.3902
X3.0272Y-1.269
X3.0351Y-1.3172
X3.0351Y-1.4418
X3.0351Y-1.7117
X3.0351Y-1.7714
X3.045Y-2.2276
X3.0707Y-2.5525
X3.0926Y-2.2802
X3.1157Y-2.3778
X3.1171Y-1.4886
X3.1182Y-1.2433
X3.1191Y-2.5522
X3.1246Y-2.2143
X3.1282Y-1.1482
X3.1314Y-1.0788
X3.1365Y-1.6439
X3.1451Y-1.9371
X3.149Y-1.434
X3.1796Y-2.0627
X3.2447Y-2.0557
X3.2482Y-1.9102
X3.2601Y-1.3293
X3.2911Y-2.3678
X3.3132Y-1.516
X3.3132Y-1.8722
X3.3132Y-1.3327
X3.3168Y-1.0949
X3.3311Y-1.698
X3.3931Y-2.0327
X3.4101Y-2.0812
X3.4228Y-2.2778
X3.4346Y-2.6127
X3.437Y-1.512
X3.438Y-1.7122
X3.439Y-1.4594
X3.439Y-1.8722
X3.452Y-1.4074
X3.4635Y-1.1856
X3.4713Y-1.118
X3.4746Y-2.1877
X3.4786Y-1.2885
X3.5611Y-1.4496
X3.564Y-1.888
X3.5932Y-2.1688
X3.6115Y-1.1252
X3.6444Y-2.2547
X3.6946Y-2.1627
X3.7471Y-1.4989
X3.7668Y-1.795
X3.7746Y-1.8627
X3.7852Y-1.2132
X3.8003Y-1.6804
X3.968Y-1.991
X3.975Y-1.86
X3.99Y-2.2547
X4.0246Y-1.6227
X4.2232Y-1.5619
X4.3436Y-2.3421
X4.3946Y-2.6877
X4.4946Y-2.6777
X4.5385Y-2.1343
X4.5415Y-2.197
T2
X3.5196Y-1.6446
X3.813Y-2.325
T3
X2.3446Y-2.2543
X2.3446Y-2.3527
X2.5096Y-2.0627
X2.608Y-2.0627
X3.0096Y-2.0677
X3.108Y-2.0677
X3.4846Y-2.0627
X3.5346Y-2.2643
X3.5346Y-2.3627
X3.583Y-2.0627
X3.9596Y-2.0577
X4.058Y-2.0577
X4.4096Y-1.9727
X4.4896Y-2.2543
X4.4896Y-2.3527
X4.508Y-1.9727
T4
X1.4517Y-0.9865
X1.4517Y-1.0865
X1.4517Y-1.1865
X1.4517Y-1.2865
X1.4517Y-1.3865
X1.4517Y-1.4865
X1.4517Y-1.5865
X1.4517Y-1.6865
X1.4517Y-1.7865
X1.4517Y-1.8865
X1.4517Y-1.9865
X1.4517Y-2.0865
X1.4517Y-2.1865
X1.4517Y-2.2865
X1.4517Y-2.3865
X1.4517Y-2.4865
X2.0517Y-0.9865
X2.0517Y-1.0865
X2.0517Y-1.1865
X2.0517Y-1.2865
X2.0517Y-1.3865
X2.0517Y-1.4865
X2.0517Y-1.5865
X2.0517Y-1.6865
X2.0517Y-1.7865
X2.0517Y-1.8865
X2.0517Y-1.9865
X2.0517Y-2.0865
X2.0517Y-2.1865
X2.0517Y-2.2865
X2.0517Y-2.3865
X2.0517Y-2.4865
X2.4096Y-1.0427
X2.4096Y-1.1427
X2.4096Y-1.2427
X2.4096Y-1.3427
X2.4096Y-1.4427
X2.4096Y-1.5427
X2.4096Y-1.6427
X2.4096Y-1.7427
X2.4096Y-1.8427
X2.4096Y-1.9427
X2.5096Y-2.1627
X2.5096Y-2.4627
X2.6096Y-2.1627
X2.6096Y-2.4627
X2.7096Y-1.0427
X2.7096Y-1.1427
X2.7096Y-1.2427
X2.7096Y-1.3427
X2.7096Y-1.4427
X2.7096Y-1.5427
X2.7096Y-1.6427
X2.7096Y-1.7427
X2.7096Y-1.8427
X2.7096Y-1.9427
X2.7096Y-2.1627
X2.7096Y-2.4627
X2.8096Y-2.1627
X2.8096Y-2.4627
X2.9046Y-1.0427
X2.9046Y-1.1427
X2.9046Y-1.2427
X2.9046Y-1.3427
X2.9046Y-1.4427
X2.9046Y-1.5427
X2.9046Y-1.6427
X2.9046Y-1.7427
X2.9046Y-1.8427
X2.9046Y-1.9427
X2.9096Y-2.1627
X2.9096Y-2.4627
X3.0096Y-2.1627
X3.0096Y-2.4627
X3.1096Y-2.1627
X3.1096Y-2.4627
X3.2046Y-1.0427
X3.2046Y-1.1427
X3.2046Y-1.2427
X3.2046Y-1.3427
X3.2046Y-1.4427
X3.2046Y-1.5427
X3.2046Y-1.6427
X3.2046Y-1.7427
X3.2046Y-1.8427
X3.2046Y-1.9427
X3.2096Y-2.1627
X3.2096Y-2.4627
X3.3096Y-2.1627
X3.3096Y-2.4627
X3.3796Y-1.0427
X3.3796Y-1.1427
X3.3796Y-1.2427
X3.3796Y-1.3427
X3.3796Y-1.4427
X3.3796Y-1.5427
X3.3796Y-1.6427
X3.3796Y-1.7427
X3.3796Y-1.8427
X3.3796Y-1.9427
X3.4096Y-2.1627
X3.4096Y-2.4627
X3.6796Y-1.0427
X3.6796Y-1.1427
X3.6796Y-1.2427
X3.6796Y-1.3427
X3.6796Y-1.4427
X3.6796Y-1.5427
X3.6796Y-1.6427
X3.6796Y-1.7427
X3.6796Y-1.8427
X3.6796Y-1.9427
X3.7646Y-2.1577
X3.7646Y-2.4577
X3.8546Y-1.0427
X3.8546Y-1.1427
X3.8546Y-1.2427
X3.8546Y-1.3427
X3.8546Y-1.4427
X3.8546Y-1.5427
X3.8546Y-1.6427
X3.8546Y-1.7427
X3.8546Y-1.8427
X3.8546Y-1.9427
X3.8646Y-2.1577
X3.8646Y-2.4577
X3.9646Y-2.1577
X3.9646Y-2.4577
X4.0646Y-2.1577
X4.0646Y-2.4577
X4.1546Y-1.0427
X4.1546Y-1.1427
X4.1546Y-1.2427
X4.1546Y-1.3427
X4.1546Y-1.4427
X4.1546Y-1.5427
X4.1546Y-1.6427
X4.1546Y-1.7427
X4.1546Y-1.8427
X4.1546Y-1.9427
X4.1646Y-2.1577
X4.1646Y-2.4577
X4.2646Y-2.1577
X4.2646Y-2.4577
X4.3046Y-1.2527
X4.3046Y-1.3527
X4.3046Y-1.4527
X4.3046Y-1.5527
X4.3046Y-1.6527
X4.3046Y-1.7527
X4.3046Y-1.8527
X4.3646Y-2.1577
X4.3646Y-2.4577
X4.6046Y-1.2527
X4.6046Y-1.3527
X4.6046Y-1.4527
X4.6046Y-1.5527
X4.6046Y-1.6527
X4.6046Y-1.7527
X4.6046Y-1.8527
T0
M30
