G04 #@! TF.GenerationSoftware,KiCad,Pcbnew,(6.0.2-0)*
G04 #@! TF.CreationDate,2022-02-25T13:53:27-05:00*
G04 #@! TF.ProjectId,ProDOS ROM-Drive,50726f44-4f53-4205-924f-4d2d44726976,4.0*
G04 #@! TF.SameCoordinates,Original*
G04 #@! TF.FileFunction,Soldermask,Top*
G04 #@! TF.FilePolarity,Negative*
%FSLAX46Y46*%
G04 Gerber Fmt 4.6, Leading zero omitted, Abs format (unit mm)*
G04 Created by KiCad (PCBNEW (6.0.2-0)) date 2022-02-25 13:53:27*
%MOMM*%
%LPD*%
G01*
G04 APERTURE LIST*
G04 Aperture macros list*
%AMRoundRect*
0 Rectangle with rounded corners*
0 $1 Rounding radius*
0 $2 $3 $4 $5 $6 $7 $8 $9 X,Y pos of 4 corners*
0 Add a 4 corners polygon primitive as box body*
4,1,4,$2,$3,$4,$5,$6,$7,$8,$9,$2,$3,0*
0 Add four circle primitives for the rounded corners*
1,1,$1+$1,$2,$3*
1,1,$1+$1,$4,$5*
1,1,$1+$1,$6,$7*
1,1,$1+$1,$8,$9*
0 Add four rect primitives between the rounded corners*
20,1,$1+$1,$2,$3,$4,$5,0*
20,1,$1+$1,$4,$5,$6,$7,0*
20,1,$1+$1,$6,$7,$8,$9,0*
20,1,$1+$1,$8,$9,$2,$3,0*%
G04 Aperture macros list end*
%ADD10C,0.150000*%
%ADD11RoundRect,0.051000X-0.800000X-0.800000X0.800000X-0.800000X0.800000X0.800000X-0.800000X0.800000X0*%
%ADD12O,1.702000X1.702000*%
%ADD13RoundRect,0.051000X0.800000X-0.800000X0.800000X0.800000X-0.800000X0.800000X-0.800000X-0.800000X0*%
%ADD14RoundRect,0.368500X-0.317500X-3.492500X0.317500X-3.492500X0.317500X3.492500X-0.317500X3.492500X0*%
%ADD15C,1.702000*%
G04 APERTURE END LIST*
D10*
X118607840Y-76776580D02*
X118607840Y-69156580D01*
X118607840Y-69156580D02*
X53837840Y-69156580D01*
X53837840Y-69156580D02*
X53837840Y-76776580D01*
X53837840Y-76776580D02*
X118607840Y-76776580D01*
G36*
X118607840Y-76776580D02*
G01*
X53837840Y-76776580D01*
X53837840Y-69156580D01*
X118607840Y-69156580D01*
X118607840Y-76776580D01*
G37*
X118607840Y-76776580D02*
X53837840Y-76776580D01*
X53837840Y-69156580D01*
X118607840Y-69156580D01*
X118607840Y-76776580D01*
X118607840Y-76776580D02*
X118607840Y-69156580D01*
X118607840Y-69156580D02*
X53837840Y-69156580D01*
X53837840Y-69156580D02*
X53837840Y-76776580D01*
X53837840Y-76776580D02*
X118607840Y-76776580D01*
G36*
X118607840Y-76776580D02*
G01*
X53837840Y-76776580D01*
X53837840Y-69156580D01*
X118607840Y-69156580D01*
X118607840Y-76776580D01*
G37*
X118607840Y-76776580D02*
X53837840Y-76776580D01*
X53837840Y-69156580D01*
X118607840Y-69156580D01*
X118607840Y-76776580D01*
D11*
X109336840Y-31818580D03*
D12*
X109336840Y-34358580D03*
X109336840Y-36898580D03*
X109336840Y-39438580D03*
X109336840Y-41978580D03*
X109336840Y-44518580D03*
X109336840Y-47058580D03*
X116956840Y-47058580D03*
X116956840Y-44518580D03*
X116956840Y-41978580D03*
X116956840Y-39438580D03*
X116956840Y-36898580D03*
X116956840Y-34358580D03*
X116956840Y-31818580D03*
D13*
X95620840Y-62425580D03*
D12*
X98160840Y-62425580D03*
X100700840Y-62425580D03*
X103240840Y-62425580D03*
X105780840Y-62425580D03*
X108320840Y-62425580D03*
X110860840Y-62425580D03*
X110860840Y-54805580D03*
X108320840Y-54805580D03*
X105780840Y-54805580D03*
X103240840Y-54805580D03*
X100700840Y-54805580D03*
X98160840Y-54805580D03*
X95620840Y-54805580D03*
D11*
X61203840Y-26484580D03*
D12*
X61203840Y-29024580D03*
X61203840Y-31564580D03*
X61203840Y-34104580D03*
X61203840Y-36644580D03*
X61203840Y-39184580D03*
X61203840Y-41724580D03*
X61203840Y-44264580D03*
X61203840Y-46804580D03*
X61203840Y-49344580D03*
X68823840Y-49344580D03*
X68823840Y-46804580D03*
X68823840Y-44264580D03*
X68823840Y-41724580D03*
X68823840Y-39184580D03*
X68823840Y-36644580D03*
X68823840Y-34104580D03*
X68823840Y-31564580D03*
X68823840Y-29024580D03*
X68823840Y-26484580D03*
D11*
X85841840Y-26484580D03*
D12*
X85841840Y-29024580D03*
X85841840Y-31564580D03*
X85841840Y-34104580D03*
X85841840Y-36644580D03*
X85841840Y-39184580D03*
X85841840Y-41724580D03*
X85841840Y-44264580D03*
X85841840Y-46804580D03*
X85841840Y-49344580D03*
X93461840Y-49344580D03*
X93461840Y-46804580D03*
X93461840Y-44264580D03*
X93461840Y-41724580D03*
X93461840Y-39184580D03*
X93461840Y-36644580D03*
X93461840Y-34104580D03*
X93461840Y-31564580D03*
X93461840Y-29024580D03*
X93461840Y-26484580D03*
D11*
X73776840Y-26484580D03*
D12*
X73776840Y-29024580D03*
X73776840Y-31564580D03*
X73776840Y-34104580D03*
X73776840Y-36644580D03*
X73776840Y-39184580D03*
X73776840Y-41724580D03*
X73776840Y-44264580D03*
X73776840Y-46804580D03*
X73776840Y-49344580D03*
X81396840Y-49344580D03*
X81396840Y-46804580D03*
X81396840Y-44264580D03*
X81396840Y-41724580D03*
X81396840Y-39184580D03*
X81396840Y-36644580D03*
X81396840Y-34104580D03*
X81396840Y-31564580D03*
X81396840Y-29024580D03*
X81396840Y-26484580D03*
D11*
X97906840Y-26484580D03*
D12*
X97906840Y-29024580D03*
X97906840Y-31564580D03*
X97906840Y-34104580D03*
X97906840Y-36644580D03*
X97906840Y-39184580D03*
X97906840Y-41724580D03*
X97906840Y-44264580D03*
X97906840Y-46804580D03*
X97906840Y-49344580D03*
X105526840Y-49344580D03*
X105526840Y-46804580D03*
X105526840Y-44264580D03*
X105526840Y-41724580D03*
X105526840Y-39184580D03*
X105526840Y-36644580D03*
X105526840Y-34104580D03*
X105526840Y-31564580D03*
X105526840Y-29024580D03*
X105526840Y-26484580D03*
D14*
X55742840Y-72966580D03*
X58282840Y-72966580D03*
X60822840Y-72966580D03*
X63362840Y-72966580D03*
X65902840Y-72966580D03*
X68442840Y-72966580D03*
X70982840Y-72966580D03*
X73522840Y-72966580D03*
X76062840Y-72966580D03*
X78602840Y-72966580D03*
X81142840Y-72966580D03*
X83682840Y-72966580D03*
X86222840Y-72966580D03*
X88762840Y-72966580D03*
X91302840Y-72966580D03*
X93842840Y-72966580D03*
X96382840Y-72966580D03*
X98922840Y-72966580D03*
X101462840Y-72966580D03*
X104002840Y-72966580D03*
X106542840Y-72966580D03*
X109082840Y-72966580D03*
X111622840Y-72966580D03*
X114162840Y-72966580D03*
X116702840Y-72966580D03*
D11*
X36873180Y-25057100D03*
D12*
X36873180Y-27597100D03*
X36873180Y-30137100D03*
X36873180Y-32677100D03*
X36873180Y-35217100D03*
X36873180Y-37757100D03*
X36873180Y-40297100D03*
X36873180Y-42837100D03*
X36873180Y-45377100D03*
X36873180Y-47917100D03*
X36873180Y-50457100D03*
X36873180Y-52997100D03*
X36873180Y-55537100D03*
X36873180Y-58077100D03*
X36873180Y-60617100D03*
X36873180Y-63157100D03*
X52113180Y-63157100D03*
X52113180Y-60617100D03*
X52113180Y-58077100D03*
X52113180Y-55537100D03*
X52113180Y-52997100D03*
X52113180Y-50457100D03*
X52113180Y-47917100D03*
X52113180Y-45377100D03*
X52113180Y-42837100D03*
X52113180Y-40297100D03*
X52113180Y-37757100D03*
X52113180Y-35217100D03*
X52113180Y-32677100D03*
X52113180Y-30137100D03*
X52113180Y-27597100D03*
X52113180Y-25057100D03*
D13*
X63743840Y-62552580D03*
D12*
X66283840Y-62552580D03*
X68823840Y-62552580D03*
X71363840Y-62552580D03*
X73903840Y-62552580D03*
X76443840Y-62552580D03*
X78983840Y-62552580D03*
X81523840Y-62552580D03*
X84063840Y-62552580D03*
X86603840Y-62552580D03*
X86603840Y-54932580D03*
X84063840Y-54932580D03*
X81523840Y-54932580D03*
X78983840Y-54932580D03*
X76443840Y-54932580D03*
X73903840Y-54932580D03*
X71363840Y-54932580D03*
X68823840Y-54932580D03*
X66283840Y-54932580D03*
X63743840Y-54932580D03*
D15*
X59552840Y-59758580D03*
X59552840Y-57258580D03*
X114035840Y-59758580D03*
X114035840Y-57258580D03*
X89778840Y-60012580D03*
X89778840Y-57512580D03*
X100573840Y-52265580D03*
X103073840Y-52265580D03*
X88508840Y-52392580D03*
X91008840Y-52392580D03*
X76443840Y-52519580D03*
X78943840Y-52519580D03*
X63743840Y-52392580D03*
X66243840Y-52392580D03*
X112003840Y-50106580D03*
X114503840Y-50106580D03*
M02*
