G04 #@! TF.GenerationSoftware,KiCad,Pcbnew,(5.1.10-1-10_14)*
G04 #@! TF.CreationDate,2021-12-12T10:22:25-05:00*
G04 #@! TF.ProjectId,ProDOS ROM-Drive 3.0,50726f44-4f53-4205-924f-4d2d44726976,3.0*
G04 #@! TF.SameCoordinates,Original*
G04 #@! TF.FileFunction,Soldermask,Bot*
G04 #@! TF.FilePolarity,Negative*
%FSLAX46Y46*%
G04 Gerber Fmt 4.6, Leading zero omitted, Abs format (unit mm)*
G04 Created by KiCad (PCBNEW (5.1.10-1-10_14)) date 2021-12-12 10:22:25*
%MOMM*%
%LPD*%
G01*
G04 APERTURE LIST*
%ADD10C,0.150000*%
%ADD11O,1.702000X1.702000*%
%ADD12C,1.702000*%
%ADD13C,0.100000*%
G04 APERTURE END LIST*
D10*
G36*
X118607840Y-76776580D02*
G01*
X118607840Y-69156580D01*
X53837840Y-69156580D01*
X53837840Y-76776580D01*
X118607840Y-76776580D01*
G37*
X118607840Y-76776580D02*
X118607840Y-69156580D01*
X53837840Y-69156580D01*
X53837840Y-76776580D01*
X118607840Y-76776580D01*
G36*
X118607840Y-76776580D02*
G01*
X118607840Y-69156580D01*
X53837840Y-69156580D01*
X53837840Y-76776580D01*
X118607840Y-76776580D01*
G37*
X118607840Y-76776580D02*
X118607840Y-69156580D01*
X53837840Y-69156580D01*
X53837840Y-76776580D01*
X118607840Y-76776580D01*
D11*
X52113180Y-25057100D03*
X36873180Y-63157100D03*
X52113180Y-27597100D03*
X36873180Y-60617100D03*
X52113180Y-30137100D03*
X36873180Y-58077100D03*
X52113180Y-32677100D03*
X36873180Y-55537100D03*
X52113180Y-35217100D03*
X36873180Y-52997100D03*
X52113180Y-37757100D03*
X36873180Y-50457100D03*
X52113180Y-40297100D03*
X36873180Y-47917100D03*
X52113180Y-42837100D03*
X36873180Y-45377100D03*
X52113180Y-45377100D03*
X36873180Y-42837100D03*
X52113180Y-47917100D03*
X36873180Y-40297100D03*
X52113180Y-50457100D03*
X36873180Y-37757100D03*
X52113180Y-52997100D03*
X36873180Y-35217100D03*
X52113180Y-55537100D03*
X36873180Y-32677100D03*
X52113180Y-58077100D03*
X36873180Y-30137100D03*
X52113180Y-60617100D03*
X36873180Y-27597100D03*
X52113180Y-63157100D03*
G36*
G01*
X36022180Y-25857100D02*
X36022180Y-24257100D01*
G75*
G02*
X36073180Y-24206100I51000J0D01*
G01*
X37673180Y-24206100D01*
G75*
G02*
X37724180Y-24257100I0J-51000D01*
G01*
X37724180Y-25857100D01*
G75*
G02*
X37673180Y-25908100I-51000J0D01*
G01*
X36073180Y-25908100D01*
G75*
G02*
X36022180Y-25857100I0J51000D01*
G01*
G37*
G36*
G01*
X116016840Y-76484580D02*
X116016840Y-69448580D01*
G75*
G02*
X116359840Y-69105580I343000J0D01*
G01*
X117045840Y-69105580D01*
G75*
G02*
X117388840Y-69448580I0J-343000D01*
G01*
X117388840Y-76484580D01*
G75*
G02*
X117045840Y-76827580I-343000J0D01*
G01*
X116359840Y-76827580D01*
G75*
G02*
X116016840Y-76484580I0J343000D01*
G01*
G37*
G36*
G01*
X113476840Y-76484580D02*
X113476840Y-69448580D01*
G75*
G02*
X113819840Y-69105580I343000J0D01*
G01*
X114505840Y-69105580D01*
G75*
G02*
X114848840Y-69448580I0J-343000D01*
G01*
X114848840Y-76484580D01*
G75*
G02*
X114505840Y-76827580I-343000J0D01*
G01*
X113819840Y-76827580D01*
G75*
G02*
X113476840Y-76484580I0J343000D01*
G01*
G37*
G36*
G01*
X110936840Y-76484580D02*
X110936840Y-69448580D01*
G75*
G02*
X111279840Y-69105580I343000J0D01*
G01*
X111965840Y-69105580D01*
G75*
G02*
X112308840Y-69448580I0J-343000D01*
G01*
X112308840Y-76484580D01*
G75*
G02*
X111965840Y-76827580I-343000J0D01*
G01*
X111279840Y-76827580D01*
G75*
G02*
X110936840Y-76484580I0J343000D01*
G01*
G37*
G36*
G01*
X108396840Y-76484580D02*
X108396840Y-69448580D01*
G75*
G02*
X108739840Y-69105580I343000J0D01*
G01*
X109425840Y-69105580D01*
G75*
G02*
X109768840Y-69448580I0J-343000D01*
G01*
X109768840Y-76484580D01*
G75*
G02*
X109425840Y-76827580I-343000J0D01*
G01*
X108739840Y-76827580D01*
G75*
G02*
X108396840Y-76484580I0J343000D01*
G01*
G37*
G36*
G01*
X105856840Y-76484580D02*
X105856840Y-69448580D01*
G75*
G02*
X106199840Y-69105580I343000J0D01*
G01*
X106885840Y-69105580D01*
G75*
G02*
X107228840Y-69448580I0J-343000D01*
G01*
X107228840Y-76484580D01*
G75*
G02*
X106885840Y-76827580I-343000J0D01*
G01*
X106199840Y-76827580D01*
G75*
G02*
X105856840Y-76484580I0J343000D01*
G01*
G37*
G36*
G01*
X103316840Y-76484580D02*
X103316840Y-69448580D01*
G75*
G02*
X103659840Y-69105580I343000J0D01*
G01*
X104345840Y-69105580D01*
G75*
G02*
X104688840Y-69448580I0J-343000D01*
G01*
X104688840Y-76484580D01*
G75*
G02*
X104345840Y-76827580I-343000J0D01*
G01*
X103659840Y-76827580D01*
G75*
G02*
X103316840Y-76484580I0J343000D01*
G01*
G37*
G36*
G01*
X100776840Y-76484580D02*
X100776840Y-69448580D01*
G75*
G02*
X101119840Y-69105580I343000J0D01*
G01*
X101805840Y-69105580D01*
G75*
G02*
X102148840Y-69448580I0J-343000D01*
G01*
X102148840Y-76484580D01*
G75*
G02*
X101805840Y-76827580I-343000J0D01*
G01*
X101119840Y-76827580D01*
G75*
G02*
X100776840Y-76484580I0J343000D01*
G01*
G37*
G36*
G01*
X98236840Y-76484580D02*
X98236840Y-69448580D01*
G75*
G02*
X98579840Y-69105580I343000J0D01*
G01*
X99265840Y-69105580D01*
G75*
G02*
X99608840Y-69448580I0J-343000D01*
G01*
X99608840Y-76484580D01*
G75*
G02*
X99265840Y-76827580I-343000J0D01*
G01*
X98579840Y-76827580D01*
G75*
G02*
X98236840Y-76484580I0J343000D01*
G01*
G37*
G36*
G01*
X95696840Y-76484580D02*
X95696840Y-69448580D01*
G75*
G02*
X96039840Y-69105580I343000J0D01*
G01*
X96725840Y-69105580D01*
G75*
G02*
X97068840Y-69448580I0J-343000D01*
G01*
X97068840Y-76484580D01*
G75*
G02*
X96725840Y-76827580I-343000J0D01*
G01*
X96039840Y-76827580D01*
G75*
G02*
X95696840Y-76484580I0J343000D01*
G01*
G37*
G36*
G01*
X93156840Y-76484580D02*
X93156840Y-69448580D01*
G75*
G02*
X93499840Y-69105580I343000J0D01*
G01*
X94185840Y-69105580D01*
G75*
G02*
X94528840Y-69448580I0J-343000D01*
G01*
X94528840Y-76484580D01*
G75*
G02*
X94185840Y-76827580I-343000J0D01*
G01*
X93499840Y-76827580D01*
G75*
G02*
X93156840Y-76484580I0J343000D01*
G01*
G37*
G36*
G01*
X90616840Y-76484580D02*
X90616840Y-69448580D01*
G75*
G02*
X90959840Y-69105580I343000J0D01*
G01*
X91645840Y-69105580D01*
G75*
G02*
X91988840Y-69448580I0J-343000D01*
G01*
X91988840Y-76484580D01*
G75*
G02*
X91645840Y-76827580I-343000J0D01*
G01*
X90959840Y-76827580D01*
G75*
G02*
X90616840Y-76484580I0J343000D01*
G01*
G37*
G36*
G01*
X85536840Y-76484580D02*
X85536840Y-69448580D01*
G75*
G02*
X85879840Y-69105580I343000J0D01*
G01*
X86565840Y-69105580D01*
G75*
G02*
X86908840Y-69448580I0J-343000D01*
G01*
X86908840Y-76484580D01*
G75*
G02*
X86565840Y-76827580I-343000J0D01*
G01*
X85879840Y-76827580D01*
G75*
G02*
X85536840Y-76484580I0J343000D01*
G01*
G37*
G36*
G01*
X88076840Y-76484580D02*
X88076840Y-69448580D01*
G75*
G02*
X88419840Y-69105580I343000J0D01*
G01*
X89105840Y-69105580D01*
G75*
G02*
X89448840Y-69448580I0J-343000D01*
G01*
X89448840Y-76484580D01*
G75*
G02*
X89105840Y-76827580I-343000J0D01*
G01*
X88419840Y-76827580D01*
G75*
G02*
X88076840Y-76484580I0J343000D01*
G01*
G37*
G36*
G01*
X82996840Y-76484580D02*
X82996840Y-69448580D01*
G75*
G02*
X83339840Y-69105580I343000J0D01*
G01*
X84025840Y-69105580D01*
G75*
G02*
X84368840Y-69448580I0J-343000D01*
G01*
X84368840Y-76484580D01*
G75*
G02*
X84025840Y-76827580I-343000J0D01*
G01*
X83339840Y-76827580D01*
G75*
G02*
X82996840Y-76484580I0J343000D01*
G01*
G37*
G36*
G01*
X80456840Y-76484580D02*
X80456840Y-69448580D01*
G75*
G02*
X80799840Y-69105580I343000J0D01*
G01*
X81485840Y-69105580D01*
G75*
G02*
X81828840Y-69448580I0J-343000D01*
G01*
X81828840Y-76484580D01*
G75*
G02*
X81485840Y-76827580I-343000J0D01*
G01*
X80799840Y-76827580D01*
G75*
G02*
X80456840Y-76484580I0J343000D01*
G01*
G37*
G36*
G01*
X77916840Y-76484580D02*
X77916840Y-69448580D01*
G75*
G02*
X78259840Y-69105580I343000J0D01*
G01*
X78945840Y-69105580D01*
G75*
G02*
X79288840Y-69448580I0J-343000D01*
G01*
X79288840Y-76484580D01*
G75*
G02*
X78945840Y-76827580I-343000J0D01*
G01*
X78259840Y-76827580D01*
G75*
G02*
X77916840Y-76484580I0J343000D01*
G01*
G37*
G36*
G01*
X75376840Y-76484580D02*
X75376840Y-69448580D01*
G75*
G02*
X75719840Y-69105580I343000J0D01*
G01*
X76405840Y-69105580D01*
G75*
G02*
X76748840Y-69448580I0J-343000D01*
G01*
X76748840Y-76484580D01*
G75*
G02*
X76405840Y-76827580I-343000J0D01*
G01*
X75719840Y-76827580D01*
G75*
G02*
X75376840Y-76484580I0J343000D01*
G01*
G37*
G36*
G01*
X72836840Y-76484580D02*
X72836840Y-69448580D01*
G75*
G02*
X73179840Y-69105580I343000J0D01*
G01*
X73865840Y-69105580D01*
G75*
G02*
X74208840Y-69448580I0J-343000D01*
G01*
X74208840Y-76484580D01*
G75*
G02*
X73865840Y-76827580I-343000J0D01*
G01*
X73179840Y-76827580D01*
G75*
G02*
X72836840Y-76484580I0J343000D01*
G01*
G37*
G36*
G01*
X70296840Y-76484580D02*
X70296840Y-69448580D01*
G75*
G02*
X70639840Y-69105580I343000J0D01*
G01*
X71325840Y-69105580D01*
G75*
G02*
X71668840Y-69448580I0J-343000D01*
G01*
X71668840Y-76484580D01*
G75*
G02*
X71325840Y-76827580I-343000J0D01*
G01*
X70639840Y-76827580D01*
G75*
G02*
X70296840Y-76484580I0J343000D01*
G01*
G37*
G36*
G01*
X67756840Y-76484580D02*
X67756840Y-69448580D01*
G75*
G02*
X68099840Y-69105580I343000J0D01*
G01*
X68785840Y-69105580D01*
G75*
G02*
X69128840Y-69448580I0J-343000D01*
G01*
X69128840Y-76484580D01*
G75*
G02*
X68785840Y-76827580I-343000J0D01*
G01*
X68099840Y-76827580D01*
G75*
G02*
X67756840Y-76484580I0J343000D01*
G01*
G37*
G36*
G01*
X65216840Y-76484580D02*
X65216840Y-69448580D01*
G75*
G02*
X65559840Y-69105580I343000J0D01*
G01*
X66245840Y-69105580D01*
G75*
G02*
X66588840Y-69448580I0J-343000D01*
G01*
X66588840Y-76484580D01*
G75*
G02*
X66245840Y-76827580I-343000J0D01*
G01*
X65559840Y-76827580D01*
G75*
G02*
X65216840Y-76484580I0J343000D01*
G01*
G37*
G36*
G01*
X62676840Y-76484580D02*
X62676840Y-69448580D01*
G75*
G02*
X63019840Y-69105580I343000J0D01*
G01*
X63705840Y-69105580D01*
G75*
G02*
X64048840Y-69448580I0J-343000D01*
G01*
X64048840Y-76484580D01*
G75*
G02*
X63705840Y-76827580I-343000J0D01*
G01*
X63019840Y-76827580D01*
G75*
G02*
X62676840Y-76484580I0J343000D01*
G01*
G37*
G36*
G01*
X60136840Y-76484580D02*
X60136840Y-69448580D01*
G75*
G02*
X60479840Y-69105580I343000J0D01*
G01*
X61165840Y-69105580D01*
G75*
G02*
X61508840Y-69448580I0J-343000D01*
G01*
X61508840Y-76484580D01*
G75*
G02*
X61165840Y-76827580I-343000J0D01*
G01*
X60479840Y-76827580D01*
G75*
G02*
X60136840Y-76484580I0J343000D01*
G01*
G37*
G36*
G01*
X57596840Y-76484580D02*
X57596840Y-69448580D01*
G75*
G02*
X57939840Y-69105580I343000J0D01*
G01*
X58625840Y-69105580D01*
G75*
G02*
X58968840Y-69448580I0J-343000D01*
G01*
X58968840Y-76484580D01*
G75*
G02*
X58625840Y-76827580I-343000J0D01*
G01*
X57939840Y-76827580D01*
G75*
G02*
X57596840Y-76484580I0J343000D01*
G01*
G37*
G36*
G01*
X55056840Y-76484580D02*
X55056840Y-69448580D01*
G75*
G02*
X55399840Y-69105580I343000J0D01*
G01*
X56085840Y-69105580D01*
G75*
G02*
X56428840Y-69448580I0J-343000D01*
G01*
X56428840Y-76484580D01*
G75*
G02*
X56085840Y-76827580I-343000J0D01*
G01*
X55399840Y-76827580D01*
G75*
G02*
X55056840Y-76484580I0J343000D01*
G01*
G37*
X81396840Y-26484580D03*
X73776840Y-49344580D03*
X81396840Y-29024580D03*
X73776840Y-46804580D03*
X81396840Y-31564580D03*
X73776840Y-44264580D03*
X81396840Y-34104580D03*
X73776840Y-41724580D03*
X81396840Y-36644580D03*
X73776840Y-39184580D03*
X81396840Y-39184580D03*
X73776840Y-36644580D03*
X81396840Y-41724580D03*
X73776840Y-34104580D03*
X81396840Y-44264580D03*
X73776840Y-31564580D03*
X81396840Y-46804580D03*
X73776840Y-29024580D03*
X81396840Y-49344580D03*
G36*
G01*
X72925840Y-27284580D02*
X72925840Y-25684580D01*
G75*
G02*
X72976840Y-25633580I51000J0D01*
G01*
X74576840Y-25633580D01*
G75*
G02*
X74627840Y-25684580I0J-51000D01*
G01*
X74627840Y-27284580D01*
G75*
G02*
X74576840Y-27335580I-51000J0D01*
G01*
X72976840Y-27335580D01*
G75*
G02*
X72925840Y-27284580I0J51000D01*
G01*
G37*
X63743840Y-54932580D03*
X86603840Y-62552580D03*
X66283840Y-54932580D03*
X84063840Y-62552580D03*
X68823840Y-54932580D03*
X81523840Y-62552580D03*
X71363840Y-54932580D03*
X78983840Y-62552580D03*
X73903840Y-54932580D03*
X76443840Y-62552580D03*
X76443840Y-54932580D03*
X73903840Y-62552580D03*
X78983840Y-54932580D03*
X71363840Y-62552580D03*
X81523840Y-54932580D03*
X68823840Y-62552580D03*
X84063840Y-54932580D03*
X66283840Y-62552580D03*
X86603840Y-54932580D03*
G36*
G01*
X64543840Y-63403580D02*
X62943840Y-63403580D01*
G75*
G02*
X62892840Y-63352580I0J51000D01*
G01*
X62892840Y-61752580D01*
G75*
G02*
X62943840Y-61701580I51000J0D01*
G01*
X64543840Y-61701580D01*
G75*
G02*
X64594840Y-61752580I0J-51000D01*
G01*
X64594840Y-63352580D01*
G75*
G02*
X64543840Y-63403580I-51000J0D01*
G01*
G37*
X105526840Y-26484580D03*
X97906840Y-49344580D03*
X105526840Y-29024580D03*
X97906840Y-46804580D03*
X105526840Y-31564580D03*
X97906840Y-44264580D03*
X105526840Y-34104580D03*
X97906840Y-41724580D03*
X105526840Y-36644580D03*
X97906840Y-39184580D03*
X105526840Y-39184580D03*
X97906840Y-36644580D03*
X105526840Y-41724580D03*
X97906840Y-34104580D03*
X105526840Y-44264580D03*
X97906840Y-31564580D03*
X105526840Y-46804580D03*
X97906840Y-29024580D03*
X105526840Y-49344580D03*
G36*
G01*
X97055840Y-27284580D02*
X97055840Y-25684580D01*
G75*
G02*
X97106840Y-25633580I51000J0D01*
G01*
X98706840Y-25633580D01*
G75*
G02*
X98757840Y-25684580I0J-51000D01*
G01*
X98757840Y-27284580D01*
G75*
G02*
X98706840Y-27335580I-51000J0D01*
G01*
X97106840Y-27335580D01*
G75*
G02*
X97055840Y-27284580I0J51000D01*
G01*
G37*
G36*
G01*
X84990840Y-27284580D02*
X84990840Y-25684580D01*
G75*
G02*
X85041840Y-25633580I51000J0D01*
G01*
X86641840Y-25633580D01*
G75*
G02*
X86692840Y-25684580I0J-51000D01*
G01*
X86692840Y-27284580D01*
G75*
G02*
X86641840Y-27335580I-51000J0D01*
G01*
X85041840Y-27335580D01*
G75*
G02*
X84990840Y-27284580I0J51000D01*
G01*
G37*
X93461840Y-49344580D03*
X85841840Y-29024580D03*
X93461840Y-46804580D03*
X85841840Y-31564580D03*
X93461840Y-44264580D03*
X85841840Y-34104580D03*
X93461840Y-41724580D03*
X85841840Y-36644580D03*
X93461840Y-39184580D03*
X85841840Y-39184580D03*
X93461840Y-36644580D03*
X85841840Y-41724580D03*
X93461840Y-34104580D03*
X85841840Y-44264580D03*
X93461840Y-31564580D03*
X85841840Y-46804580D03*
X93461840Y-29024580D03*
X85841840Y-49344580D03*
X93461840Y-26484580D03*
G36*
G01*
X60352840Y-27284580D02*
X60352840Y-25684580D01*
G75*
G02*
X60403840Y-25633580I51000J0D01*
G01*
X62003840Y-25633580D01*
G75*
G02*
X62054840Y-25684580I0J-51000D01*
G01*
X62054840Y-27284580D01*
G75*
G02*
X62003840Y-27335580I-51000J0D01*
G01*
X60403840Y-27335580D01*
G75*
G02*
X60352840Y-27284580I0J51000D01*
G01*
G37*
X68823840Y-49344580D03*
X61203840Y-29024580D03*
X68823840Y-46804580D03*
X61203840Y-31564580D03*
X68823840Y-44264580D03*
X61203840Y-34104580D03*
X68823840Y-41724580D03*
X61203840Y-36644580D03*
X68823840Y-39184580D03*
X61203840Y-39184580D03*
X68823840Y-36644580D03*
X61203840Y-41724580D03*
X68823840Y-34104580D03*
X61203840Y-44264580D03*
X68823840Y-31564580D03*
X61203840Y-46804580D03*
X68823840Y-29024580D03*
X61203840Y-49344580D03*
X68823840Y-26484580D03*
X95620840Y-54805580D03*
X110860840Y-62425580D03*
X98160840Y-54805580D03*
X108320840Y-62425580D03*
X100700840Y-54805580D03*
X105780840Y-62425580D03*
X103240840Y-54805580D03*
X103240840Y-62425580D03*
X105780840Y-54805580D03*
X100700840Y-62425580D03*
X108320840Y-54805580D03*
X98160840Y-62425580D03*
X110860840Y-54805580D03*
G36*
G01*
X96420840Y-63276580D02*
X94820840Y-63276580D01*
G75*
G02*
X94769840Y-63225580I0J51000D01*
G01*
X94769840Y-61625580D01*
G75*
G02*
X94820840Y-61574580I51000J0D01*
G01*
X96420840Y-61574580D01*
G75*
G02*
X96471840Y-61625580I0J-51000D01*
G01*
X96471840Y-63225580D01*
G75*
G02*
X96420840Y-63276580I-51000J0D01*
G01*
G37*
G36*
G01*
X108485840Y-32618580D02*
X108485840Y-31018580D01*
G75*
G02*
X108536840Y-30967580I51000J0D01*
G01*
X110136840Y-30967580D01*
G75*
G02*
X110187840Y-31018580I0J-51000D01*
G01*
X110187840Y-32618580D01*
G75*
G02*
X110136840Y-32669580I-51000J0D01*
G01*
X108536840Y-32669580D01*
G75*
G02*
X108485840Y-32618580I0J51000D01*
G01*
G37*
X116956840Y-47058580D03*
X109336840Y-34358580D03*
X116956840Y-44518580D03*
X109336840Y-36898580D03*
X116956840Y-41978580D03*
X109336840Y-39438580D03*
X116956840Y-39438580D03*
X109336840Y-41978580D03*
X116956840Y-36898580D03*
X109336840Y-44518580D03*
X116956840Y-34358580D03*
X109336840Y-47058580D03*
X116956840Y-31818580D03*
D12*
X59552840Y-57258580D03*
X59552840Y-59758580D03*
X114035840Y-59758580D03*
X114035840Y-57258580D03*
X89778840Y-57512580D03*
X89778840Y-60012580D03*
X100573840Y-52265580D03*
X103073840Y-52265580D03*
X88508840Y-52392580D03*
X91008840Y-52392580D03*
X78943840Y-52519580D03*
X76443840Y-52519580D03*
X63743840Y-52392580D03*
X66243840Y-52392580D03*
X114503840Y-50106580D03*
X112003840Y-50106580D03*
D13*
G36*
X56430005Y-76482954D02*
G01*
X56430840Y-76484580D01*
X56430840Y-76540939D01*
X56430830Y-76541135D01*
X56424847Y-76601879D01*
X56424771Y-76602264D01*
X56408842Y-76654776D01*
X56408692Y-76655138D01*
X56382829Y-76703523D01*
X56382611Y-76703849D01*
X56347802Y-76746265D01*
X56347525Y-76746542D01*
X56305109Y-76781351D01*
X56304783Y-76781569D01*
X56256398Y-76807432D01*
X56256036Y-76807582D01*
X56203524Y-76823511D01*
X56203139Y-76823587D01*
X56142395Y-76829570D01*
X56142199Y-76829580D01*
X56085840Y-76829580D01*
X56084108Y-76828580D01*
X56084108Y-76826580D01*
X56085644Y-76825590D01*
X56152361Y-76819019D01*
X56216331Y-76799614D01*
X56275285Y-76768103D01*
X56326957Y-76725697D01*
X56369363Y-76674025D01*
X56400874Y-76615071D01*
X56420279Y-76551101D01*
X56426850Y-76484384D01*
X56428015Y-76482758D01*
X56430005Y-76482954D01*
G37*
G36*
X79290005Y-76482954D02*
G01*
X79290840Y-76484580D01*
X79290840Y-76540939D01*
X79290830Y-76541135D01*
X79284847Y-76601879D01*
X79284771Y-76602264D01*
X79268842Y-76654776D01*
X79268692Y-76655138D01*
X79242829Y-76703523D01*
X79242611Y-76703849D01*
X79207802Y-76746265D01*
X79207525Y-76746542D01*
X79165109Y-76781351D01*
X79164783Y-76781569D01*
X79116398Y-76807432D01*
X79116036Y-76807582D01*
X79063524Y-76823511D01*
X79063139Y-76823587D01*
X79002395Y-76829570D01*
X79002199Y-76829580D01*
X78945840Y-76829580D01*
X78944108Y-76828580D01*
X78944108Y-76826580D01*
X78945644Y-76825590D01*
X79012361Y-76819019D01*
X79076331Y-76799614D01*
X79135285Y-76768103D01*
X79186957Y-76725697D01*
X79229363Y-76674025D01*
X79260874Y-76615071D01*
X79280279Y-76551101D01*
X79286850Y-76484384D01*
X79288015Y-76482758D01*
X79290005Y-76482954D01*
G37*
G36*
X97070005Y-76482954D02*
G01*
X97070840Y-76484580D01*
X97070840Y-76540939D01*
X97070830Y-76541135D01*
X97064847Y-76601879D01*
X97064771Y-76602264D01*
X97048842Y-76654776D01*
X97048692Y-76655138D01*
X97022829Y-76703523D01*
X97022611Y-76703849D01*
X96987802Y-76746265D01*
X96987525Y-76746542D01*
X96945109Y-76781351D01*
X96944783Y-76781569D01*
X96896398Y-76807432D01*
X96896036Y-76807582D01*
X96843524Y-76823511D01*
X96843139Y-76823587D01*
X96782395Y-76829570D01*
X96782199Y-76829580D01*
X96725840Y-76829580D01*
X96724108Y-76828580D01*
X96724108Y-76826580D01*
X96725644Y-76825590D01*
X96792361Y-76819019D01*
X96856331Y-76799614D01*
X96915285Y-76768103D01*
X96966957Y-76725697D01*
X97009363Y-76674025D01*
X97040874Y-76615071D01*
X97060279Y-76551101D01*
X97066850Y-76484384D01*
X97068015Y-76482758D01*
X97070005Y-76482954D01*
G37*
G36*
X94530005Y-76482954D02*
G01*
X94530840Y-76484580D01*
X94530840Y-76540939D01*
X94530830Y-76541135D01*
X94524847Y-76601879D01*
X94524771Y-76602264D01*
X94508842Y-76654776D01*
X94508692Y-76655138D01*
X94482829Y-76703523D01*
X94482611Y-76703849D01*
X94447802Y-76746265D01*
X94447525Y-76746542D01*
X94405109Y-76781351D01*
X94404783Y-76781569D01*
X94356398Y-76807432D01*
X94356036Y-76807582D01*
X94303524Y-76823511D01*
X94303139Y-76823587D01*
X94242395Y-76829570D01*
X94242199Y-76829580D01*
X94185840Y-76829580D01*
X94184108Y-76828580D01*
X94184108Y-76826580D01*
X94185644Y-76825590D01*
X94252361Y-76819019D01*
X94316331Y-76799614D01*
X94375285Y-76768103D01*
X94426957Y-76725697D01*
X94469363Y-76674025D01*
X94500874Y-76615071D01*
X94520279Y-76551101D01*
X94526850Y-76484384D01*
X94528015Y-76482758D01*
X94530005Y-76482954D01*
G37*
G36*
X76750005Y-76482954D02*
G01*
X76750840Y-76484580D01*
X76750840Y-76540939D01*
X76750830Y-76541135D01*
X76744847Y-76601879D01*
X76744771Y-76602264D01*
X76728842Y-76654776D01*
X76728692Y-76655138D01*
X76702829Y-76703523D01*
X76702611Y-76703849D01*
X76667802Y-76746265D01*
X76667525Y-76746542D01*
X76625109Y-76781351D01*
X76624783Y-76781569D01*
X76576398Y-76807432D01*
X76576036Y-76807582D01*
X76523524Y-76823511D01*
X76523139Y-76823587D01*
X76462395Y-76829570D01*
X76462199Y-76829580D01*
X76405840Y-76829580D01*
X76404108Y-76828580D01*
X76404108Y-76826580D01*
X76405644Y-76825590D01*
X76472361Y-76819019D01*
X76536331Y-76799614D01*
X76595285Y-76768103D01*
X76646957Y-76725697D01*
X76689363Y-76674025D01*
X76720874Y-76615071D01*
X76740279Y-76551101D01*
X76746850Y-76484384D01*
X76748015Y-76482758D01*
X76750005Y-76482954D01*
G37*
G36*
X99610005Y-76482954D02*
G01*
X99610840Y-76484580D01*
X99610840Y-76540939D01*
X99610830Y-76541135D01*
X99604847Y-76601879D01*
X99604771Y-76602264D01*
X99588842Y-76654776D01*
X99588692Y-76655138D01*
X99562829Y-76703523D01*
X99562611Y-76703849D01*
X99527802Y-76746265D01*
X99527525Y-76746542D01*
X99485109Y-76781351D01*
X99484783Y-76781569D01*
X99436398Y-76807432D01*
X99436036Y-76807582D01*
X99383524Y-76823511D01*
X99383139Y-76823587D01*
X99322395Y-76829570D01*
X99322199Y-76829580D01*
X99265840Y-76829580D01*
X99264108Y-76828580D01*
X99264108Y-76826580D01*
X99265644Y-76825590D01*
X99332361Y-76819019D01*
X99396331Y-76799614D01*
X99455285Y-76768103D01*
X99506957Y-76725697D01*
X99549363Y-76674025D01*
X99580874Y-76615071D01*
X99600279Y-76551101D01*
X99606850Y-76484384D01*
X99608015Y-76482758D01*
X99610005Y-76482954D01*
G37*
G36*
X74210005Y-76482954D02*
G01*
X74210840Y-76484580D01*
X74210840Y-76540939D01*
X74210830Y-76541135D01*
X74204847Y-76601879D01*
X74204771Y-76602264D01*
X74188842Y-76654776D01*
X74188692Y-76655138D01*
X74162829Y-76703523D01*
X74162611Y-76703849D01*
X74127802Y-76746265D01*
X74127525Y-76746542D01*
X74085109Y-76781351D01*
X74084783Y-76781569D01*
X74036398Y-76807432D01*
X74036036Y-76807582D01*
X73983524Y-76823511D01*
X73983139Y-76823587D01*
X73922395Y-76829570D01*
X73922199Y-76829580D01*
X73865840Y-76829580D01*
X73864108Y-76828580D01*
X73864108Y-76826580D01*
X73865644Y-76825590D01*
X73932361Y-76819019D01*
X73996331Y-76799614D01*
X74055285Y-76768103D01*
X74106957Y-76725697D01*
X74149363Y-76674025D01*
X74180874Y-76615071D01*
X74200279Y-76551101D01*
X74206850Y-76484384D01*
X74208015Y-76482758D01*
X74210005Y-76482954D01*
G37*
G36*
X116018830Y-76484384D02*
G01*
X116025401Y-76551101D01*
X116044806Y-76615071D01*
X116076317Y-76674025D01*
X116118723Y-76725697D01*
X116170395Y-76768103D01*
X116229349Y-76799614D01*
X116293319Y-76819019D01*
X116360036Y-76825590D01*
X116361662Y-76826755D01*
X116361466Y-76828745D01*
X116359840Y-76829580D01*
X116303481Y-76829580D01*
X116303285Y-76829570D01*
X116242541Y-76823587D01*
X116242156Y-76823511D01*
X116189644Y-76807582D01*
X116189282Y-76807432D01*
X116140897Y-76781569D01*
X116140571Y-76781351D01*
X116098155Y-76746542D01*
X116097878Y-76746265D01*
X116063069Y-76703849D01*
X116062851Y-76703523D01*
X116036988Y-76655138D01*
X116036838Y-76654776D01*
X116020909Y-76602264D01*
X116020833Y-76601879D01*
X116014850Y-76541135D01*
X116014840Y-76540939D01*
X116014840Y-76484580D01*
X116015840Y-76482848D01*
X116017840Y-76482848D01*
X116018830Y-76484384D01*
G37*
G36*
X102150005Y-76482954D02*
G01*
X102150840Y-76484580D01*
X102150840Y-76540939D01*
X102150830Y-76541135D01*
X102144847Y-76601879D01*
X102144771Y-76602264D01*
X102128842Y-76654776D01*
X102128692Y-76655138D01*
X102102829Y-76703523D01*
X102102611Y-76703849D01*
X102067802Y-76746265D01*
X102067525Y-76746542D01*
X102025109Y-76781351D01*
X102024783Y-76781569D01*
X101976398Y-76807432D01*
X101976036Y-76807582D01*
X101923524Y-76823511D01*
X101923139Y-76823587D01*
X101862395Y-76829570D01*
X101862199Y-76829580D01*
X101805840Y-76829580D01*
X101804108Y-76828580D01*
X101804108Y-76826580D01*
X101805644Y-76825590D01*
X101872361Y-76819019D01*
X101936331Y-76799614D01*
X101995285Y-76768103D01*
X102046957Y-76725697D01*
X102089363Y-76674025D01*
X102120874Y-76615071D01*
X102140279Y-76551101D01*
X102146850Y-76484384D01*
X102148015Y-76482758D01*
X102150005Y-76482954D01*
G37*
G36*
X71670005Y-76482954D02*
G01*
X71670840Y-76484580D01*
X71670840Y-76540939D01*
X71670830Y-76541135D01*
X71664847Y-76601879D01*
X71664771Y-76602264D01*
X71648842Y-76654776D01*
X71648692Y-76655138D01*
X71622829Y-76703523D01*
X71622611Y-76703849D01*
X71587802Y-76746265D01*
X71587525Y-76746542D01*
X71545109Y-76781351D01*
X71544783Y-76781569D01*
X71496398Y-76807432D01*
X71496036Y-76807582D01*
X71443524Y-76823511D01*
X71443139Y-76823587D01*
X71382395Y-76829570D01*
X71382199Y-76829580D01*
X71325840Y-76829580D01*
X71324108Y-76828580D01*
X71324108Y-76826580D01*
X71325644Y-76825590D01*
X71392361Y-76819019D01*
X71456331Y-76799614D01*
X71515285Y-76768103D01*
X71566957Y-76725697D01*
X71609363Y-76674025D01*
X71640874Y-76615071D01*
X71660279Y-76551101D01*
X71666850Y-76484384D01*
X71668015Y-76482758D01*
X71670005Y-76482954D01*
G37*
G36*
X104690005Y-76482954D02*
G01*
X104690840Y-76484580D01*
X104690840Y-76540939D01*
X104690830Y-76541135D01*
X104684847Y-76601879D01*
X104684771Y-76602264D01*
X104668842Y-76654776D01*
X104668692Y-76655138D01*
X104642829Y-76703523D01*
X104642611Y-76703849D01*
X104607802Y-76746265D01*
X104607525Y-76746542D01*
X104565109Y-76781351D01*
X104564783Y-76781569D01*
X104516398Y-76807432D01*
X104516036Y-76807582D01*
X104463524Y-76823511D01*
X104463139Y-76823587D01*
X104402395Y-76829570D01*
X104402199Y-76829580D01*
X104345840Y-76829580D01*
X104344108Y-76828580D01*
X104344108Y-76826580D01*
X104345644Y-76825590D01*
X104412361Y-76819019D01*
X104476331Y-76799614D01*
X104535285Y-76768103D01*
X104586957Y-76725697D01*
X104629363Y-76674025D01*
X104660874Y-76615071D01*
X104680279Y-76551101D01*
X104686850Y-76484384D01*
X104688015Y-76482758D01*
X104690005Y-76482954D01*
G37*
G36*
X69130005Y-76482954D02*
G01*
X69130840Y-76484580D01*
X69130840Y-76540939D01*
X69130830Y-76541135D01*
X69124847Y-76601879D01*
X69124771Y-76602264D01*
X69108842Y-76654776D01*
X69108692Y-76655138D01*
X69082829Y-76703523D01*
X69082611Y-76703849D01*
X69047802Y-76746265D01*
X69047525Y-76746542D01*
X69005109Y-76781351D01*
X69004783Y-76781569D01*
X68956398Y-76807432D01*
X68956036Y-76807582D01*
X68903524Y-76823511D01*
X68903139Y-76823587D01*
X68842395Y-76829570D01*
X68842199Y-76829580D01*
X68785840Y-76829580D01*
X68784108Y-76828580D01*
X68784108Y-76826580D01*
X68785644Y-76825590D01*
X68852361Y-76819019D01*
X68916331Y-76799614D01*
X68975285Y-76768103D01*
X69026957Y-76725697D01*
X69069363Y-76674025D01*
X69100874Y-76615071D01*
X69120279Y-76551101D01*
X69126850Y-76484384D01*
X69128015Y-76482758D01*
X69130005Y-76482954D01*
G37*
G36*
X81830005Y-76482954D02*
G01*
X81830840Y-76484580D01*
X81830840Y-76540939D01*
X81830830Y-76541135D01*
X81824847Y-76601879D01*
X81824771Y-76602264D01*
X81808842Y-76654776D01*
X81808692Y-76655138D01*
X81782829Y-76703523D01*
X81782611Y-76703849D01*
X81747802Y-76746265D01*
X81747525Y-76746542D01*
X81705109Y-76781351D01*
X81704783Y-76781569D01*
X81656398Y-76807432D01*
X81656036Y-76807582D01*
X81603524Y-76823511D01*
X81603139Y-76823587D01*
X81542395Y-76829570D01*
X81542199Y-76829580D01*
X81485840Y-76829580D01*
X81484108Y-76828580D01*
X81484108Y-76826580D01*
X81485644Y-76825590D01*
X81552361Y-76819019D01*
X81616331Y-76799614D01*
X81675285Y-76768103D01*
X81726957Y-76725697D01*
X81769363Y-76674025D01*
X81800874Y-76615071D01*
X81820279Y-76551101D01*
X81826850Y-76484384D01*
X81828015Y-76482758D01*
X81830005Y-76482954D01*
G37*
G36*
X107230005Y-76482954D02*
G01*
X107230840Y-76484580D01*
X107230840Y-76540939D01*
X107230830Y-76541135D01*
X107224847Y-76601879D01*
X107224771Y-76602264D01*
X107208842Y-76654776D01*
X107208692Y-76655138D01*
X107182829Y-76703523D01*
X107182611Y-76703849D01*
X107147802Y-76746265D01*
X107147525Y-76746542D01*
X107105109Y-76781351D01*
X107104783Y-76781569D01*
X107056398Y-76807432D01*
X107056036Y-76807582D01*
X107003524Y-76823511D01*
X107003139Y-76823587D01*
X106942395Y-76829570D01*
X106942199Y-76829580D01*
X106885840Y-76829580D01*
X106884108Y-76828580D01*
X106884108Y-76826580D01*
X106885644Y-76825590D01*
X106952361Y-76819019D01*
X107016331Y-76799614D01*
X107075285Y-76768103D01*
X107126957Y-76725697D01*
X107169363Y-76674025D01*
X107200874Y-76615071D01*
X107220279Y-76551101D01*
X107226850Y-76484384D01*
X107228015Y-76482758D01*
X107230005Y-76482954D01*
G37*
G36*
X66590005Y-76482954D02*
G01*
X66590840Y-76484580D01*
X66590840Y-76540939D01*
X66590830Y-76541135D01*
X66584847Y-76601879D01*
X66584771Y-76602264D01*
X66568842Y-76654776D01*
X66568692Y-76655138D01*
X66542829Y-76703523D01*
X66542611Y-76703849D01*
X66507802Y-76746265D01*
X66507525Y-76746542D01*
X66465109Y-76781351D01*
X66464783Y-76781569D01*
X66416398Y-76807432D01*
X66416036Y-76807582D01*
X66363524Y-76823511D01*
X66363139Y-76823587D01*
X66302395Y-76829570D01*
X66302199Y-76829580D01*
X66245840Y-76829580D01*
X66244108Y-76828580D01*
X66244108Y-76826580D01*
X66245644Y-76825590D01*
X66312361Y-76819019D01*
X66376331Y-76799614D01*
X66435285Y-76768103D01*
X66486957Y-76725697D01*
X66529363Y-76674025D01*
X66560874Y-76615071D01*
X66580279Y-76551101D01*
X66586850Y-76484384D01*
X66588015Y-76482758D01*
X66590005Y-76482954D01*
G37*
G36*
X113478830Y-76484384D02*
G01*
X113485401Y-76551101D01*
X113504806Y-76615071D01*
X113536317Y-76674025D01*
X113578723Y-76725697D01*
X113630395Y-76768103D01*
X113689349Y-76799614D01*
X113753319Y-76819019D01*
X113820036Y-76825590D01*
X113821662Y-76826755D01*
X113821466Y-76828745D01*
X113819840Y-76829580D01*
X113763481Y-76829580D01*
X113763285Y-76829570D01*
X113702541Y-76823587D01*
X113702156Y-76823511D01*
X113649644Y-76807582D01*
X113649282Y-76807432D01*
X113600897Y-76781569D01*
X113600571Y-76781351D01*
X113558155Y-76746542D01*
X113557878Y-76746265D01*
X113523069Y-76703849D01*
X113522851Y-76703523D01*
X113496988Y-76655138D01*
X113496838Y-76654776D01*
X113480909Y-76602264D01*
X113480833Y-76601879D01*
X113474850Y-76541135D01*
X113474840Y-76540939D01*
X113474840Y-76484580D01*
X113475840Y-76482848D01*
X113477840Y-76482848D01*
X113478830Y-76484384D01*
G37*
G36*
X109770005Y-76482954D02*
G01*
X109770840Y-76484580D01*
X109770840Y-76540939D01*
X109770830Y-76541135D01*
X109764847Y-76601879D01*
X109764771Y-76602264D01*
X109748842Y-76654776D01*
X109748692Y-76655138D01*
X109722829Y-76703523D01*
X109722611Y-76703849D01*
X109687802Y-76746265D01*
X109687525Y-76746542D01*
X109645109Y-76781351D01*
X109644783Y-76781569D01*
X109596398Y-76807432D01*
X109596036Y-76807582D01*
X109543524Y-76823511D01*
X109543139Y-76823587D01*
X109482395Y-76829570D01*
X109482199Y-76829580D01*
X109425840Y-76829580D01*
X109424108Y-76828580D01*
X109424108Y-76826580D01*
X109425644Y-76825590D01*
X109492361Y-76819019D01*
X109556331Y-76799614D01*
X109615285Y-76768103D01*
X109666957Y-76725697D01*
X109709363Y-76674025D01*
X109740874Y-76615071D01*
X109760279Y-76551101D01*
X109766850Y-76484384D01*
X109768015Y-76482758D01*
X109770005Y-76482954D01*
G37*
G36*
X64050005Y-76482954D02*
G01*
X64050840Y-76484580D01*
X64050840Y-76540939D01*
X64050830Y-76541135D01*
X64044847Y-76601879D01*
X64044771Y-76602264D01*
X64028842Y-76654776D01*
X64028692Y-76655138D01*
X64002829Y-76703523D01*
X64002611Y-76703849D01*
X63967802Y-76746265D01*
X63967525Y-76746542D01*
X63925109Y-76781351D01*
X63924783Y-76781569D01*
X63876398Y-76807432D01*
X63876036Y-76807582D01*
X63823524Y-76823511D01*
X63823139Y-76823587D01*
X63762395Y-76829570D01*
X63762199Y-76829580D01*
X63705840Y-76829580D01*
X63704108Y-76828580D01*
X63704108Y-76826580D01*
X63705644Y-76825590D01*
X63772361Y-76819019D01*
X63836331Y-76799614D01*
X63895285Y-76768103D01*
X63946957Y-76725697D01*
X63989363Y-76674025D01*
X64020874Y-76615071D01*
X64040279Y-76551101D01*
X64046850Y-76484384D01*
X64048015Y-76482758D01*
X64050005Y-76482954D01*
G37*
G36*
X112310005Y-76482954D02*
G01*
X112310840Y-76484580D01*
X112310840Y-76540939D01*
X112310830Y-76541135D01*
X112304847Y-76601879D01*
X112304771Y-76602264D01*
X112288842Y-76654776D01*
X112288692Y-76655138D01*
X112262829Y-76703523D01*
X112262611Y-76703849D01*
X112227802Y-76746265D01*
X112227525Y-76746542D01*
X112185109Y-76781351D01*
X112184783Y-76781569D01*
X112136398Y-76807432D01*
X112136036Y-76807582D01*
X112083524Y-76823511D01*
X112083139Y-76823587D01*
X112022395Y-76829570D01*
X112022199Y-76829580D01*
X111965840Y-76829580D01*
X111964108Y-76828580D01*
X111964108Y-76826580D01*
X111965644Y-76825590D01*
X112032361Y-76819019D01*
X112096331Y-76799614D01*
X112155285Y-76768103D01*
X112206957Y-76725697D01*
X112249363Y-76674025D01*
X112280874Y-76615071D01*
X112300279Y-76551101D01*
X112306850Y-76484384D01*
X112308015Y-76482758D01*
X112310005Y-76482954D01*
G37*
G36*
X61510005Y-76482954D02*
G01*
X61510840Y-76484580D01*
X61510840Y-76540939D01*
X61510830Y-76541135D01*
X61504847Y-76601879D01*
X61504771Y-76602264D01*
X61488842Y-76654776D01*
X61488692Y-76655138D01*
X61462829Y-76703523D01*
X61462611Y-76703849D01*
X61427802Y-76746265D01*
X61427525Y-76746542D01*
X61385109Y-76781351D01*
X61384783Y-76781569D01*
X61336398Y-76807432D01*
X61336036Y-76807582D01*
X61283524Y-76823511D01*
X61283139Y-76823587D01*
X61222395Y-76829570D01*
X61222199Y-76829580D01*
X61165840Y-76829580D01*
X61164108Y-76828580D01*
X61164108Y-76826580D01*
X61165644Y-76825590D01*
X61232361Y-76819019D01*
X61296331Y-76799614D01*
X61355285Y-76768103D01*
X61406957Y-76725697D01*
X61449363Y-76674025D01*
X61480874Y-76615071D01*
X61500279Y-76551101D01*
X61506850Y-76484384D01*
X61508015Y-76482758D01*
X61510005Y-76482954D01*
G37*
G36*
X114850005Y-76482954D02*
G01*
X114850840Y-76484580D01*
X114850840Y-76540939D01*
X114850830Y-76541135D01*
X114844847Y-76601879D01*
X114844771Y-76602264D01*
X114828842Y-76654776D01*
X114828692Y-76655138D01*
X114802829Y-76703523D01*
X114802611Y-76703849D01*
X114767802Y-76746265D01*
X114767525Y-76746542D01*
X114725109Y-76781351D01*
X114724783Y-76781569D01*
X114676398Y-76807432D01*
X114676036Y-76807582D01*
X114623524Y-76823511D01*
X114623139Y-76823587D01*
X114562395Y-76829570D01*
X114562199Y-76829580D01*
X114505840Y-76829580D01*
X114504108Y-76828580D01*
X114504108Y-76826580D01*
X114505644Y-76825590D01*
X114572361Y-76819019D01*
X114636331Y-76799614D01*
X114695285Y-76768103D01*
X114746957Y-76725697D01*
X114789363Y-76674025D01*
X114820874Y-76615071D01*
X114840279Y-76551101D01*
X114846850Y-76484384D01*
X114848015Y-76482758D01*
X114850005Y-76482954D01*
G37*
G36*
X91990005Y-76482954D02*
G01*
X91990840Y-76484580D01*
X91990840Y-76540939D01*
X91990830Y-76541135D01*
X91984847Y-76601879D01*
X91984771Y-76602264D01*
X91968842Y-76654776D01*
X91968692Y-76655138D01*
X91942829Y-76703523D01*
X91942611Y-76703849D01*
X91907802Y-76746265D01*
X91907525Y-76746542D01*
X91865109Y-76781351D01*
X91864783Y-76781569D01*
X91816398Y-76807432D01*
X91816036Y-76807582D01*
X91763524Y-76823511D01*
X91763139Y-76823587D01*
X91702395Y-76829570D01*
X91702199Y-76829580D01*
X91645840Y-76829580D01*
X91644108Y-76828580D01*
X91644108Y-76826580D01*
X91645644Y-76825590D01*
X91712361Y-76819019D01*
X91776331Y-76799614D01*
X91835285Y-76768103D01*
X91886957Y-76725697D01*
X91929363Y-76674025D01*
X91960874Y-76615071D01*
X91980279Y-76551101D01*
X91986850Y-76484384D01*
X91988015Y-76482758D01*
X91990005Y-76482954D01*
G37*
G36*
X58970005Y-76482954D02*
G01*
X58970840Y-76484580D01*
X58970840Y-76540939D01*
X58970830Y-76541135D01*
X58964847Y-76601879D01*
X58964771Y-76602264D01*
X58948842Y-76654776D01*
X58948692Y-76655138D01*
X58922829Y-76703523D01*
X58922611Y-76703849D01*
X58887802Y-76746265D01*
X58887525Y-76746542D01*
X58845109Y-76781351D01*
X58844783Y-76781569D01*
X58796398Y-76807432D01*
X58796036Y-76807582D01*
X58743524Y-76823511D01*
X58743139Y-76823587D01*
X58682395Y-76829570D01*
X58682199Y-76829580D01*
X58625840Y-76829580D01*
X58624108Y-76828580D01*
X58624108Y-76826580D01*
X58625644Y-76825590D01*
X58692361Y-76819019D01*
X58756331Y-76799614D01*
X58815285Y-76768103D01*
X58866957Y-76725697D01*
X58909363Y-76674025D01*
X58940874Y-76615071D01*
X58960279Y-76551101D01*
X58966850Y-76484384D01*
X58968015Y-76482758D01*
X58970005Y-76482954D01*
G37*
G36*
X110938830Y-76484384D02*
G01*
X110945401Y-76551101D01*
X110964806Y-76615071D01*
X110996317Y-76674025D01*
X111038723Y-76725697D01*
X111090395Y-76768103D01*
X111149349Y-76799614D01*
X111213319Y-76819019D01*
X111280036Y-76825590D01*
X111281662Y-76826755D01*
X111281466Y-76828745D01*
X111279840Y-76829580D01*
X111223481Y-76829580D01*
X111223285Y-76829570D01*
X111162541Y-76823587D01*
X111162156Y-76823511D01*
X111109644Y-76807582D01*
X111109282Y-76807432D01*
X111060897Y-76781569D01*
X111060571Y-76781351D01*
X111018155Y-76746542D01*
X111017878Y-76746265D01*
X110983069Y-76703849D01*
X110982851Y-76703523D01*
X110956988Y-76655138D01*
X110956838Y-76654776D01*
X110940909Y-76602264D01*
X110940833Y-76601879D01*
X110934850Y-76541135D01*
X110934840Y-76540939D01*
X110934840Y-76484580D01*
X110935840Y-76482848D01*
X110937840Y-76482848D01*
X110938830Y-76484384D01*
G37*
G36*
X117390005Y-76482954D02*
G01*
X117390840Y-76484580D01*
X117390840Y-76540939D01*
X117390830Y-76541135D01*
X117384847Y-76601879D01*
X117384771Y-76602264D01*
X117368842Y-76654776D01*
X117368692Y-76655138D01*
X117342829Y-76703523D01*
X117342611Y-76703849D01*
X117307802Y-76746265D01*
X117307525Y-76746542D01*
X117265109Y-76781351D01*
X117264783Y-76781569D01*
X117216398Y-76807432D01*
X117216036Y-76807582D01*
X117163524Y-76823511D01*
X117163139Y-76823587D01*
X117102395Y-76829570D01*
X117102199Y-76829580D01*
X117045840Y-76829580D01*
X117044108Y-76828580D01*
X117044108Y-76826580D01*
X117045644Y-76825590D01*
X117112361Y-76819019D01*
X117176331Y-76799614D01*
X117235285Y-76768103D01*
X117286957Y-76725697D01*
X117329363Y-76674025D01*
X117360874Y-76615071D01*
X117380279Y-76551101D01*
X117386850Y-76484384D01*
X117388015Y-76482758D01*
X117390005Y-76482954D01*
G37*
G36*
X55058830Y-76484384D02*
G01*
X55065401Y-76551101D01*
X55084806Y-76615071D01*
X55116317Y-76674025D01*
X55158723Y-76725697D01*
X55210395Y-76768103D01*
X55269349Y-76799614D01*
X55333319Y-76819019D01*
X55400036Y-76825590D01*
X55401662Y-76826755D01*
X55401466Y-76828745D01*
X55399840Y-76829580D01*
X55343481Y-76829580D01*
X55343285Y-76829570D01*
X55282541Y-76823587D01*
X55282156Y-76823511D01*
X55229644Y-76807582D01*
X55229282Y-76807432D01*
X55180897Y-76781569D01*
X55180571Y-76781351D01*
X55138155Y-76746542D01*
X55137878Y-76746265D01*
X55103069Y-76703849D01*
X55102851Y-76703523D01*
X55076988Y-76655138D01*
X55076838Y-76654776D01*
X55060909Y-76602264D01*
X55060833Y-76601879D01*
X55054850Y-76541135D01*
X55054840Y-76540939D01*
X55054840Y-76484580D01*
X55055840Y-76482848D01*
X55057840Y-76482848D01*
X55058830Y-76484384D01*
G37*
G36*
X57598830Y-76484384D02*
G01*
X57605401Y-76551101D01*
X57624806Y-76615071D01*
X57656317Y-76674025D01*
X57698723Y-76725697D01*
X57750395Y-76768103D01*
X57809349Y-76799614D01*
X57873319Y-76819019D01*
X57940036Y-76825590D01*
X57941662Y-76826755D01*
X57941466Y-76828745D01*
X57939840Y-76829580D01*
X57883481Y-76829580D01*
X57883285Y-76829570D01*
X57822541Y-76823587D01*
X57822156Y-76823511D01*
X57769644Y-76807582D01*
X57769282Y-76807432D01*
X57720897Y-76781569D01*
X57720571Y-76781351D01*
X57678155Y-76746542D01*
X57677878Y-76746265D01*
X57643069Y-76703849D01*
X57642851Y-76703523D01*
X57616988Y-76655138D01*
X57616838Y-76654776D01*
X57600909Y-76602264D01*
X57600833Y-76601879D01*
X57594850Y-76541135D01*
X57594840Y-76540939D01*
X57594840Y-76484580D01*
X57595840Y-76482848D01*
X57597840Y-76482848D01*
X57598830Y-76484384D01*
G37*
G36*
X60138830Y-76484384D02*
G01*
X60145401Y-76551101D01*
X60164806Y-76615071D01*
X60196317Y-76674025D01*
X60238723Y-76725697D01*
X60290395Y-76768103D01*
X60349349Y-76799614D01*
X60413319Y-76819019D01*
X60480036Y-76825590D01*
X60481662Y-76826755D01*
X60481466Y-76828745D01*
X60479840Y-76829580D01*
X60423481Y-76829580D01*
X60423285Y-76829570D01*
X60362541Y-76823587D01*
X60362156Y-76823511D01*
X60309644Y-76807582D01*
X60309282Y-76807432D01*
X60260897Y-76781569D01*
X60260571Y-76781351D01*
X60218155Y-76746542D01*
X60217878Y-76746265D01*
X60183069Y-76703849D01*
X60182851Y-76703523D01*
X60156988Y-76655138D01*
X60156838Y-76654776D01*
X60140909Y-76602264D01*
X60140833Y-76601879D01*
X60134850Y-76541135D01*
X60134840Y-76540939D01*
X60134840Y-76484580D01*
X60135840Y-76482848D01*
X60137840Y-76482848D01*
X60138830Y-76484384D01*
G37*
G36*
X62678830Y-76484384D02*
G01*
X62685401Y-76551101D01*
X62704806Y-76615071D01*
X62736317Y-76674025D01*
X62778723Y-76725697D01*
X62830395Y-76768103D01*
X62889349Y-76799614D01*
X62953319Y-76819019D01*
X63020036Y-76825590D01*
X63021662Y-76826755D01*
X63021466Y-76828745D01*
X63019840Y-76829580D01*
X62963481Y-76829580D01*
X62963285Y-76829570D01*
X62902541Y-76823587D01*
X62902156Y-76823511D01*
X62849644Y-76807582D01*
X62849282Y-76807432D01*
X62800897Y-76781569D01*
X62800571Y-76781351D01*
X62758155Y-76746542D01*
X62757878Y-76746265D01*
X62723069Y-76703849D01*
X62722851Y-76703523D01*
X62696988Y-76655138D01*
X62696838Y-76654776D01*
X62680909Y-76602264D01*
X62680833Y-76601879D01*
X62674850Y-76541135D01*
X62674840Y-76540939D01*
X62674840Y-76484580D01*
X62675840Y-76482848D01*
X62677840Y-76482848D01*
X62678830Y-76484384D01*
G37*
G36*
X84370005Y-76482954D02*
G01*
X84370840Y-76484580D01*
X84370840Y-76540939D01*
X84370830Y-76541135D01*
X84364847Y-76601879D01*
X84364771Y-76602264D01*
X84348842Y-76654776D01*
X84348692Y-76655138D01*
X84322829Y-76703523D01*
X84322611Y-76703849D01*
X84287802Y-76746265D01*
X84287525Y-76746542D01*
X84245109Y-76781351D01*
X84244783Y-76781569D01*
X84196398Y-76807432D01*
X84196036Y-76807582D01*
X84143524Y-76823511D01*
X84143139Y-76823587D01*
X84082395Y-76829570D01*
X84082199Y-76829580D01*
X84025840Y-76829580D01*
X84024108Y-76828580D01*
X84024108Y-76826580D01*
X84025644Y-76825590D01*
X84092361Y-76819019D01*
X84156331Y-76799614D01*
X84215285Y-76768103D01*
X84266957Y-76725697D01*
X84309363Y-76674025D01*
X84340874Y-76615071D01*
X84360279Y-76551101D01*
X84366850Y-76484384D01*
X84368015Y-76482758D01*
X84370005Y-76482954D01*
G37*
G36*
X65218830Y-76484384D02*
G01*
X65225401Y-76551101D01*
X65244806Y-76615071D01*
X65276317Y-76674025D01*
X65318723Y-76725697D01*
X65370395Y-76768103D01*
X65429349Y-76799614D01*
X65493319Y-76819019D01*
X65560036Y-76825590D01*
X65561662Y-76826755D01*
X65561466Y-76828745D01*
X65559840Y-76829580D01*
X65503481Y-76829580D01*
X65503285Y-76829570D01*
X65442541Y-76823587D01*
X65442156Y-76823511D01*
X65389644Y-76807582D01*
X65389282Y-76807432D01*
X65340897Y-76781569D01*
X65340571Y-76781351D01*
X65298155Y-76746542D01*
X65297878Y-76746265D01*
X65263069Y-76703849D01*
X65262851Y-76703523D01*
X65236988Y-76655138D01*
X65236838Y-76654776D01*
X65220909Y-76602264D01*
X65220833Y-76601879D01*
X65214850Y-76541135D01*
X65214840Y-76540939D01*
X65214840Y-76484580D01*
X65215840Y-76482848D01*
X65217840Y-76482848D01*
X65218830Y-76484384D01*
G37*
G36*
X108398830Y-76484384D02*
G01*
X108405401Y-76551101D01*
X108424806Y-76615071D01*
X108456317Y-76674025D01*
X108498723Y-76725697D01*
X108550395Y-76768103D01*
X108609349Y-76799614D01*
X108673319Y-76819019D01*
X108740036Y-76825590D01*
X108741662Y-76826755D01*
X108741466Y-76828745D01*
X108739840Y-76829580D01*
X108683481Y-76829580D01*
X108683285Y-76829570D01*
X108622541Y-76823587D01*
X108622156Y-76823511D01*
X108569644Y-76807582D01*
X108569282Y-76807432D01*
X108520897Y-76781569D01*
X108520571Y-76781351D01*
X108478155Y-76746542D01*
X108477878Y-76746265D01*
X108443069Y-76703849D01*
X108442851Y-76703523D01*
X108416988Y-76655138D01*
X108416838Y-76654776D01*
X108400909Y-76602264D01*
X108400833Y-76601879D01*
X108394850Y-76541135D01*
X108394840Y-76540939D01*
X108394840Y-76484580D01*
X108395840Y-76482848D01*
X108397840Y-76482848D01*
X108398830Y-76484384D01*
G37*
G36*
X67758830Y-76484384D02*
G01*
X67765401Y-76551101D01*
X67784806Y-76615071D01*
X67816317Y-76674025D01*
X67858723Y-76725697D01*
X67910395Y-76768103D01*
X67969349Y-76799614D01*
X68033319Y-76819019D01*
X68100036Y-76825590D01*
X68101662Y-76826755D01*
X68101466Y-76828745D01*
X68099840Y-76829580D01*
X68043481Y-76829580D01*
X68043285Y-76829570D01*
X67982541Y-76823587D01*
X67982156Y-76823511D01*
X67929644Y-76807582D01*
X67929282Y-76807432D01*
X67880897Y-76781569D01*
X67880571Y-76781351D01*
X67838155Y-76746542D01*
X67837878Y-76746265D01*
X67803069Y-76703849D01*
X67802851Y-76703523D01*
X67776988Y-76655138D01*
X67776838Y-76654776D01*
X67760909Y-76602264D01*
X67760833Y-76601879D01*
X67754850Y-76541135D01*
X67754840Y-76540939D01*
X67754840Y-76484580D01*
X67755840Y-76482848D01*
X67757840Y-76482848D01*
X67758830Y-76484384D01*
G37*
G36*
X70298830Y-76484384D02*
G01*
X70305401Y-76551101D01*
X70324806Y-76615071D01*
X70356317Y-76674025D01*
X70398723Y-76725697D01*
X70450395Y-76768103D01*
X70509349Y-76799614D01*
X70573319Y-76819019D01*
X70640036Y-76825590D01*
X70641662Y-76826755D01*
X70641466Y-76828745D01*
X70639840Y-76829580D01*
X70583481Y-76829580D01*
X70583285Y-76829570D01*
X70522541Y-76823587D01*
X70522156Y-76823511D01*
X70469644Y-76807582D01*
X70469282Y-76807432D01*
X70420897Y-76781569D01*
X70420571Y-76781351D01*
X70378155Y-76746542D01*
X70377878Y-76746265D01*
X70343069Y-76703849D01*
X70342851Y-76703523D01*
X70316988Y-76655138D01*
X70316838Y-76654776D01*
X70300909Y-76602264D01*
X70300833Y-76601879D01*
X70294850Y-76541135D01*
X70294840Y-76540939D01*
X70294840Y-76484580D01*
X70295840Y-76482848D01*
X70297840Y-76482848D01*
X70298830Y-76484384D01*
G37*
G36*
X72838830Y-76484384D02*
G01*
X72845401Y-76551101D01*
X72864806Y-76615071D01*
X72896317Y-76674025D01*
X72938723Y-76725697D01*
X72990395Y-76768103D01*
X73049349Y-76799614D01*
X73113319Y-76819019D01*
X73180036Y-76825590D01*
X73181662Y-76826755D01*
X73181466Y-76828745D01*
X73179840Y-76829580D01*
X73123481Y-76829580D01*
X73123285Y-76829570D01*
X73062541Y-76823587D01*
X73062156Y-76823511D01*
X73009644Y-76807582D01*
X73009282Y-76807432D01*
X72960897Y-76781569D01*
X72960571Y-76781351D01*
X72918155Y-76746542D01*
X72917878Y-76746265D01*
X72883069Y-76703849D01*
X72882851Y-76703523D01*
X72856988Y-76655138D01*
X72856838Y-76654776D01*
X72840909Y-76602264D01*
X72840833Y-76601879D01*
X72834850Y-76541135D01*
X72834840Y-76540939D01*
X72834840Y-76484580D01*
X72835840Y-76482848D01*
X72837840Y-76482848D01*
X72838830Y-76484384D01*
G37*
G36*
X75378830Y-76484384D02*
G01*
X75385401Y-76551101D01*
X75404806Y-76615071D01*
X75436317Y-76674025D01*
X75478723Y-76725697D01*
X75530395Y-76768103D01*
X75589349Y-76799614D01*
X75653319Y-76819019D01*
X75720036Y-76825590D01*
X75721662Y-76826755D01*
X75721466Y-76828745D01*
X75719840Y-76829580D01*
X75663481Y-76829580D01*
X75663285Y-76829570D01*
X75602541Y-76823587D01*
X75602156Y-76823511D01*
X75549644Y-76807582D01*
X75549282Y-76807432D01*
X75500897Y-76781569D01*
X75500571Y-76781351D01*
X75458155Y-76746542D01*
X75457878Y-76746265D01*
X75423069Y-76703849D01*
X75422851Y-76703523D01*
X75396988Y-76655138D01*
X75396838Y-76654776D01*
X75380909Y-76602264D01*
X75380833Y-76601879D01*
X75374850Y-76541135D01*
X75374840Y-76540939D01*
X75374840Y-76484580D01*
X75375840Y-76482848D01*
X75377840Y-76482848D01*
X75378830Y-76484384D01*
G37*
G36*
X77918830Y-76484384D02*
G01*
X77925401Y-76551101D01*
X77944806Y-76615071D01*
X77976317Y-76674025D01*
X78018723Y-76725697D01*
X78070395Y-76768103D01*
X78129349Y-76799614D01*
X78193319Y-76819019D01*
X78260036Y-76825590D01*
X78261662Y-76826755D01*
X78261466Y-76828745D01*
X78259840Y-76829580D01*
X78203481Y-76829580D01*
X78203285Y-76829570D01*
X78142541Y-76823587D01*
X78142156Y-76823511D01*
X78089644Y-76807582D01*
X78089282Y-76807432D01*
X78040897Y-76781569D01*
X78040571Y-76781351D01*
X77998155Y-76746542D01*
X77997878Y-76746265D01*
X77963069Y-76703849D01*
X77962851Y-76703523D01*
X77936988Y-76655138D01*
X77936838Y-76654776D01*
X77920909Y-76602264D01*
X77920833Y-76601879D01*
X77914850Y-76541135D01*
X77914840Y-76540939D01*
X77914840Y-76484580D01*
X77915840Y-76482848D01*
X77917840Y-76482848D01*
X77918830Y-76484384D01*
G37*
G36*
X80458830Y-76484384D02*
G01*
X80465401Y-76551101D01*
X80484806Y-76615071D01*
X80516317Y-76674025D01*
X80558723Y-76725697D01*
X80610395Y-76768103D01*
X80669349Y-76799614D01*
X80733319Y-76819019D01*
X80800036Y-76825590D01*
X80801662Y-76826755D01*
X80801466Y-76828745D01*
X80799840Y-76829580D01*
X80743481Y-76829580D01*
X80743285Y-76829570D01*
X80682541Y-76823587D01*
X80682156Y-76823511D01*
X80629644Y-76807582D01*
X80629282Y-76807432D01*
X80580897Y-76781569D01*
X80580571Y-76781351D01*
X80538155Y-76746542D01*
X80537878Y-76746265D01*
X80503069Y-76703849D01*
X80502851Y-76703523D01*
X80476988Y-76655138D01*
X80476838Y-76654776D01*
X80460909Y-76602264D01*
X80460833Y-76601879D01*
X80454850Y-76541135D01*
X80454840Y-76540939D01*
X80454840Y-76484580D01*
X80455840Y-76482848D01*
X80457840Y-76482848D01*
X80458830Y-76484384D01*
G37*
G36*
X89450005Y-76482954D02*
G01*
X89450840Y-76484580D01*
X89450840Y-76540939D01*
X89450830Y-76541135D01*
X89444847Y-76601879D01*
X89444771Y-76602264D01*
X89428842Y-76654776D01*
X89428692Y-76655138D01*
X89402829Y-76703523D01*
X89402611Y-76703849D01*
X89367802Y-76746265D01*
X89367525Y-76746542D01*
X89325109Y-76781351D01*
X89324783Y-76781569D01*
X89276398Y-76807432D01*
X89276036Y-76807582D01*
X89223524Y-76823511D01*
X89223139Y-76823587D01*
X89162395Y-76829570D01*
X89162199Y-76829580D01*
X89105840Y-76829580D01*
X89104108Y-76828580D01*
X89104108Y-76826580D01*
X89105644Y-76825590D01*
X89172361Y-76819019D01*
X89236331Y-76799614D01*
X89295285Y-76768103D01*
X89346957Y-76725697D01*
X89389363Y-76674025D01*
X89420874Y-76615071D01*
X89440279Y-76551101D01*
X89446850Y-76484384D01*
X89448015Y-76482758D01*
X89450005Y-76482954D01*
G37*
G36*
X105858830Y-76484384D02*
G01*
X105865401Y-76551101D01*
X105884806Y-76615071D01*
X105916317Y-76674025D01*
X105958723Y-76725697D01*
X106010395Y-76768103D01*
X106069349Y-76799614D01*
X106133319Y-76819019D01*
X106200036Y-76825590D01*
X106201662Y-76826755D01*
X106201466Y-76828745D01*
X106199840Y-76829580D01*
X106143481Y-76829580D01*
X106143285Y-76829570D01*
X106082541Y-76823587D01*
X106082156Y-76823511D01*
X106029644Y-76807582D01*
X106029282Y-76807432D01*
X105980897Y-76781569D01*
X105980571Y-76781351D01*
X105938155Y-76746542D01*
X105937878Y-76746265D01*
X105903069Y-76703849D01*
X105902851Y-76703523D01*
X105876988Y-76655138D01*
X105876838Y-76654776D01*
X105860909Y-76602264D01*
X105860833Y-76601879D01*
X105854850Y-76541135D01*
X105854840Y-76540939D01*
X105854840Y-76484580D01*
X105855840Y-76482848D01*
X105857840Y-76482848D01*
X105858830Y-76484384D01*
G37*
G36*
X82998830Y-76484384D02*
G01*
X83005401Y-76551101D01*
X83024806Y-76615071D01*
X83056317Y-76674025D01*
X83098723Y-76725697D01*
X83150395Y-76768103D01*
X83209349Y-76799614D01*
X83273319Y-76819019D01*
X83340036Y-76825590D01*
X83341662Y-76826755D01*
X83341466Y-76828745D01*
X83339840Y-76829580D01*
X83283481Y-76829580D01*
X83283285Y-76829570D01*
X83222541Y-76823587D01*
X83222156Y-76823511D01*
X83169644Y-76807582D01*
X83169282Y-76807432D01*
X83120897Y-76781569D01*
X83120571Y-76781351D01*
X83078155Y-76746542D01*
X83077878Y-76746265D01*
X83043069Y-76703849D01*
X83042851Y-76703523D01*
X83016988Y-76655138D01*
X83016838Y-76654776D01*
X83000909Y-76602264D01*
X83000833Y-76601879D01*
X82994850Y-76541135D01*
X82994840Y-76540939D01*
X82994840Y-76484580D01*
X82995840Y-76482848D01*
X82997840Y-76482848D01*
X82998830Y-76484384D01*
G37*
G36*
X85538830Y-76484384D02*
G01*
X85545401Y-76551101D01*
X85564806Y-76615071D01*
X85596317Y-76674025D01*
X85638723Y-76725697D01*
X85690395Y-76768103D01*
X85749349Y-76799614D01*
X85813319Y-76819019D01*
X85880036Y-76825590D01*
X85881662Y-76826755D01*
X85881466Y-76828745D01*
X85879840Y-76829580D01*
X85823481Y-76829580D01*
X85823285Y-76829570D01*
X85762541Y-76823587D01*
X85762156Y-76823511D01*
X85709644Y-76807582D01*
X85709282Y-76807432D01*
X85660897Y-76781569D01*
X85660571Y-76781351D01*
X85618155Y-76746542D01*
X85617878Y-76746265D01*
X85583069Y-76703849D01*
X85582851Y-76703523D01*
X85556988Y-76655138D01*
X85556838Y-76654776D01*
X85540909Y-76602264D01*
X85540833Y-76601879D01*
X85534850Y-76541135D01*
X85534840Y-76540939D01*
X85534840Y-76484580D01*
X85535840Y-76482848D01*
X85537840Y-76482848D01*
X85538830Y-76484384D01*
G37*
G36*
X88078830Y-76484384D02*
G01*
X88085401Y-76551101D01*
X88104806Y-76615071D01*
X88136317Y-76674025D01*
X88178723Y-76725697D01*
X88230395Y-76768103D01*
X88289349Y-76799614D01*
X88353319Y-76819019D01*
X88420036Y-76825590D01*
X88421662Y-76826755D01*
X88421466Y-76828745D01*
X88419840Y-76829580D01*
X88363481Y-76829580D01*
X88363285Y-76829570D01*
X88302541Y-76823587D01*
X88302156Y-76823511D01*
X88249644Y-76807582D01*
X88249282Y-76807432D01*
X88200897Y-76781569D01*
X88200571Y-76781351D01*
X88158155Y-76746542D01*
X88157878Y-76746265D01*
X88123069Y-76703849D01*
X88122851Y-76703523D01*
X88096988Y-76655138D01*
X88096838Y-76654776D01*
X88080909Y-76602264D01*
X88080833Y-76601879D01*
X88074850Y-76541135D01*
X88074840Y-76540939D01*
X88074840Y-76484580D01*
X88075840Y-76482848D01*
X88077840Y-76482848D01*
X88078830Y-76484384D01*
G37*
G36*
X90618830Y-76484384D02*
G01*
X90625401Y-76551101D01*
X90644806Y-76615071D01*
X90676317Y-76674025D01*
X90718723Y-76725697D01*
X90770395Y-76768103D01*
X90829349Y-76799614D01*
X90893319Y-76819019D01*
X90960036Y-76825590D01*
X90961662Y-76826755D01*
X90961466Y-76828745D01*
X90959840Y-76829580D01*
X90903481Y-76829580D01*
X90903285Y-76829570D01*
X90842541Y-76823587D01*
X90842156Y-76823511D01*
X90789644Y-76807582D01*
X90789282Y-76807432D01*
X90740897Y-76781569D01*
X90740571Y-76781351D01*
X90698155Y-76746542D01*
X90697878Y-76746265D01*
X90663069Y-76703849D01*
X90662851Y-76703523D01*
X90636988Y-76655138D01*
X90636838Y-76654776D01*
X90620909Y-76602264D01*
X90620833Y-76601879D01*
X90614850Y-76541135D01*
X90614840Y-76540939D01*
X90614840Y-76484580D01*
X90615840Y-76482848D01*
X90617840Y-76482848D01*
X90618830Y-76484384D01*
G37*
G36*
X93158830Y-76484384D02*
G01*
X93165401Y-76551101D01*
X93184806Y-76615071D01*
X93216317Y-76674025D01*
X93258723Y-76725697D01*
X93310395Y-76768103D01*
X93369349Y-76799614D01*
X93433319Y-76819019D01*
X93500036Y-76825590D01*
X93501662Y-76826755D01*
X93501466Y-76828745D01*
X93499840Y-76829580D01*
X93443481Y-76829580D01*
X93443285Y-76829570D01*
X93382541Y-76823587D01*
X93382156Y-76823511D01*
X93329644Y-76807582D01*
X93329282Y-76807432D01*
X93280897Y-76781569D01*
X93280571Y-76781351D01*
X93238155Y-76746542D01*
X93237878Y-76746265D01*
X93203069Y-76703849D01*
X93202851Y-76703523D01*
X93176988Y-76655138D01*
X93176838Y-76654776D01*
X93160909Y-76602264D01*
X93160833Y-76601879D01*
X93154850Y-76541135D01*
X93154840Y-76540939D01*
X93154840Y-76484580D01*
X93155840Y-76482848D01*
X93157840Y-76482848D01*
X93158830Y-76484384D01*
G37*
G36*
X95698830Y-76484384D02*
G01*
X95705401Y-76551101D01*
X95724806Y-76615071D01*
X95756317Y-76674025D01*
X95798723Y-76725697D01*
X95850395Y-76768103D01*
X95909349Y-76799614D01*
X95973319Y-76819019D01*
X96040036Y-76825590D01*
X96041662Y-76826755D01*
X96041466Y-76828745D01*
X96039840Y-76829580D01*
X95983481Y-76829580D01*
X95983285Y-76829570D01*
X95922541Y-76823587D01*
X95922156Y-76823511D01*
X95869644Y-76807582D01*
X95869282Y-76807432D01*
X95820897Y-76781569D01*
X95820571Y-76781351D01*
X95778155Y-76746542D01*
X95777878Y-76746265D01*
X95743069Y-76703849D01*
X95742851Y-76703523D01*
X95716988Y-76655138D01*
X95716838Y-76654776D01*
X95700909Y-76602264D01*
X95700833Y-76601879D01*
X95694850Y-76541135D01*
X95694840Y-76540939D01*
X95694840Y-76484580D01*
X95695840Y-76482848D01*
X95697840Y-76482848D01*
X95698830Y-76484384D01*
G37*
G36*
X98238830Y-76484384D02*
G01*
X98245401Y-76551101D01*
X98264806Y-76615071D01*
X98296317Y-76674025D01*
X98338723Y-76725697D01*
X98390395Y-76768103D01*
X98449349Y-76799614D01*
X98513319Y-76819019D01*
X98580036Y-76825590D01*
X98581662Y-76826755D01*
X98581466Y-76828745D01*
X98579840Y-76829580D01*
X98523481Y-76829580D01*
X98523285Y-76829570D01*
X98462541Y-76823587D01*
X98462156Y-76823511D01*
X98409644Y-76807582D01*
X98409282Y-76807432D01*
X98360897Y-76781569D01*
X98360571Y-76781351D01*
X98318155Y-76746542D01*
X98317878Y-76746265D01*
X98283069Y-76703849D01*
X98282851Y-76703523D01*
X98256988Y-76655138D01*
X98256838Y-76654776D01*
X98240909Y-76602264D01*
X98240833Y-76601879D01*
X98234850Y-76541135D01*
X98234840Y-76540939D01*
X98234840Y-76484580D01*
X98235840Y-76482848D01*
X98237840Y-76482848D01*
X98238830Y-76484384D01*
G37*
G36*
X103318830Y-76484384D02*
G01*
X103325401Y-76551101D01*
X103344806Y-76615071D01*
X103376317Y-76674025D01*
X103418723Y-76725697D01*
X103470395Y-76768103D01*
X103529349Y-76799614D01*
X103593319Y-76819019D01*
X103660036Y-76825590D01*
X103661662Y-76826755D01*
X103661466Y-76828745D01*
X103659840Y-76829580D01*
X103603481Y-76829580D01*
X103603285Y-76829570D01*
X103542541Y-76823587D01*
X103542156Y-76823511D01*
X103489644Y-76807582D01*
X103489282Y-76807432D01*
X103440897Y-76781569D01*
X103440571Y-76781351D01*
X103398155Y-76746542D01*
X103397878Y-76746265D01*
X103363069Y-76703849D01*
X103362851Y-76703523D01*
X103336988Y-76655138D01*
X103336838Y-76654776D01*
X103320909Y-76602264D01*
X103320833Y-76601879D01*
X103314850Y-76541135D01*
X103314840Y-76540939D01*
X103314840Y-76484580D01*
X103315840Y-76482848D01*
X103317840Y-76482848D01*
X103318830Y-76484384D01*
G37*
G36*
X86910005Y-76482954D02*
G01*
X86910840Y-76484580D01*
X86910840Y-76540939D01*
X86910830Y-76541135D01*
X86904847Y-76601879D01*
X86904771Y-76602264D01*
X86888842Y-76654776D01*
X86888692Y-76655138D01*
X86862829Y-76703523D01*
X86862611Y-76703849D01*
X86827802Y-76746265D01*
X86827525Y-76746542D01*
X86785109Y-76781351D01*
X86784783Y-76781569D01*
X86736398Y-76807432D01*
X86736036Y-76807582D01*
X86683524Y-76823511D01*
X86683139Y-76823587D01*
X86622395Y-76829570D01*
X86622199Y-76829580D01*
X86565840Y-76829580D01*
X86564108Y-76828580D01*
X86564108Y-76826580D01*
X86565644Y-76825590D01*
X86632361Y-76819019D01*
X86696331Y-76799614D01*
X86755285Y-76768103D01*
X86806957Y-76725697D01*
X86849363Y-76674025D01*
X86880874Y-76615071D01*
X86900279Y-76551101D01*
X86906850Y-76484384D01*
X86908015Y-76482758D01*
X86910005Y-76482954D01*
G37*
G36*
X100778830Y-76484384D02*
G01*
X100785401Y-76551101D01*
X100804806Y-76615071D01*
X100836317Y-76674025D01*
X100878723Y-76725697D01*
X100930395Y-76768103D01*
X100989349Y-76799614D01*
X101053319Y-76819019D01*
X101120036Y-76825590D01*
X101121662Y-76826755D01*
X101121466Y-76828745D01*
X101119840Y-76829580D01*
X101063481Y-76829580D01*
X101063285Y-76829570D01*
X101002541Y-76823587D01*
X101002156Y-76823511D01*
X100949644Y-76807582D01*
X100949282Y-76807432D01*
X100900897Y-76781569D01*
X100900571Y-76781351D01*
X100858155Y-76746542D01*
X100857878Y-76746265D01*
X100823069Y-76703849D01*
X100822851Y-76703523D01*
X100796988Y-76655138D01*
X100796838Y-76654776D01*
X100780909Y-76602264D01*
X100780833Y-76601879D01*
X100774850Y-76541135D01*
X100774840Y-76540939D01*
X100774840Y-76484580D01*
X100775840Y-76482848D01*
X100777840Y-76482848D01*
X100778830Y-76484384D01*
G37*
G36*
X55401572Y-69104580D02*
G01*
X55401572Y-69106580D01*
X55400036Y-69107570D01*
X55333319Y-69114141D01*
X55269349Y-69133546D01*
X55210395Y-69165057D01*
X55158723Y-69207463D01*
X55116317Y-69259135D01*
X55084806Y-69318089D01*
X55065401Y-69382059D01*
X55058830Y-69448776D01*
X55057665Y-69450402D01*
X55055675Y-69450206D01*
X55054840Y-69448580D01*
X55054840Y-69392221D01*
X55054850Y-69392025D01*
X55060833Y-69331281D01*
X55060909Y-69330896D01*
X55076838Y-69278384D01*
X55076988Y-69278022D01*
X55102851Y-69229637D01*
X55103069Y-69229311D01*
X55137878Y-69186895D01*
X55138155Y-69186618D01*
X55180571Y-69151809D01*
X55180897Y-69151591D01*
X55229282Y-69125728D01*
X55229644Y-69125578D01*
X55282156Y-69109649D01*
X55282541Y-69109573D01*
X55343285Y-69103590D01*
X55343481Y-69103580D01*
X55399840Y-69103580D01*
X55401572Y-69104580D01*
G37*
G36*
X108741572Y-69104580D02*
G01*
X108741572Y-69106580D01*
X108740036Y-69107570D01*
X108673319Y-69114141D01*
X108609349Y-69133546D01*
X108550395Y-69165057D01*
X108498723Y-69207463D01*
X108456317Y-69259135D01*
X108424806Y-69318089D01*
X108405401Y-69382059D01*
X108398830Y-69448776D01*
X108397665Y-69450402D01*
X108395675Y-69450206D01*
X108394840Y-69448580D01*
X108394840Y-69392221D01*
X108394850Y-69392025D01*
X108400833Y-69331281D01*
X108400909Y-69330896D01*
X108416838Y-69278384D01*
X108416988Y-69278022D01*
X108442851Y-69229637D01*
X108443069Y-69229311D01*
X108477878Y-69186895D01*
X108478155Y-69186618D01*
X108520571Y-69151809D01*
X108520897Y-69151591D01*
X108569282Y-69125728D01*
X108569644Y-69125578D01*
X108622156Y-69109649D01*
X108622541Y-69109573D01*
X108683285Y-69103590D01*
X108683481Y-69103580D01*
X108739840Y-69103580D01*
X108741572Y-69104580D01*
G37*
G36*
X57941572Y-69104580D02*
G01*
X57941572Y-69106580D01*
X57940036Y-69107570D01*
X57873319Y-69114141D01*
X57809349Y-69133546D01*
X57750395Y-69165057D01*
X57698723Y-69207463D01*
X57656317Y-69259135D01*
X57624806Y-69318089D01*
X57605401Y-69382059D01*
X57598830Y-69448776D01*
X57597665Y-69450402D01*
X57595675Y-69450206D01*
X57594840Y-69448580D01*
X57594840Y-69392221D01*
X57594850Y-69392025D01*
X57600833Y-69331281D01*
X57600909Y-69330896D01*
X57616838Y-69278384D01*
X57616988Y-69278022D01*
X57642851Y-69229637D01*
X57643069Y-69229311D01*
X57677878Y-69186895D01*
X57678155Y-69186618D01*
X57720571Y-69151809D01*
X57720897Y-69151591D01*
X57769282Y-69125728D01*
X57769644Y-69125578D01*
X57822156Y-69109649D01*
X57822541Y-69109573D01*
X57883285Y-69103590D01*
X57883481Y-69103580D01*
X57939840Y-69103580D01*
X57941572Y-69104580D01*
G37*
G36*
X60481572Y-69104580D02*
G01*
X60481572Y-69106580D01*
X60480036Y-69107570D01*
X60413319Y-69114141D01*
X60349349Y-69133546D01*
X60290395Y-69165057D01*
X60238723Y-69207463D01*
X60196317Y-69259135D01*
X60164806Y-69318089D01*
X60145401Y-69382059D01*
X60138830Y-69448776D01*
X60137665Y-69450402D01*
X60135675Y-69450206D01*
X60134840Y-69448580D01*
X60134840Y-69392221D01*
X60134850Y-69392025D01*
X60140833Y-69331281D01*
X60140909Y-69330896D01*
X60156838Y-69278384D01*
X60156988Y-69278022D01*
X60182851Y-69229637D01*
X60183069Y-69229311D01*
X60217878Y-69186895D01*
X60218155Y-69186618D01*
X60260571Y-69151809D01*
X60260897Y-69151591D01*
X60309282Y-69125728D01*
X60309644Y-69125578D01*
X60362156Y-69109649D01*
X60362541Y-69109573D01*
X60423285Y-69103590D01*
X60423481Y-69103580D01*
X60479840Y-69103580D01*
X60481572Y-69104580D01*
G37*
G36*
X63021572Y-69104580D02*
G01*
X63021572Y-69106580D01*
X63020036Y-69107570D01*
X62953319Y-69114141D01*
X62889349Y-69133546D01*
X62830395Y-69165057D01*
X62778723Y-69207463D01*
X62736317Y-69259135D01*
X62704806Y-69318089D01*
X62685401Y-69382059D01*
X62678830Y-69448776D01*
X62677665Y-69450402D01*
X62675675Y-69450206D01*
X62674840Y-69448580D01*
X62674840Y-69392221D01*
X62674850Y-69392025D01*
X62680833Y-69331281D01*
X62680909Y-69330896D01*
X62696838Y-69278384D01*
X62696988Y-69278022D01*
X62722851Y-69229637D01*
X62723069Y-69229311D01*
X62757878Y-69186895D01*
X62758155Y-69186618D01*
X62800571Y-69151809D01*
X62800897Y-69151591D01*
X62849282Y-69125728D01*
X62849644Y-69125578D01*
X62902156Y-69109649D01*
X62902541Y-69109573D01*
X62963285Y-69103590D01*
X62963481Y-69103580D01*
X63019840Y-69103580D01*
X63021572Y-69104580D01*
G37*
G36*
X65561572Y-69104580D02*
G01*
X65561572Y-69106580D01*
X65560036Y-69107570D01*
X65493319Y-69114141D01*
X65429349Y-69133546D01*
X65370395Y-69165057D01*
X65318723Y-69207463D01*
X65276317Y-69259135D01*
X65244806Y-69318089D01*
X65225401Y-69382059D01*
X65218830Y-69448776D01*
X65217665Y-69450402D01*
X65215675Y-69450206D01*
X65214840Y-69448580D01*
X65214840Y-69392221D01*
X65214850Y-69392025D01*
X65220833Y-69331281D01*
X65220909Y-69330896D01*
X65236838Y-69278384D01*
X65236988Y-69278022D01*
X65262851Y-69229637D01*
X65263069Y-69229311D01*
X65297878Y-69186895D01*
X65298155Y-69186618D01*
X65340571Y-69151809D01*
X65340897Y-69151591D01*
X65389282Y-69125728D01*
X65389644Y-69125578D01*
X65442156Y-69109649D01*
X65442541Y-69109573D01*
X65503285Y-69103590D01*
X65503481Y-69103580D01*
X65559840Y-69103580D01*
X65561572Y-69104580D01*
G37*
G36*
X68101572Y-69104580D02*
G01*
X68101572Y-69106580D01*
X68100036Y-69107570D01*
X68033319Y-69114141D01*
X67969349Y-69133546D01*
X67910395Y-69165057D01*
X67858723Y-69207463D01*
X67816317Y-69259135D01*
X67784806Y-69318089D01*
X67765401Y-69382059D01*
X67758830Y-69448776D01*
X67757665Y-69450402D01*
X67755675Y-69450206D01*
X67754840Y-69448580D01*
X67754840Y-69392221D01*
X67754850Y-69392025D01*
X67760833Y-69331281D01*
X67760909Y-69330896D01*
X67776838Y-69278384D01*
X67776988Y-69278022D01*
X67802851Y-69229637D01*
X67803069Y-69229311D01*
X67837878Y-69186895D01*
X67838155Y-69186618D01*
X67880571Y-69151809D01*
X67880897Y-69151591D01*
X67929282Y-69125728D01*
X67929644Y-69125578D01*
X67982156Y-69109649D01*
X67982541Y-69109573D01*
X68043285Y-69103590D01*
X68043481Y-69103580D01*
X68099840Y-69103580D01*
X68101572Y-69104580D01*
G37*
G36*
X70641572Y-69104580D02*
G01*
X70641572Y-69106580D01*
X70640036Y-69107570D01*
X70573319Y-69114141D01*
X70509349Y-69133546D01*
X70450395Y-69165057D01*
X70398723Y-69207463D01*
X70356317Y-69259135D01*
X70324806Y-69318089D01*
X70305401Y-69382059D01*
X70298830Y-69448776D01*
X70297665Y-69450402D01*
X70295675Y-69450206D01*
X70294840Y-69448580D01*
X70294840Y-69392221D01*
X70294850Y-69392025D01*
X70300833Y-69331281D01*
X70300909Y-69330896D01*
X70316838Y-69278384D01*
X70316988Y-69278022D01*
X70342851Y-69229637D01*
X70343069Y-69229311D01*
X70377878Y-69186895D01*
X70378155Y-69186618D01*
X70420571Y-69151809D01*
X70420897Y-69151591D01*
X70469282Y-69125728D01*
X70469644Y-69125578D01*
X70522156Y-69109649D01*
X70522541Y-69109573D01*
X70583285Y-69103590D01*
X70583481Y-69103580D01*
X70639840Y-69103580D01*
X70641572Y-69104580D01*
G37*
G36*
X116361572Y-69104580D02*
G01*
X116361572Y-69106580D01*
X116360036Y-69107570D01*
X116293319Y-69114141D01*
X116229349Y-69133546D01*
X116170395Y-69165057D01*
X116118723Y-69207463D01*
X116076317Y-69259135D01*
X116044806Y-69318089D01*
X116025401Y-69382059D01*
X116018830Y-69448776D01*
X116017665Y-69450402D01*
X116015675Y-69450206D01*
X116014840Y-69448580D01*
X116014840Y-69392221D01*
X116014850Y-69392025D01*
X116020833Y-69331281D01*
X116020909Y-69330896D01*
X116036838Y-69278384D01*
X116036988Y-69278022D01*
X116062851Y-69229637D01*
X116063069Y-69229311D01*
X116097878Y-69186895D01*
X116098155Y-69186618D01*
X116140571Y-69151809D01*
X116140897Y-69151591D01*
X116189282Y-69125728D01*
X116189644Y-69125578D01*
X116242156Y-69109649D01*
X116242541Y-69109573D01*
X116303285Y-69103590D01*
X116303481Y-69103580D01*
X116359840Y-69103580D01*
X116361572Y-69104580D01*
G37*
G36*
X73181572Y-69104580D02*
G01*
X73181572Y-69106580D01*
X73180036Y-69107570D01*
X73113319Y-69114141D01*
X73049349Y-69133546D01*
X72990395Y-69165057D01*
X72938723Y-69207463D01*
X72896317Y-69259135D01*
X72864806Y-69318089D01*
X72845401Y-69382059D01*
X72838830Y-69448776D01*
X72837665Y-69450402D01*
X72835675Y-69450206D01*
X72834840Y-69448580D01*
X72834840Y-69392221D01*
X72834850Y-69392025D01*
X72840833Y-69331281D01*
X72840909Y-69330896D01*
X72856838Y-69278384D01*
X72856988Y-69278022D01*
X72882851Y-69229637D01*
X72883069Y-69229311D01*
X72917878Y-69186895D01*
X72918155Y-69186618D01*
X72960571Y-69151809D01*
X72960897Y-69151591D01*
X73009282Y-69125728D01*
X73009644Y-69125578D01*
X73062156Y-69109649D01*
X73062541Y-69109573D01*
X73123285Y-69103590D01*
X73123481Y-69103580D01*
X73179840Y-69103580D01*
X73181572Y-69104580D01*
G37*
G36*
X75721572Y-69104580D02*
G01*
X75721572Y-69106580D01*
X75720036Y-69107570D01*
X75653319Y-69114141D01*
X75589349Y-69133546D01*
X75530395Y-69165057D01*
X75478723Y-69207463D01*
X75436317Y-69259135D01*
X75404806Y-69318089D01*
X75385401Y-69382059D01*
X75378830Y-69448776D01*
X75377665Y-69450402D01*
X75375675Y-69450206D01*
X75374840Y-69448580D01*
X75374840Y-69392221D01*
X75374850Y-69392025D01*
X75380833Y-69331281D01*
X75380909Y-69330896D01*
X75396838Y-69278384D01*
X75396988Y-69278022D01*
X75422851Y-69229637D01*
X75423069Y-69229311D01*
X75457878Y-69186895D01*
X75458155Y-69186618D01*
X75500571Y-69151809D01*
X75500897Y-69151591D01*
X75549282Y-69125728D01*
X75549644Y-69125578D01*
X75602156Y-69109649D01*
X75602541Y-69109573D01*
X75663285Y-69103590D01*
X75663481Y-69103580D01*
X75719840Y-69103580D01*
X75721572Y-69104580D01*
G37*
G36*
X78261572Y-69104580D02*
G01*
X78261572Y-69106580D01*
X78260036Y-69107570D01*
X78193319Y-69114141D01*
X78129349Y-69133546D01*
X78070395Y-69165057D01*
X78018723Y-69207463D01*
X77976317Y-69259135D01*
X77944806Y-69318089D01*
X77925401Y-69382059D01*
X77918830Y-69448776D01*
X77917665Y-69450402D01*
X77915675Y-69450206D01*
X77914840Y-69448580D01*
X77914840Y-69392221D01*
X77914850Y-69392025D01*
X77920833Y-69331281D01*
X77920909Y-69330896D01*
X77936838Y-69278384D01*
X77936988Y-69278022D01*
X77962851Y-69229637D01*
X77963069Y-69229311D01*
X77997878Y-69186895D01*
X77998155Y-69186618D01*
X78040571Y-69151809D01*
X78040897Y-69151591D01*
X78089282Y-69125728D01*
X78089644Y-69125578D01*
X78142156Y-69109649D01*
X78142541Y-69109573D01*
X78203285Y-69103590D01*
X78203481Y-69103580D01*
X78259840Y-69103580D01*
X78261572Y-69104580D01*
G37*
G36*
X80801572Y-69104580D02*
G01*
X80801572Y-69106580D01*
X80800036Y-69107570D01*
X80733319Y-69114141D01*
X80669349Y-69133546D01*
X80610395Y-69165057D01*
X80558723Y-69207463D01*
X80516317Y-69259135D01*
X80484806Y-69318089D01*
X80465401Y-69382059D01*
X80458830Y-69448776D01*
X80457665Y-69450402D01*
X80455675Y-69450206D01*
X80454840Y-69448580D01*
X80454840Y-69392221D01*
X80454850Y-69392025D01*
X80460833Y-69331281D01*
X80460909Y-69330896D01*
X80476838Y-69278384D01*
X80476988Y-69278022D01*
X80502851Y-69229637D01*
X80503069Y-69229311D01*
X80537878Y-69186895D01*
X80538155Y-69186618D01*
X80580571Y-69151809D01*
X80580897Y-69151591D01*
X80629282Y-69125728D01*
X80629644Y-69125578D01*
X80682156Y-69109649D01*
X80682541Y-69109573D01*
X80743285Y-69103590D01*
X80743481Y-69103580D01*
X80799840Y-69103580D01*
X80801572Y-69104580D01*
G37*
G36*
X83341572Y-69104580D02*
G01*
X83341572Y-69106580D01*
X83340036Y-69107570D01*
X83273319Y-69114141D01*
X83209349Y-69133546D01*
X83150395Y-69165057D01*
X83098723Y-69207463D01*
X83056317Y-69259135D01*
X83024806Y-69318089D01*
X83005401Y-69382059D01*
X82998830Y-69448776D01*
X82997665Y-69450402D01*
X82995675Y-69450206D01*
X82994840Y-69448580D01*
X82994840Y-69392221D01*
X82994850Y-69392025D01*
X83000833Y-69331281D01*
X83000909Y-69330896D01*
X83016838Y-69278384D01*
X83016988Y-69278022D01*
X83042851Y-69229637D01*
X83043069Y-69229311D01*
X83077878Y-69186895D01*
X83078155Y-69186618D01*
X83120571Y-69151809D01*
X83120897Y-69151591D01*
X83169282Y-69125728D01*
X83169644Y-69125578D01*
X83222156Y-69109649D01*
X83222541Y-69109573D01*
X83283285Y-69103590D01*
X83283481Y-69103580D01*
X83339840Y-69103580D01*
X83341572Y-69104580D01*
G37*
G36*
X85881572Y-69104580D02*
G01*
X85881572Y-69106580D01*
X85880036Y-69107570D01*
X85813319Y-69114141D01*
X85749349Y-69133546D01*
X85690395Y-69165057D01*
X85638723Y-69207463D01*
X85596317Y-69259135D01*
X85564806Y-69318089D01*
X85545401Y-69382059D01*
X85538830Y-69448776D01*
X85537665Y-69450402D01*
X85535675Y-69450206D01*
X85534840Y-69448580D01*
X85534840Y-69392221D01*
X85534850Y-69392025D01*
X85540833Y-69331281D01*
X85540909Y-69330896D01*
X85556838Y-69278384D01*
X85556988Y-69278022D01*
X85582851Y-69229637D01*
X85583069Y-69229311D01*
X85617878Y-69186895D01*
X85618155Y-69186618D01*
X85660571Y-69151809D01*
X85660897Y-69151591D01*
X85709282Y-69125728D01*
X85709644Y-69125578D01*
X85762156Y-69109649D01*
X85762541Y-69109573D01*
X85823285Y-69103590D01*
X85823481Y-69103580D01*
X85879840Y-69103580D01*
X85881572Y-69104580D01*
G37*
G36*
X88421572Y-69104580D02*
G01*
X88421572Y-69106580D01*
X88420036Y-69107570D01*
X88353319Y-69114141D01*
X88289349Y-69133546D01*
X88230395Y-69165057D01*
X88178723Y-69207463D01*
X88136317Y-69259135D01*
X88104806Y-69318089D01*
X88085401Y-69382059D01*
X88078830Y-69448776D01*
X88077665Y-69450402D01*
X88075675Y-69450206D01*
X88074840Y-69448580D01*
X88074840Y-69392221D01*
X88074850Y-69392025D01*
X88080833Y-69331281D01*
X88080909Y-69330896D01*
X88096838Y-69278384D01*
X88096988Y-69278022D01*
X88122851Y-69229637D01*
X88123069Y-69229311D01*
X88157878Y-69186895D01*
X88158155Y-69186618D01*
X88200571Y-69151809D01*
X88200897Y-69151591D01*
X88249282Y-69125728D01*
X88249644Y-69125578D01*
X88302156Y-69109649D01*
X88302541Y-69109573D01*
X88363285Y-69103590D01*
X88363481Y-69103580D01*
X88419840Y-69103580D01*
X88421572Y-69104580D01*
G37*
G36*
X113821572Y-69104580D02*
G01*
X113821572Y-69106580D01*
X113820036Y-69107570D01*
X113753319Y-69114141D01*
X113689349Y-69133546D01*
X113630395Y-69165057D01*
X113578723Y-69207463D01*
X113536317Y-69259135D01*
X113504806Y-69318089D01*
X113485401Y-69382059D01*
X113478830Y-69448776D01*
X113477665Y-69450402D01*
X113475675Y-69450206D01*
X113474840Y-69448580D01*
X113474840Y-69392221D01*
X113474850Y-69392025D01*
X113480833Y-69331281D01*
X113480909Y-69330896D01*
X113496838Y-69278384D01*
X113496988Y-69278022D01*
X113522851Y-69229637D01*
X113523069Y-69229311D01*
X113557878Y-69186895D01*
X113558155Y-69186618D01*
X113600571Y-69151809D01*
X113600897Y-69151591D01*
X113649282Y-69125728D01*
X113649644Y-69125578D01*
X113702156Y-69109649D01*
X113702541Y-69109573D01*
X113763285Y-69103590D01*
X113763481Y-69103580D01*
X113819840Y-69103580D01*
X113821572Y-69104580D01*
G37*
G36*
X90961572Y-69104580D02*
G01*
X90961572Y-69106580D01*
X90960036Y-69107570D01*
X90893319Y-69114141D01*
X90829349Y-69133546D01*
X90770395Y-69165057D01*
X90718723Y-69207463D01*
X90676317Y-69259135D01*
X90644806Y-69318089D01*
X90625401Y-69382059D01*
X90618830Y-69448776D01*
X90617665Y-69450402D01*
X90615675Y-69450206D01*
X90614840Y-69448580D01*
X90614840Y-69392221D01*
X90614850Y-69392025D01*
X90620833Y-69331281D01*
X90620909Y-69330896D01*
X90636838Y-69278384D01*
X90636988Y-69278022D01*
X90662851Y-69229637D01*
X90663069Y-69229311D01*
X90697878Y-69186895D01*
X90698155Y-69186618D01*
X90740571Y-69151809D01*
X90740897Y-69151591D01*
X90789282Y-69125728D01*
X90789644Y-69125578D01*
X90842156Y-69109649D01*
X90842541Y-69109573D01*
X90903285Y-69103590D01*
X90903481Y-69103580D01*
X90959840Y-69103580D01*
X90961572Y-69104580D01*
G37*
G36*
X93501572Y-69104580D02*
G01*
X93501572Y-69106580D01*
X93500036Y-69107570D01*
X93433319Y-69114141D01*
X93369349Y-69133546D01*
X93310395Y-69165057D01*
X93258723Y-69207463D01*
X93216317Y-69259135D01*
X93184806Y-69318089D01*
X93165401Y-69382059D01*
X93158830Y-69448776D01*
X93157665Y-69450402D01*
X93155675Y-69450206D01*
X93154840Y-69448580D01*
X93154840Y-69392221D01*
X93154850Y-69392025D01*
X93160833Y-69331281D01*
X93160909Y-69330896D01*
X93176838Y-69278384D01*
X93176988Y-69278022D01*
X93202851Y-69229637D01*
X93203069Y-69229311D01*
X93237878Y-69186895D01*
X93238155Y-69186618D01*
X93280571Y-69151809D01*
X93280897Y-69151591D01*
X93329282Y-69125728D01*
X93329644Y-69125578D01*
X93382156Y-69109649D01*
X93382541Y-69109573D01*
X93443285Y-69103590D01*
X93443481Y-69103580D01*
X93499840Y-69103580D01*
X93501572Y-69104580D01*
G37*
G36*
X96041572Y-69104580D02*
G01*
X96041572Y-69106580D01*
X96040036Y-69107570D01*
X95973319Y-69114141D01*
X95909349Y-69133546D01*
X95850395Y-69165057D01*
X95798723Y-69207463D01*
X95756317Y-69259135D01*
X95724806Y-69318089D01*
X95705401Y-69382059D01*
X95698830Y-69448776D01*
X95697665Y-69450402D01*
X95695675Y-69450206D01*
X95694840Y-69448580D01*
X95694840Y-69392221D01*
X95694850Y-69392025D01*
X95700833Y-69331281D01*
X95700909Y-69330896D01*
X95716838Y-69278384D01*
X95716988Y-69278022D01*
X95742851Y-69229637D01*
X95743069Y-69229311D01*
X95777878Y-69186895D01*
X95778155Y-69186618D01*
X95820571Y-69151809D01*
X95820897Y-69151591D01*
X95869282Y-69125728D01*
X95869644Y-69125578D01*
X95922156Y-69109649D01*
X95922541Y-69109573D01*
X95983285Y-69103590D01*
X95983481Y-69103580D01*
X96039840Y-69103580D01*
X96041572Y-69104580D01*
G37*
G36*
X98581572Y-69104580D02*
G01*
X98581572Y-69106580D01*
X98580036Y-69107570D01*
X98513319Y-69114141D01*
X98449349Y-69133546D01*
X98390395Y-69165057D01*
X98338723Y-69207463D01*
X98296317Y-69259135D01*
X98264806Y-69318089D01*
X98245401Y-69382059D01*
X98238830Y-69448776D01*
X98237665Y-69450402D01*
X98235675Y-69450206D01*
X98234840Y-69448580D01*
X98234840Y-69392221D01*
X98234850Y-69392025D01*
X98240833Y-69331281D01*
X98240909Y-69330896D01*
X98256838Y-69278384D01*
X98256988Y-69278022D01*
X98282851Y-69229637D01*
X98283069Y-69229311D01*
X98317878Y-69186895D01*
X98318155Y-69186618D01*
X98360571Y-69151809D01*
X98360897Y-69151591D01*
X98409282Y-69125728D01*
X98409644Y-69125578D01*
X98462156Y-69109649D01*
X98462541Y-69109573D01*
X98523285Y-69103590D01*
X98523481Y-69103580D01*
X98579840Y-69103580D01*
X98581572Y-69104580D01*
G37*
G36*
X101121572Y-69104580D02*
G01*
X101121572Y-69106580D01*
X101120036Y-69107570D01*
X101053319Y-69114141D01*
X100989349Y-69133546D01*
X100930395Y-69165057D01*
X100878723Y-69207463D01*
X100836317Y-69259135D01*
X100804806Y-69318089D01*
X100785401Y-69382059D01*
X100778830Y-69448776D01*
X100777665Y-69450402D01*
X100775675Y-69450206D01*
X100774840Y-69448580D01*
X100774840Y-69392221D01*
X100774850Y-69392025D01*
X100780833Y-69331281D01*
X100780909Y-69330896D01*
X100796838Y-69278384D01*
X100796988Y-69278022D01*
X100822851Y-69229637D01*
X100823069Y-69229311D01*
X100857878Y-69186895D01*
X100858155Y-69186618D01*
X100900571Y-69151809D01*
X100900897Y-69151591D01*
X100949282Y-69125728D01*
X100949644Y-69125578D01*
X101002156Y-69109649D01*
X101002541Y-69109573D01*
X101063285Y-69103590D01*
X101063481Y-69103580D01*
X101119840Y-69103580D01*
X101121572Y-69104580D01*
G37*
G36*
X103661572Y-69104580D02*
G01*
X103661572Y-69106580D01*
X103660036Y-69107570D01*
X103593319Y-69114141D01*
X103529349Y-69133546D01*
X103470395Y-69165057D01*
X103418723Y-69207463D01*
X103376317Y-69259135D01*
X103344806Y-69318089D01*
X103325401Y-69382059D01*
X103318830Y-69448776D01*
X103317665Y-69450402D01*
X103315675Y-69450206D01*
X103314840Y-69448580D01*
X103314840Y-69392221D01*
X103314850Y-69392025D01*
X103320833Y-69331281D01*
X103320909Y-69330896D01*
X103336838Y-69278384D01*
X103336988Y-69278022D01*
X103362851Y-69229637D01*
X103363069Y-69229311D01*
X103397878Y-69186895D01*
X103398155Y-69186618D01*
X103440571Y-69151809D01*
X103440897Y-69151591D01*
X103489282Y-69125728D01*
X103489644Y-69125578D01*
X103542156Y-69109649D01*
X103542541Y-69109573D01*
X103603285Y-69103590D01*
X103603481Y-69103580D01*
X103659840Y-69103580D01*
X103661572Y-69104580D01*
G37*
G36*
X106201572Y-69104580D02*
G01*
X106201572Y-69106580D01*
X106200036Y-69107570D01*
X106133319Y-69114141D01*
X106069349Y-69133546D01*
X106010395Y-69165057D01*
X105958723Y-69207463D01*
X105916317Y-69259135D01*
X105884806Y-69318089D01*
X105865401Y-69382059D01*
X105858830Y-69448776D01*
X105857665Y-69450402D01*
X105855675Y-69450206D01*
X105854840Y-69448580D01*
X105854840Y-69392221D01*
X105854850Y-69392025D01*
X105860833Y-69331281D01*
X105860909Y-69330896D01*
X105876838Y-69278384D01*
X105876988Y-69278022D01*
X105902851Y-69229637D01*
X105903069Y-69229311D01*
X105937878Y-69186895D01*
X105938155Y-69186618D01*
X105980571Y-69151809D01*
X105980897Y-69151591D01*
X106029282Y-69125728D01*
X106029644Y-69125578D01*
X106082156Y-69109649D01*
X106082541Y-69109573D01*
X106143285Y-69103590D01*
X106143481Y-69103580D01*
X106199840Y-69103580D01*
X106201572Y-69104580D01*
G37*
G36*
X111281572Y-69104580D02*
G01*
X111281572Y-69106580D01*
X111280036Y-69107570D01*
X111213319Y-69114141D01*
X111149349Y-69133546D01*
X111090395Y-69165057D01*
X111038723Y-69207463D01*
X110996317Y-69259135D01*
X110964806Y-69318089D01*
X110945401Y-69382059D01*
X110938830Y-69448776D01*
X110937665Y-69450402D01*
X110935675Y-69450206D01*
X110934840Y-69448580D01*
X110934840Y-69392221D01*
X110934850Y-69392025D01*
X110940833Y-69331281D01*
X110940909Y-69330896D01*
X110956838Y-69278384D01*
X110956988Y-69278022D01*
X110982851Y-69229637D01*
X110983069Y-69229311D01*
X111017878Y-69186895D01*
X111018155Y-69186618D01*
X111060571Y-69151809D01*
X111060897Y-69151591D01*
X111109282Y-69125728D01*
X111109644Y-69125578D01*
X111162156Y-69109649D01*
X111162541Y-69109573D01*
X111223285Y-69103590D01*
X111223481Y-69103580D01*
X111279840Y-69103580D01*
X111281572Y-69104580D01*
G37*
G36*
X86622395Y-69103590D02*
G01*
X86683139Y-69109573D01*
X86683524Y-69109649D01*
X86736036Y-69125578D01*
X86736398Y-69125728D01*
X86784783Y-69151591D01*
X86785109Y-69151809D01*
X86827525Y-69186618D01*
X86827802Y-69186895D01*
X86862611Y-69229311D01*
X86862829Y-69229637D01*
X86888692Y-69278022D01*
X86888842Y-69278384D01*
X86904771Y-69330896D01*
X86904847Y-69331281D01*
X86910830Y-69392025D01*
X86910840Y-69392221D01*
X86910840Y-69448580D01*
X86909840Y-69450312D01*
X86907840Y-69450312D01*
X86906850Y-69448776D01*
X86900279Y-69382059D01*
X86880874Y-69318089D01*
X86849363Y-69259135D01*
X86806957Y-69207463D01*
X86755285Y-69165057D01*
X86696331Y-69133546D01*
X86632361Y-69114141D01*
X86565644Y-69107570D01*
X86564018Y-69106405D01*
X86564214Y-69104415D01*
X86565840Y-69103580D01*
X86622199Y-69103580D01*
X86622395Y-69103590D01*
G37*
G36*
X81542395Y-69103590D02*
G01*
X81603139Y-69109573D01*
X81603524Y-69109649D01*
X81656036Y-69125578D01*
X81656398Y-69125728D01*
X81704783Y-69151591D01*
X81705109Y-69151809D01*
X81747525Y-69186618D01*
X81747802Y-69186895D01*
X81782611Y-69229311D01*
X81782829Y-69229637D01*
X81808692Y-69278022D01*
X81808842Y-69278384D01*
X81824771Y-69330896D01*
X81824847Y-69331281D01*
X81830830Y-69392025D01*
X81830840Y-69392221D01*
X81830840Y-69448580D01*
X81829840Y-69450312D01*
X81827840Y-69450312D01*
X81826850Y-69448776D01*
X81820279Y-69382059D01*
X81800874Y-69318089D01*
X81769363Y-69259135D01*
X81726957Y-69207463D01*
X81675285Y-69165057D01*
X81616331Y-69133546D01*
X81552361Y-69114141D01*
X81485644Y-69107570D01*
X81484018Y-69106405D01*
X81484214Y-69104415D01*
X81485840Y-69103580D01*
X81542199Y-69103580D01*
X81542395Y-69103590D01*
G37*
G36*
X89162395Y-69103590D02*
G01*
X89223139Y-69109573D01*
X89223524Y-69109649D01*
X89276036Y-69125578D01*
X89276398Y-69125728D01*
X89324783Y-69151591D01*
X89325109Y-69151809D01*
X89367525Y-69186618D01*
X89367802Y-69186895D01*
X89402611Y-69229311D01*
X89402829Y-69229637D01*
X89428692Y-69278022D01*
X89428842Y-69278384D01*
X89444771Y-69330896D01*
X89444847Y-69331281D01*
X89450830Y-69392025D01*
X89450840Y-69392221D01*
X89450840Y-69448580D01*
X89449840Y-69450312D01*
X89447840Y-69450312D01*
X89446850Y-69448776D01*
X89440279Y-69382059D01*
X89420874Y-69318089D01*
X89389363Y-69259135D01*
X89346957Y-69207463D01*
X89295285Y-69165057D01*
X89236331Y-69133546D01*
X89172361Y-69114141D01*
X89105644Y-69107570D01*
X89104018Y-69106405D01*
X89104214Y-69104415D01*
X89105840Y-69103580D01*
X89162199Y-69103580D01*
X89162395Y-69103590D01*
G37*
G36*
X84082395Y-69103590D02*
G01*
X84143139Y-69109573D01*
X84143524Y-69109649D01*
X84196036Y-69125578D01*
X84196398Y-69125728D01*
X84244783Y-69151591D01*
X84245109Y-69151809D01*
X84287525Y-69186618D01*
X84287802Y-69186895D01*
X84322611Y-69229311D01*
X84322829Y-69229637D01*
X84348692Y-69278022D01*
X84348842Y-69278384D01*
X84364771Y-69330896D01*
X84364847Y-69331281D01*
X84370830Y-69392025D01*
X84370840Y-69392221D01*
X84370840Y-69448580D01*
X84369840Y-69450312D01*
X84367840Y-69450312D01*
X84366850Y-69448776D01*
X84360279Y-69382059D01*
X84340874Y-69318089D01*
X84309363Y-69259135D01*
X84266957Y-69207463D01*
X84215285Y-69165057D01*
X84156331Y-69133546D01*
X84092361Y-69114141D01*
X84025644Y-69107570D01*
X84024018Y-69106405D01*
X84024214Y-69104415D01*
X84025840Y-69103580D01*
X84082199Y-69103580D01*
X84082395Y-69103590D01*
G37*
G36*
X117102395Y-69103590D02*
G01*
X117163139Y-69109573D01*
X117163524Y-69109649D01*
X117216036Y-69125578D01*
X117216398Y-69125728D01*
X117264783Y-69151591D01*
X117265109Y-69151809D01*
X117307525Y-69186618D01*
X117307802Y-69186895D01*
X117342611Y-69229311D01*
X117342829Y-69229637D01*
X117368692Y-69278022D01*
X117368842Y-69278384D01*
X117384771Y-69330896D01*
X117384847Y-69331281D01*
X117390830Y-69392025D01*
X117390840Y-69392221D01*
X117390840Y-69448580D01*
X117389840Y-69450312D01*
X117387840Y-69450312D01*
X117386850Y-69448776D01*
X117380279Y-69382059D01*
X117360874Y-69318089D01*
X117329363Y-69259135D01*
X117286957Y-69207463D01*
X117235285Y-69165057D01*
X117176331Y-69133546D01*
X117112361Y-69114141D01*
X117045644Y-69107570D01*
X117044018Y-69106405D01*
X117044214Y-69104415D01*
X117045840Y-69103580D01*
X117102199Y-69103580D01*
X117102395Y-69103590D01*
G37*
G36*
X56142395Y-69103590D02*
G01*
X56203139Y-69109573D01*
X56203524Y-69109649D01*
X56256036Y-69125578D01*
X56256398Y-69125728D01*
X56304783Y-69151591D01*
X56305109Y-69151809D01*
X56347525Y-69186618D01*
X56347802Y-69186895D01*
X56382611Y-69229311D01*
X56382829Y-69229637D01*
X56408692Y-69278022D01*
X56408842Y-69278384D01*
X56424771Y-69330896D01*
X56424847Y-69331281D01*
X56430830Y-69392025D01*
X56430840Y-69392221D01*
X56430840Y-69448580D01*
X56429840Y-69450312D01*
X56427840Y-69450312D01*
X56426850Y-69448776D01*
X56420279Y-69382059D01*
X56400874Y-69318089D01*
X56369363Y-69259135D01*
X56326957Y-69207463D01*
X56275285Y-69165057D01*
X56216331Y-69133546D01*
X56152361Y-69114141D01*
X56085644Y-69107570D01*
X56084018Y-69106405D01*
X56084214Y-69104415D01*
X56085840Y-69103580D01*
X56142199Y-69103580D01*
X56142395Y-69103590D01*
G37*
G36*
X114562395Y-69103590D02*
G01*
X114623139Y-69109573D01*
X114623524Y-69109649D01*
X114676036Y-69125578D01*
X114676398Y-69125728D01*
X114724783Y-69151591D01*
X114725109Y-69151809D01*
X114767525Y-69186618D01*
X114767802Y-69186895D01*
X114802611Y-69229311D01*
X114802829Y-69229637D01*
X114828692Y-69278022D01*
X114828842Y-69278384D01*
X114844771Y-69330896D01*
X114844847Y-69331281D01*
X114850830Y-69392025D01*
X114850840Y-69392221D01*
X114850840Y-69448580D01*
X114849840Y-69450312D01*
X114847840Y-69450312D01*
X114846850Y-69448776D01*
X114840279Y-69382059D01*
X114820874Y-69318089D01*
X114789363Y-69259135D01*
X114746957Y-69207463D01*
X114695285Y-69165057D01*
X114636331Y-69133546D01*
X114572361Y-69114141D01*
X114505644Y-69107570D01*
X114504018Y-69106405D01*
X114504214Y-69104415D01*
X114505840Y-69103580D01*
X114562199Y-69103580D01*
X114562395Y-69103590D01*
G37*
G36*
X91702395Y-69103590D02*
G01*
X91763139Y-69109573D01*
X91763524Y-69109649D01*
X91816036Y-69125578D01*
X91816398Y-69125728D01*
X91864783Y-69151591D01*
X91865109Y-69151809D01*
X91907525Y-69186618D01*
X91907802Y-69186895D01*
X91942611Y-69229311D01*
X91942829Y-69229637D01*
X91968692Y-69278022D01*
X91968842Y-69278384D01*
X91984771Y-69330896D01*
X91984847Y-69331281D01*
X91990830Y-69392025D01*
X91990840Y-69392221D01*
X91990840Y-69448580D01*
X91989840Y-69450312D01*
X91987840Y-69450312D01*
X91986850Y-69448776D01*
X91980279Y-69382059D01*
X91960874Y-69318089D01*
X91929363Y-69259135D01*
X91886957Y-69207463D01*
X91835285Y-69165057D01*
X91776331Y-69133546D01*
X91712361Y-69114141D01*
X91645644Y-69107570D01*
X91644018Y-69106405D01*
X91644214Y-69104415D01*
X91645840Y-69103580D01*
X91702199Y-69103580D01*
X91702395Y-69103590D01*
G37*
G36*
X58682395Y-69103590D02*
G01*
X58743139Y-69109573D01*
X58743524Y-69109649D01*
X58796036Y-69125578D01*
X58796398Y-69125728D01*
X58844783Y-69151591D01*
X58845109Y-69151809D01*
X58887525Y-69186618D01*
X58887802Y-69186895D01*
X58922611Y-69229311D01*
X58922829Y-69229637D01*
X58948692Y-69278022D01*
X58948842Y-69278384D01*
X58964771Y-69330896D01*
X58964847Y-69331281D01*
X58970830Y-69392025D01*
X58970840Y-69392221D01*
X58970840Y-69448580D01*
X58969840Y-69450312D01*
X58967840Y-69450312D01*
X58966850Y-69448776D01*
X58960279Y-69382059D01*
X58940874Y-69318089D01*
X58909363Y-69259135D01*
X58866957Y-69207463D01*
X58815285Y-69165057D01*
X58756331Y-69133546D01*
X58692361Y-69114141D01*
X58625644Y-69107570D01*
X58624018Y-69106405D01*
X58624214Y-69104415D01*
X58625840Y-69103580D01*
X58682199Y-69103580D01*
X58682395Y-69103590D01*
G37*
G36*
X112022395Y-69103590D02*
G01*
X112083139Y-69109573D01*
X112083524Y-69109649D01*
X112136036Y-69125578D01*
X112136398Y-69125728D01*
X112184783Y-69151591D01*
X112185109Y-69151809D01*
X112227525Y-69186618D01*
X112227802Y-69186895D01*
X112262611Y-69229311D01*
X112262829Y-69229637D01*
X112288692Y-69278022D01*
X112288842Y-69278384D01*
X112304771Y-69330896D01*
X112304847Y-69331281D01*
X112310830Y-69392025D01*
X112310840Y-69392221D01*
X112310840Y-69448580D01*
X112309840Y-69450312D01*
X112307840Y-69450312D01*
X112306850Y-69448776D01*
X112300279Y-69382059D01*
X112280874Y-69318089D01*
X112249363Y-69259135D01*
X112206957Y-69207463D01*
X112155285Y-69165057D01*
X112096331Y-69133546D01*
X112032361Y-69114141D01*
X111965644Y-69107570D01*
X111964018Y-69106405D01*
X111964214Y-69104415D01*
X111965840Y-69103580D01*
X112022199Y-69103580D01*
X112022395Y-69103590D01*
G37*
G36*
X61222395Y-69103590D02*
G01*
X61283139Y-69109573D01*
X61283524Y-69109649D01*
X61336036Y-69125578D01*
X61336398Y-69125728D01*
X61384783Y-69151591D01*
X61385109Y-69151809D01*
X61427525Y-69186618D01*
X61427802Y-69186895D01*
X61462611Y-69229311D01*
X61462829Y-69229637D01*
X61488692Y-69278022D01*
X61488842Y-69278384D01*
X61504771Y-69330896D01*
X61504847Y-69331281D01*
X61510830Y-69392025D01*
X61510840Y-69392221D01*
X61510840Y-69448580D01*
X61509840Y-69450312D01*
X61507840Y-69450312D01*
X61506850Y-69448776D01*
X61500279Y-69382059D01*
X61480874Y-69318089D01*
X61449363Y-69259135D01*
X61406957Y-69207463D01*
X61355285Y-69165057D01*
X61296331Y-69133546D01*
X61232361Y-69114141D01*
X61165644Y-69107570D01*
X61164018Y-69106405D01*
X61164214Y-69104415D01*
X61165840Y-69103580D01*
X61222199Y-69103580D01*
X61222395Y-69103590D01*
G37*
G36*
X109482395Y-69103590D02*
G01*
X109543139Y-69109573D01*
X109543524Y-69109649D01*
X109596036Y-69125578D01*
X109596398Y-69125728D01*
X109644783Y-69151591D01*
X109645109Y-69151809D01*
X109687525Y-69186618D01*
X109687802Y-69186895D01*
X109722611Y-69229311D01*
X109722829Y-69229637D01*
X109748692Y-69278022D01*
X109748842Y-69278384D01*
X109764771Y-69330896D01*
X109764847Y-69331281D01*
X109770830Y-69392025D01*
X109770840Y-69392221D01*
X109770840Y-69448580D01*
X109769840Y-69450312D01*
X109767840Y-69450312D01*
X109766850Y-69448776D01*
X109760279Y-69382059D01*
X109740874Y-69318089D01*
X109709363Y-69259135D01*
X109666957Y-69207463D01*
X109615285Y-69165057D01*
X109556331Y-69133546D01*
X109492361Y-69114141D01*
X109425644Y-69107570D01*
X109424018Y-69106405D01*
X109424214Y-69104415D01*
X109425840Y-69103580D01*
X109482199Y-69103580D01*
X109482395Y-69103590D01*
G37*
G36*
X63762395Y-69103590D02*
G01*
X63823139Y-69109573D01*
X63823524Y-69109649D01*
X63876036Y-69125578D01*
X63876398Y-69125728D01*
X63924783Y-69151591D01*
X63925109Y-69151809D01*
X63967525Y-69186618D01*
X63967802Y-69186895D01*
X64002611Y-69229311D01*
X64002829Y-69229637D01*
X64028692Y-69278022D01*
X64028842Y-69278384D01*
X64044771Y-69330896D01*
X64044847Y-69331281D01*
X64050830Y-69392025D01*
X64050840Y-69392221D01*
X64050840Y-69448580D01*
X64049840Y-69450312D01*
X64047840Y-69450312D01*
X64046850Y-69448776D01*
X64040279Y-69382059D01*
X64020874Y-69318089D01*
X63989363Y-69259135D01*
X63946957Y-69207463D01*
X63895285Y-69165057D01*
X63836331Y-69133546D01*
X63772361Y-69114141D01*
X63705644Y-69107570D01*
X63704018Y-69106405D01*
X63704214Y-69104415D01*
X63705840Y-69103580D01*
X63762199Y-69103580D01*
X63762395Y-69103590D01*
G37*
G36*
X106942395Y-69103590D02*
G01*
X107003139Y-69109573D01*
X107003524Y-69109649D01*
X107056036Y-69125578D01*
X107056398Y-69125728D01*
X107104783Y-69151591D01*
X107105109Y-69151809D01*
X107147525Y-69186618D01*
X107147802Y-69186895D01*
X107182611Y-69229311D01*
X107182829Y-69229637D01*
X107208692Y-69278022D01*
X107208842Y-69278384D01*
X107224771Y-69330896D01*
X107224847Y-69331281D01*
X107230830Y-69392025D01*
X107230840Y-69392221D01*
X107230840Y-69448580D01*
X107229840Y-69450312D01*
X107227840Y-69450312D01*
X107226850Y-69448776D01*
X107220279Y-69382059D01*
X107200874Y-69318089D01*
X107169363Y-69259135D01*
X107126957Y-69207463D01*
X107075285Y-69165057D01*
X107016331Y-69133546D01*
X106952361Y-69114141D01*
X106885644Y-69107570D01*
X106884018Y-69106405D01*
X106884214Y-69104415D01*
X106885840Y-69103580D01*
X106942199Y-69103580D01*
X106942395Y-69103590D01*
G37*
G36*
X66302395Y-69103590D02*
G01*
X66363139Y-69109573D01*
X66363524Y-69109649D01*
X66416036Y-69125578D01*
X66416398Y-69125728D01*
X66464783Y-69151591D01*
X66465109Y-69151809D01*
X66507525Y-69186618D01*
X66507802Y-69186895D01*
X66542611Y-69229311D01*
X66542829Y-69229637D01*
X66568692Y-69278022D01*
X66568842Y-69278384D01*
X66584771Y-69330896D01*
X66584847Y-69331281D01*
X66590830Y-69392025D01*
X66590840Y-69392221D01*
X66590840Y-69448580D01*
X66589840Y-69450312D01*
X66587840Y-69450312D01*
X66586850Y-69448776D01*
X66580279Y-69382059D01*
X66560874Y-69318089D01*
X66529363Y-69259135D01*
X66486957Y-69207463D01*
X66435285Y-69165057D01*
X66376331Y-69133546D01*
X66312361Y-69114141D01*
X66245644Y-69107570D01*
X66244018Y-69106405D01*
X66244214Y-69104415D01*
X66245840Y-69103580D01*
X66302199Y-69103580D01*
X66302395Y-69103590D01*
G37*
G36*
X79002395Y-69103590D02*
G01*
X79063139Y-69109573D01*
X79063524Y-69109649D01*
X79116036Y-69125578D01*
X79116398Y-69125728D01*
X79164783Y-69151591D01*
X79165109Y-69151809D01*
X79207525Y-69186618D01*
X79207802Y-69186895D01*
X79242611Y-69229311D01*
X79242829Y-69229637D01*
X79268692Y-69278022D01*
X79268842Y-69278384D01*
X79284771Y-69330896D01*
X79284847Y-69331281D01*
X79290830Y-69392025D01*
X79290840Y-69392221D01*
X79290840Y-69448580D01*
X79289840Y-69450312D01*
X79287840Y-69450312D01*
X79286850Y-69448776D01*
X79280279Y-69382059D01*
X79260874Y-69318089D01*
X79229363Y-69259135D01*
X79186957Y-69207463D01*
X79135285Y-69165057D01*
X79076331Y-69133546D01*
X79012361Y-69114141D01*
X78945644Y-69107570D01*
X78944018Y-69106405D01*
X78944214Y-69104415D01*
X78945840Y-69103580D01*
X79002199Y-69103580D01*
X79002395Y-69103590D01*
G37*
G36*
X104402395Y-69103590D02*
G01*
X104463139Y-69109573D01*
X104463524Y-69109649D01*
X104516036Y-69125578D01*
X104516398Y-69125728D01*
X104564783Y-69151591D01*
X104565109Y-69151809D01*
X104607525Y-69186618D01*
X104607802Y-69186895D01*
X104642611Y-69229311D01*
X104642829Y-69229637D01*
X104668692Y-69278022D01*
X104668842Y-69278384D01*
X104684771Y-69330896D01*
X104684847Y-69331281D01*
X104690830Y-69392025D01*
X104690840Y-69392221D01*
X104690840Y-69448580D01*
X104689840Y-69450312D01*
X104687840Y-69450312D01*
X104686850Y-69448776D01*
X104680279Y-69382059D01*
X104660874Y-69318089D01*
X104629363Y-69259135D01*
X104586957Y-69207463D01*
X104535285Y-69165057D01*
X104476331Y-69133546D01*
X104412361Y-69114141D01*
X104345644Y-69107570D01*
X104344018Y-69106405D01*
X104344214Y-69104415D01*
X104345840Y-69103580D01*
X104402199Y-69103580D01*
X104402395Y-69103590D01*
G37*
G36*
X68842395Y-69103590D02*
G01*
X68903139Y-69109573D01*
X68903524Y-69109649D01*
X68956036Y-69125578D01*
X68956398Y-69125728D01*
X69004783Y-69151591D01*
X69005109Y-69151809D01*
X69047525Y-69186618D01*
X69047802Y-69186895D01*
X69082611Y-69229311D01*
X69082829Y-69229637D01*
X69108692Y-69278022D01*
X69108842Y-69278384D01*
X69124771Y-69330896D01*
X69124847Y-69331281D01*
X69130830Y-69392025D01*
X69130840Y-69392221D01*
X69130840Y-69448580D01*
X69129840Y-69450312D01*
X69127840Y-69450312D01*
X69126850Y-69448776D01*
X69120279Y-69382059D01*
X69100874Y-69318089D01*
X69069363Y-69259135D01*
X69026957Y-69207463D01*
X68975285Y-69165057D01*
X68916331Y-69133546D01*
X68852361Y-69114141D01*
X68785644Y-69107570D01*
X68784018Y-69106405D01*
X68784214Y-69104415D01*
X68785840Y-69103580D01*
X68842199Y-69103580D01*
X68842395Y-69103590D01*
G37*
G36*
X101862395Y-69103590D02*
G01*
X101923139Y-69109573D01*
X101923524Y-69109649D01*
X101976036Y-69125578D01*
X101976398Y-69125728D01*
X102024783Y-69151591D01*
X102025109Y-69151809D01*
X102067525Y-69186618D01*
X102067802Y-69186895D01*
X102102611Y-69229311D01*
X102102829Y-69229637D01*
X102128692Y-69278022D01*
X102128842Y-69278384D01*
X102144771Y-69330896D01*
X102144847Y-69331281D01*
X102150830Y-69392025D01*
X102150840Y-69392221D01*
X102150840Y-69448580D01*
X102149840Y-69450312D01*
X102147840Y-69450312D01*
X102146850Y-69448776D01*
X102140279Y-69382059D01*
X102120874Y-69318089D01*
X102089363Y-69259135D01*
X102046957Y-69207463D01*
X101995285Y-69165057D01*
X101936331Y-69133546D01*
X101872361Y-69114141D01*
X101805644Y-69107570D01*
X101804018Y-69106405D01*
X101804214Y-69104415D01*
X101805840Y-69103580D01*
X101862199Y-69103580D01*
X101862395Y-69103590D01*
G37*
G36*
X71382395Y-69103590D02*
G01*
X71443139Y-69109573D01*
X71443524Y-69109649D01*
X71496036Y-69125578D01*
X71496398Y-69125728D01*
X71544783Y-69151591D01*
X71545109Y-69151809D01*
X71587525Y-69186618D01*
X71587802Y-69186895D01*
X71622611Y-69229311D01*
X71622829Y-69229637D01*
X71648692Y-69278022D01*
X71648842Y-69278384D01*
X71664771Y-69330896D01*
X71664847Y-69331281D01*
X71670830Y-69392025D01*
X71670840Y-69392221D01*
X71670840Y-69448580D01*
X71669840Y-69450312D01*
X71667840Y-69450312D01*
X71666850Y-69448776D01*
X71660279Y-69382059D01*
X71640874Y-69318089D01*
X71609363Y-69259135D01*
X71566957Y-69207463D01*
X71515285Y-69165057D01*
X71456331Y-69133546D01*
X71392361Y-69114141D01*
X71325644Y-69107570D01*
X71324018Y-69106405D01*
X71324214Y-69104415D01*
X71325840Y-69103580D01*
X71382199Y-69103580D01*
X71382395Y-69103590D01*
G37*
G36*
X99322395Y-69103590D02*
G01*
X99383139Y-69109573D01*
X99383524Y-69109649D01*
X99436036Y-69125578D01*
X99436398Y-69125728D01*
X99484783Y-69151591D01*
X99485109Y-69151809D01*
X99527525Y-69186618D01*
X99527802Y-69186895D01*
X99562611Y-69229311D01*
X99562829Y-69229637D01*
X99588692Y-69278022D01*
X99588842Y-69278384D01*
X99604771Y-69330896D01*
X99604847Y-69331281D01*
X99610830Y-69392025D01*
X99610840Y-69392221D01*
X99610840Y-69448580D01*
X99609840Y-69450312D01*
X99607840Y-69450312D01*
X99606850Y-69448776D01*
X99600279Y-69382059D01*
X99580874Y-69318089D01*
X99549363Y-69259135D01*
X99506957Y-69207463D01*
X99455285Y-69165057D01*
X99396331Y-69133546D01*
X99332361Y-69114141D01*
X99265644Y-69107570D01*
X99264018Y-69106405D01*
X99264214Y-69104415D01*
X99265840Y-69103580D01*
X99322199Y-69103580D01*
X99322395Y-69103590D01*
G37*
G36*
X73922395Y-69103590D02*
G01*
X73983139Y-69109573D01*
X73983524Y-69109649D01*
X74036036Y-69125578D01*
X74036398Y-69125728D01*
X74084783Y-69151591D01*
X74085109Y-69151809D01*
X74127525Y-69186618D01*
X74127802Y-69186895D01*
X74162611Y-69229311D01*
X74162829Y-69229637D01*
X74188692Y-69278022D01*
X74188842Y-69278384D01*
X74204771Y-69330896D01*
X74204847Y-69331281D01*
X74210830Y-69392025D01*
X74210840Y-69392221D01*
X74210840Y-69448580D01*
X74209840Y-69450312D01*
X74207840Y-69450312D01*
X74206850Y-69448776D01*
X74200279Y-69382059D01*
X74180874Y-69318089D01*
X74149363Y-69259135D01*
X74106957Y-69207463D01*
X74055285Y-69165057D01*
X73996331Y-69133546D01*
X73932361Y-69114141D01*
X73865644Y-69107570D01*
X73864018Y-69106405D01*
X73864214Y-69104415D01*
X73865840Y-69103580D01*
X73922199Y-69103580D01*
X73922395Y-69103590D01*
G37*
G36*
X96782395Y-69103590D02*
G01*
X96843139Y-69109573D01*
X96843524Y-69109649D01*
X96896036Y-69125578D01*
X96896398Y-69125728D01*
X96944783Y-69151591D01*
X96945109Y-69151809D01*
X96987525Y-69186618D01*
X96987802Y-69186895D01*
X97022611Y-69229311D01*
X97022829Y-69229637D01*
X97048692Y-69278022D01*
X97048842Y-69278384D01*
X97064771Y-69330896D01*
X97064847Y-69331281D01*
X97070830Y-69392025D01*
X97070840Y-69392221D01*
X97070840Y-69448580D01*
X97069840Y-69450312D01*
X97067840Y-69450312D01*
X97066850Y-69448776D01*
X97060279Y-69382059D01*
X97040874Y-69318089D01*
X97009363Y-69259135D01*
X96966957Y-69207463D01*
X96915285Y-69165057D01*
X96856331Y-69133546D01*
X96792361Y-69114141D01*
X96725644Y-69107570D01*
X96724018Y-69106405D01*
X96724214Y-69104415D01*
X96725840Y-69103580D01*
X96782199Y-69103580D01*
X96782395Y-69103590D01*
G37*
G36*
X94242395Y-69103590D02*
G01*
X94303139Y-69109573D01*
X94303524Y-69109649D01*
X94356036Y-69125578D01*
X94356398Y-69125728D01*
X94404783Y-69151591D01*
X94405109Y-69151809D01*
X94447525Y-69186618D01*
X94447802Y-69186895D01*
X94482611Y-69229311D01*
X94482829Y-69229637D01*
X94508692Y-69278022D01*
X94508842Y-69278384D01*
X94524771Y-69330896D01*
X94524847Y-69331281D01*
X94530830Y-69392025D01*
X94530840Y-69392221D01*
X94530840Y-69448580D01*
X94529840Y-69450312D01*
X94527840Y-69450312D01*
X94526850Y-69448776D01*
X94520279Y-69382059D01*
X94500874Y-69318089D01*
X94469363Y-69259135D01*
X94426957Y-69207463D01*
X94375285Y-69165057D01*
X94316331Y-69133546D01*
X94252361Y-69114141D01*
X94185644Y-69107570D01*
X94184018Y-69106405D01*
X94184214Y-69104415D01*
X94185840Y-69103580D01*
X94242199Y-69103580D01*
X94242395Y-69103590D01*
G37*
G36*
X76462395Y-69103590D02*
G01*
X76523139Y-69109573D01*
X76523524Y-69109649D01*
X76576036Y-69125578D01*
X76576398Y-69125728D01*
X76624783Y-69151591D01*
X76625109Y-69151809D01*
X76667525Y-69186618D01*
X76667802Y-69186895D01*
X76702611Y-69229311D01*
X76702829Y-69229637D01*
X76728692Y-69278022D01*
X76728842Y-69278384D01*
X76744771Y-69330896D01*
X76744847Y-69331281D01*
X76750830Y-69392025D01*
X76750840Y-69392221D01*
X76750840Y-69448580D01*
X76749840Y-69450312D01*
X76747840Y-69450312D01*
X76746850Y-69448776D01*
X76740279Y-69382059D01*
X76720874Y-69318089D01*
X76689363Y-69259135D01*
X76646957Y-69207463D01*
X76595285Y-69165057D01*
X76536331Y-69133546D01*
X76472361Y-69114141D01*
X76405644Y-69107570D01*
X76404018Y-69106405D01*
X76404214Y-69104415D01*
X76405840Y-69103580D01*
X76462199Y-69103580D01*
X76462395Y-69103590D01*
G37*
M02*
