G04 #@! TF.GenerationSoftware,KiCad,Pcbnew,(6.0.2-0)*
G04 #@! TF.CreationDate,2022-03-19T10:19:41-04:00*
G04 #@! TF.ProjectId,ProDOS ROM-Drive,50726f44-4f53-4205-924f-4d2d44726976,4.0*
G04 #@! TF.SameCoordinates,Original*
G04 #@! TF.FileFunction,Soldermask,Bot*
G04 #@! TF.FilePolarity,Negative*
%FSLAX46Y46*%
G04 Gerber Fmt 4.6, Leading zero omitted, Abs format (unit mm)*
G04 Created by KiCad (PCBNEW (6.0.2-0)) date 2022-03-19 10:19:41*
%MOMM*%
%LPD*%
G01*
G04 APERTURE LIST*
%ADD10C,0.150000*%
%ADD11O,1.702000X1.702000*%
%ADD12C,1.702000*%
G04 APERTURE END LIST*
D10*
X118607840Y-76776580D02*
X118607840Y-69156580D01*
X118607840Y-69156580D02*
X53837840Y-69156580D01*
X53837840Y-69156580D02*
X53837840Y-76776580D01*
X53837840Y-76776580D02*
X118607840Y-76776580D01*
G36*
X118607840Y-76776580D02*
G01*
X53837840Y-76776580D01*
X53837840Y-69156580D01*
X118607840Y-69156580D01*
X118607840Y-76776580D01*
G37*
X118607840Y-76776580D02*
X53837840Y-76776580D01*
X53837840Y-69156580D01*
X118607840Y-69156580D01*
X118607840Y-76776580D01*
X118607840Y-76776580D02*
X118607840Y-69156580D01*
X118607840Y-69156580D02*
X53837840Y-69156580D01*
X53837840Y-69156580D02*
X53837840Y-76776580D01*
X53837840Y-76776580D02*
X118607840Y-76776580D01*
G36*
X118607840Y-76776580D02*
G01*
X53837840Y-76776580D01*
X53837840Y-69156580D01*
X118607840Y-69156580D01*
X118607840Y-76776580D01*
G37*
X118607840Y-76776580D02*
X53837840Y-76776580D01*
X53837840Y-69156580D01*
X118607840Y-69156580D01*
X118607840Y-76776580D01*
G36*
G01*
X108485840Y-32618580D02*
X108485840Y-31018580D01*
G75*
G02*
X108536840Y-30967580I51000J0D01*
G01*
X110136840Y-30967580D01*
G75*
G02*
X110187840Y-31018580I0J-51000D01*
G01*
X110187840Y-32618580D01*
G75*
G02*
X110136840Y-32669580I-51000J0D01*
G01*
X108536840Y-32669580D01*
G75*
G02*
X108485840Y-32618580I0J51000D01*
G01*
G37*
D11*
X109336840Y-34358580D03*
X109336840Y-36898580D03*
X109336840Y-39438580D03*
X109336840Y-41978580D03*
X109336840Y-44518580D03*
X109336840Y-47058580D03*
X116956840Y-47058580D03*
X116956840Y-44518580D03*
X116956840Y-41978580D03*
X116956840Y-39438580D03*
X116956840Y-36898580D03*
X116956840Y-34358580D03*
X116956840Y-31818580D03*
G36*
G01*
X96420840Y-63276580D02*
X94820840Y-63276580D01*
G75*
G02*
X94769840Y-63225580I0J51000D01*
G01*
X94769840Y-61625580D01*
G75*
G02*
X94820840Y-61574580I51000J0D01*
G01*
X96420840Y-61574580D01*
G75*
G02*
X96471840Y-61625580I0J-51000D01*
G01*
X96471840Y-63225580D01*
G75*
G02*
X96420840Y-63276580I-51000J0D01*
G01*
G37*
X98160840Y-62425580D03*
X100700840Y-62425580D03*
X103240840Y-62425580D03*
X105780840Y-62425580D03*
X108320840Y-62425580D03*
X110860840Y-62425580D03*
X110860840Y-54805580D03*
X108320840Y-54805580D03*
X105780840Y-54805580D03*
X103240840Y-54805580D03*
X100700840Y-54805580D03*
X98160840Y-54805580D03*
X95620840Y-54805580D03*
G36*
G01*
X60352840Y-27284580D02*
X60352840Y-25684580D01*
G75*
G02*
X60403840Y-25633580I51000J0D01*
G01*
X62003840Y-25633580D01*
G75*
G02*
X62054840Y-25684580I0J-51000D01*
G01*
X62054840Y-27284580D01*
G75*
G02*
X62003840Y-27335580I-51000J0D01*
G01*
X60403840Y-27335580D01*
G75*
G02*
X60352840Y-27284580I0J51000D01*
G01*
G37*
X61203840Y-29024580D03*
X61203840Y-31564580D03*
X61203840Y-34104580D03*
X61203840Y-36644580D03*
X61203840Y-39184580D03*
X61203840Y-41724580D03*
X61203840Y-44264580D03*
X61203840Y-46804580D03*
X61203840Y-49344580D03*
X68823840Y-49344580D03*
X68823840Y-46804580D03*
X68823840Y-44264580D03*
X68823840Y-41724580D03*
X68823840Y-39184580D03*
X68823840Y-36644580D03*
X68823840Y-34104580D03*
X68823840Y-31564580D03*
X68823840Y-29024580D03*
X68823840Y-26484580D03*
G36*
G01*
X84990840Y-27284580D02*
X84990840Y-25684580D01*
G75*
G02*
X85041840Y-25633580I51000J0D01*
G01*
X86641840Y-25633580D01*
G75*
G02*
X86692840Y-25684580I0J-51000D01*
G01*
X86692840Y-27284580D01*
G75*
G02*
X86641840Y-27335580I-51000J0D01*
G01*
X85041840Y-27335580D01*
G75*
G02*
X84990840Y-27284580I0J51000D01*
G01*
G37*
X85841840Y-29024580D03*
X85841840Y-31564580D03*
X85841840Y-34104580D03*
X85841840Y-36644580D03*
X85841840Y-39184580D03*
X85841840Y-41724580D03*
X85841840Y-44264580D03*
X85841840Y-46804580D03*
X85841840Y-49344580D03*
X93461840Y-49344580D03*
X93461840Y-46804580D03*
X93461840Y-44264580D03*
X93461840Y-41724580D03*
X93461840Y-39184580D03*
X93461840Y-36644580D03*
X93461840Y-34104580D03*
X93461840Y-31564580D03*
X93461840Y-29024580D03*
X93461840Y-26484580D03*
G36*
G01*
X72925840Y-27284580D02*
X72925840Y-25684580D01*
G75*
G02*
X72976840Y-25633580I51000J0D01*
G01*
X74576840Y-25633580D01*
G75*
G02*
X74627840Y-25684580I0J-51000D01*
G01*
X74627840Y-27284580D01*
G75*
G02*
X74576840Y-27335580I-51000J0D01*
G01*
X72976840Y-27335580D01*
G75*
G02*
X72925840Y-27284580I0J51000D01*
G01*
G37*
X73776840Y-29024580D03*
X73776840Y-31564580D03*
X73776840Y-34104580D03*
X73776840Y-36644580D03*
X73776840Y-39184580D03*
X73776840Y-41724580D03*
X73776840Y-44264580D03*
X73776840Y-46804580D03*
X73776840Y-49344580D03*
X81396840Y-49344580D03*
X81396840Y-46804580D03*
X81396840Y-44264580D03*
X81396840Y-41724580D03*
X81396840Y-39184580D03*
X81396840Y-36644580D03*
X81396840Y-34104580D03*
X81396840Y-31564580D03*
X81396840Y-29024580D03*
X81396840Y-26484580D03*
G36*
G01*
X97055840Y-27284580D02*
X97055840Y-25684580D01*
G75*
G02*
X97106840Y-25633580I51000J0D01*
G01*
X98706840Y-25633580D01*
G75*
G02*
X98757840Y-25684580I0J-51000D01*
G01*
X98757840Y-27284580D01*
G75*
G02*
X98706840Y-27335580I-51000J0D01*
G01*
X97106840Y-27335580D01*
G75*
G02*
X97055840Y-27284580I0J51000D01*
G01*
G37*
X97906840Y-29024580D03*
X97906840Y-31564580D03*
X97906840Y-34104580D03*
X97906840Y-36644580D03*
X97906840Y-39184580D03*
X97906840Y-41724580D03*
X97906840Y-44264580D03*
X97906840Y-46804580D03*
X97906840Y-49344580D03*
X105526840Y-49344580D03*
X105526840Y-46804580D03*
X105526840Y-44264580D03*
X105526840Y-41724580D03*
X105526840Y-39184580D03*
X105526840Y-36644580D03*
X105526840Y-34104580D03*
X105526840Y-31564580D03*
X105526840Y-29024580D03*
X105526840Y-26484580D03*
G36*
G01*
X116016840Y-76459080D02*
X116016840Y-69474080D01*
G75*
G02*
X116385340Y-69105580I368500J0D01*
G01*
X117020340Y-69105580D01*
G75*
G02*
X117388840Y-69474080I0J-368500D01*
G01*
X117388840Y-76459080D01*
G75*
G02*
X117020340Y-76827580I-368500J0D01*
G01*
X116385340Y-76827580D01*
G75*
G02*
X116016840Y-76459080I0J368500D01*
G01*
G37*
G36*
G01*
X113476840Y-76459080D02*
X113476840Y-69474080D01*
G75*
G02*
X113845340Y-69105580I368500J0D01*
G01*
X114480340Y-69105580D01*
G75*
G02*
X114848840Y-69474080I0J-368500D01*
G01*
X114848840Y-76459080D01*
G75*
G02*
X114480340Y-76827580I-368500J0D01*
G01*
X113845340Y-76827580D01*
G75*
G02*
X113476840Y-76459080I0J368500D01*
G01*
G37*
G36*
G01*
X110936840Y-76459080D02*
X110936840Y-69474080D01*
G75*
G02*
X111305340Y-69105580I368500J0D01*
G01*
X111940340Y-69105580D01*
G75*
G02*
X112308840Y-69474080I0J-368500D01*
G01*
X112308840Y-76459080D01*
G75*
G02*
X111940340Y-76827580I-368500J0D01*
G01*
X111305340Y-76827580D01*
G75*
G02*
X110936840Y-76459080I0J368500D01*
G01*
G37*
G36*
G01*
X108396840Y-76459080D02*
X108396840Y-69474080D01*
G75*
G02*
X108765340Y-69105580I368500J0D01*
G01*
X109400340Y-69105580D01*
G75*
G02*
X109768840Y-69474080I0J-368500D01*
G01*
X109768840Y-76459080D01*
G75*
G02*
X109400340Y-76827580I-368500J0D01*
G01*
X108765340Y-76827580D01*
G75*
G02*
X108396840Y-76459080I0J368500D01*
G01*
G37*
G36*
G01*
X105856840Y-76459080D02*
X105856840Y-69474080D01*
G75*
G02*
X106225340Y-69105580I368500J0D01*
G01*
X106860340Y-69105580D01*
G75*
G02*
X107228840Y-69474080I0J-368500D01*
G01*
X107228840Y-76459080D01*
G75*
G02*
X106860340Y-76827580I-368500J0D01*
G01*
X106225340Y-76827580D01*
G75*
G02*
X105856840Y-76459080I0J368500D01*
G01*
G37*
G36*
G01*
X103316840Y-76459080D02*
X103316840Y-69474080D01*
G75*
G02*
X103685340Y-69105580I368500J0D01*
G01*
X104320340Y-69105580D01*
G75*
G02*
X104688840Y-69474080I0J-368500D01*
G01*
X104688840Y-76459080D01*
G75*
G02*
X104320340Y-76827580I-368500J0D01*
G01*
X103685340Y-76827580D01*
G75*
G02*
X103316840Y-76459080I0J368500D01*
G01*
G37*
G36*
G01*
X100776840Y-76459080D02*
X100776840Y-69474080D01*
G75*
G02*
X101145340Y-69105580I368500J0D01*
G01*
X101780340Y-69105580D01*
G75*
G02*
X102148840Y-69474080I0J-368500D01*
G01*
X102148840Y-76459080D01*
G75*
G02*
X101780340Y-76827580I-368500J0D01*
G01*
X101145340Y-76827580D01*
G75*
G02*
X100776840Y-76459080I0J368500D01*
G01*
G37*
G36*
G01*
X98236840Y-76459080D02*
X98236840Y-69474080D01*
G75*
G02*
X98605340Y-69105580I368500J0D01*
G01*
X99240340Y-69105580D01*
G75*
G02*
X99608840Y-69474080I0J-368500D01*
G01*
X99608840Y-76459080D01*
G75*
G02*
X99240340Y-76827580I-368500J0D01*
G01*
X98605340Y-76827580D01*
G75*
G02*
X98236840Y-76459080I0J368500D01*
G01*
G37*
G36*
G01*
X95696840Y-76459080D02*
X95696840Y-69474080D01*
G75*
G02*
X96065340Y-69105580I368500J0D01*
G01*
X96700340Y-69105580D01*
G75*
G02*
X97068840Y-69474080I0J-368500D01*
G01*
X97068840Y-76459080D01*
G75*
G02*
X96700340Y-76827580I-368500J0D01*
G01*
X96065340Y-76827580D01*
G75*
G02*
X95696840Y-76459080I0J368500D01*
G01*
G37*
G36*
G01*
X93156840Y-76459080D02*
X93156840Y-69474080D01*
G75*
G02*
X93525340Y-69105580I368500J0D01*
G01*
X94160340Y-69105580D01*
G75*
G02*
X94528840Y-69474080I0J-368500D01*
G01*
X94528840Y-76459080D01*
G75*
G02*
X94160340Y-76827580I-368500J0D01*
G01*
X93525340Y-76827580D01*
G75*
G02*
X93156840Y-76459080I0J368500D01*
G01*
G37*
G36*
G01*
X90616840Y-76459080D02*
X90616840Y-69474080D01*
G75*
G02*
X90985340Y-69105580I368500J0D01*
G01*
X91620340Y-69105580D01*
G75*
G02*
X91988840Y-69474080I0J-368500D01*
G01*
X91988840Y-76459080D01*
G75*
G02*
X91620340Y-76827580I-368500J0D01*
G01*
X90985340Y-76827580D01*
G75*
G02*
X90616840Y-76459080I0J368500D01*
G01*
G37*
G36*
G01*
X88076840Y-76459080D02*
X88076840Y-69474080D01*
G75*
G02*
X88445340Y-69105580I368500J0D01*
G01*
X89080340Y-69105580D01*
G75*
G02*
X89448840Y-69474080I0J-368500D01*
G01*
X89448840Y-76459080D01*
G75*
G02*
X89080340Y-76827580I-368500J0D01*
G01*
X88445340Y-76827580D01*
G75*
G02*
X88076840Y-76459080I0J368500D01*
G01*
G37*
G36*
G01*
X85536840Y-76459080D02*
X85536840Y-69474080D01*
G75*
G02*
X85905340Y-69105580I368500J0D01*
G01*
X86540340Y-69105580D01*
G75*
G02*
X86908840Y-69474080I0J-368500D01*
G01*
X86908840Y-76459080D01*
G75*
G02*
X86540340Y-76827580I-368500J0D01*
G01*
X85905340Y-76827580D01*
G75*
G02*
X85536840Y-76459080I0J368500D01*
G01*
G37*
G36*
G01*
X82996840Y-76459080D02*
X82996840Y-69474080D01*
G75*
G02*
X83365340Y-69105580I368500J0D01*
G01*
X84000340Y-69105580D01*
G75*
G02*
X84368840Y-69474080I0J-368500D01*
G01*
X84368840Y-76459080D01*
G75*
G02*
X84000340Y-76827580I-368500J0D01*
G01*
X83365340Y-76827580D01*
G75*
G02*
X82996840Y-76459080I0J368500D01*
G01*
G37*
G36*
G01*
X80456840Y-76459080D02*
X80456840Y-69474080D01*
G75*
G02*
X80825340Y-69105580I368500J0D01*
G01*
X81460340Y-69105580D01*
G75*
G02*
X81828840Y-69474080I0J-368500D01*
G01*
X81828840Y-76459080D01*
G75*
G02*
X81460340Y-76827580I-368500J0D01*
G01*
X80825340Y-76827580D01*
G75*
G02*
X80456840Y-76459080I0J368500D01*
G01*
G37*
G36*
G01*
X77916840Y-76459080D02*
X77916840Y-69474080D01*
G75*
G02*
X78285340Y-69105580I368500J0D01*
G01*
X78920340Y-69105580D01*
G75*
G02*
X79288840Y-69474080I0J-368500D01*
G01*
X79288840Y-76459080D01*
G75*
G02*
X78920340Y-76827580I-368500J0D01*
G01*
X78285340Y-76827580D01*
G75*
G02*
X77916840Y-76459080I0J368500D01*
G01*
G37*
G36*
G01*
X75376840Y-76459080D02*
X75376840Y-69474080D01*
G75*
G02*
X75745340Y-69105580I368500J0D01*
G01*
X76380340Y-69105580D01*
G75*
G02*
X76748840Y-69474080I0J-368500D01*
G01*
X76748840Y-76459080D01*
G75*
G02*
X76380340Y-76827580I-368500J0D01*
G01*
X75745340Y-76827580D01*
G75*
G02*
X75376840Y-76459080I0J368500D01*
G01*
G37*
G36*
G01*
X72836840Y-76459080D02*
X72836840Y-69474080D01*
G75*
G02*
X73205340Y-69105580I368500J0D01*
G01*
X73840340Y-69105580D01*
G75*
G02*
X74208840Y-69474080I0J-368500D01*
G01*
X74208840Y-76459080D01*
G75*
G02*
X73840340Y-76827580I-368500J0D01*
G01*
X73205340Y-76827580D01*
G75*
G02*
X72836840Y-76459080I0J368500D01*
G01*
G37*
G36*
G01*
X70296840Y-76459080D02*
X70296840Y-69474080D01*
G75*
G02*
X70665340Y-69105580I368500J0D01*
G01*
X71300340Y-69105580D01*
G75*
G02*
X71668840Y-69474080I0J-368500D01*
G01*
X71668840Y-76459080D01*
G75*
G02*
X71300340Y-76827580I-368500J0D01*
G01*
X70665340Y-76827580D01*
G75*
G02*
X70296840Y-76459080I0J368500D01*
G01*
G37*
G36*
G01*
X67756840Y-76459080D02*
X67756840Y-69474080D01*
G75*
G02*
X68125340Y-69105580I368500J0D01*
G01*
X68760340Y-69105580D01*
G75*
G02*
X69128840Y-69474080I0J-368500D01*
G01*
X69128840Y-76459080D01*
G75*
G02*
X68760340Y-76827580I-368500J0D01*
G01*
X68125340Y-76827580D01*
G75*
G02*
X67756840Y-76459080I0J368500D01*
G01*
G37*
G36*
G01*
X65216840Y-76459080D02*
X65216840Y-69474080D01*
G75*
G02*
X65585340Y-69105580I368500J0D01*
G01*
X66220340Y-69105580D01*
G75*
G02*
X66588840Y-69474080I0J-368500D01*
G01*
X66588840Y-76459080D01*
G75*
G02*
X66220340Y-76827580I-368500J0D01*
G01*
X65585340Y-76827580D01*
G75*
G02*
X65216840Y-76459080I0J368500D01*
G01*
G37*
G36*
G01*
X62676840Y-76459080D02*
X62676840Y-69474080D01*
G75*
G02*
X63045340Y-69105580I368500J0D01*
G01*
X63680340Y-69105580D01*
G75*
G02*
X64048840Y-69474080I0J-368500D01*
G01*
X64048840Y-76459080D01*
G75*
G02*
X63680340Y-76827580I-368500J0D01*
G01*
X63045340Y-76827580D01*
G75*
G02*
X62676840Y-76459080I0J368500D01*
G01*
G37*
G36*
G01*
X60136840Y-76459080D02*
X60136840Y-69474080D01*
G75*
G02*
X60505340Y-69105580I368500J0D01*
G01*
X61140340Y-69105580D01*
G75*
G02*
X61508840Y-69474080I0J-368500D01*
G01*
X61508840Y-76459080D01*
G75*
G02*
X61140340Y-76827580I-368500J0D01*
G01*
X60505340Y-76827580D01*
G75*
G02*
X60136840Y-76459080I0J368500D01*
G01*
G37*
G36*
G01*
X57596840Y-76459080D02*
X57596840Y-69474080D01*
G75*
G02*
X57965340Y-69105580I368500J0D01*
G01*
X58600340Y-69105580D01*
G75*
G02*
X58968840Y-69474080I0J-368500D01*
G01*
X58968840Y-76459080D01*
G75*
G02*
X58600340Y-76827580I-368500J0D01*
G01*
X57965340Y-76827580D01*
G75*
G02*
X57596840Y-76459080I0J368500D01*
G01*
G37*
G36*
G01*
X55056840Y-76459080D02*
X55056840Y-69474080D01*
G75*
G02*
X55425340Y-69105580I368500J0D01*
G01*
X56060340Y-69105580D01*
G75*
G02*
X56428840Y-69474080I0J-368500D01*
G01*
X56428840Y-76459080D01*
G75*
G02*
X56060340Y-76827580I-368500J0D01*
G01*
X55425340Y-76827580D01*
G75*
G02*
X55056840Y-76459080I0J368500D01*
G01*
G37*
G36*
G01*
X36022180Y-25857100D02*
X36022180Y-24257100D01*
G75*
G02*
X36073180Y-24206100I51000J0D01*
G01*
X37673180Y-24206100D01*
G75*
G02*
X37724180Y-24257100I0J-51000D01*
G01*
X37724180Y-25857100D01*
G75*
G02*
X37673180Y-25908100I-51000J0D01*
G01*
X36073180Y-25908100D01*
G75*
G02*
X36022180Y-25857100I0J51000D01*
G01*
G37*
X36873180Y-27597100D03*
X36873180Y-30137100D03*
X36873180Y-32677100D03*
X36873180Y-35217100D03*
X36873180Y-37757100D03*
X36873180Y-40297100D03*
X36873180Y-42837100D03*
X36873180Y-45377100D03*
X36873180Y-47917100D03*
X36873180Y-50457100D03*
X36873180Y-52997100D03*
X36873180Y-55537100D03*
X36873180Y-58077100D03*
X36873180Y-60617100D03*
X36873180Y-63157100D03*
X52113180Y-63157100D03*
X52113180Y-60617100D03*
X52113180Y-58077100D03*
X52113180Y-55537100D03*
X52113180Y-52997100D03*
X52113180Y-50457100D03*
X52113180Y-47917100D03*
X52113180Y-45377100D03*
X52113180Y-42837100D03*
X52113180Y-40297100D03*
X52113180Y-37757100D03*
X52113180Y-35217100D03*
X52113180Y-32677100D03*
X52113180Y-30137100D03*
X52113180Y-27597100D03*
X52113180Y-25057100D03*
G36*
G01*
X64543840Y-63403580D02*
X62943840Y-63403580D01*
G75*
G02*
X62892840Y-63352580I0J51000D01*
G01*
X62892840Y-61752580D01*
G75*
G02*
X62943840Y-61701580I51000J0D01*
G01*
X64543840Y-61701580D01*
G75*
G02*
X64594840Y-61752580I0J-51000D01*
G01*
X64594840Y-63352580D01*
G75*
G02*
X64543840Y-63403580I-51000J0D01*
G01*
G37*
X66283840Y-62552580D03*
X68823840Y-62552580D03*
X71363840Y-62552580D03*
X73903840Y-62552580D03*
X76443840Y-62552580D03*
X78983840Y-62552580D03*
X81523840Y-62552580D03*
X84063840Y-62552580D03*
X86603840Y-62552580D03*
X86603840Y-54932580D03*
X84063840Y-54932580D03*
X81523840Y-54932580D03*
X78983840Y-54932580D03*
X76443840Y-54932580D03*
X73903840Y-54932580D03*
X71363840Y-54932580D03*
X68823840Y-54932580D03*
X66283840Y-54932580D03*
X63743840Y-54932580D03*
D12*
X59552840Y-59758580D03*
X59552840Y-57258580D03*
X114035840Y-59758580D03*
X114035840Y-57258580D03*
X89778840Y-60012580D03*
X89778840Y-57512580D03*
X100573840Y-52265580D03*
X103073840Y-52265580D03*
X88508840Y-52392580D03*
X91008840Y-52392580D03*
X76443840Y-52519580D03*
X78943840Y-52519580D03*
X63743840Y-52392580D03*
X66243840Y-52392580D03*
X112003840Y-50106580D03*
X114503840Y-50106580D03*
M02*
