G04 #@! TF.GenerationSoftware,KiCad,Pcbnew,(5.0.1-3-g963ef8bb5)*
G04 #@! TF.CreationDate,2019-04-25T11:14:13-04:00*
G04 #@! TF.ProjectId,ProDOS ROM-Drive 2.5,50726F444F5320524F4D2D4472697665,2.5*
G04 #@! TF.SameCoordinates,Original*
G04 #@! TF.FileFunction,Legend,Top*
G04 #@! TF.FilePolarity,Positive*
%FSLAX46Y46*%
G04 Gerber Fmt 4.6, Leading zero omitted, Abs format (unit mm)*
G04 Created by KiCad (PCBNEW (5.0.1-3-g963ef8bb5)) date Thursday, April 25, 2019 at 11:14:13 am*
%MOMM*%
%LPD*%
G01*
G04 APERTURE LIST*
%ADD10C,0.149860*%
%ADD11C,0.120000*%
%ADD12C,0.150000*%
G04 APERTURE END LIST*
D10*
X89096106Y-65357828D02*
X89096106Y-64367228D01*
X89473477Y-64367228D01*
X89567820Y-64414400D01*
X89614991Y-64461571D01*
X89662163Y-64555914D01*
X89662163Y-64697428D01*
X89614991Y-64791771D01*
X89567820Y-64838942D01*
X89473477Y-64886114D01*
X89096106Y-64886114D01*
X90086706Y-65357828D02*
X90086706Y-64697428D01*
X90086706Y-64886114D02*
X90133877Y-64791771D01*
X90181049Y-64744600D01*
X90275391Y-64697428D01*
X90369734Y-64697428D01*
X90841449Y-65357828D02*
X90747106Y-65310657D01*
X90699934Y-65263485D01*
X90652763Y-65169142D01*
X90652763Y-64886114D01*
X90699934Y-64791771D01*
X90747106Y-64744600D01*
X90841449Y-64697428D01*
X90982963Y-64697428D01*
X91077306Y-64744600D01*
X91124477Y-64791771D01*
X91171649Y-64886114D01*
X91171649Y-65169142D01*
X91124477Y-65263485D01*
X91077306Y-65310657D01*
X90982963Y-65357828D01*
X90841449Y-65357828D01*
X91596191Y-65357828D02*
X91596191Y-64367228D01*
X91832049Y-64367228D01*
X91973563Y-64414400D01*
X92067906Y-64508742D01*
X92115077Y-64603085D01*
X92162249Y-64791771D01*
X92162249Y-64933285D01*
X92115077Y-65121971D01*
X92067906Y-65216314D01*
X91973563Y-65310657D01*
X91832049Y-65357828D01*
X91596191Y-65357828D01*
X92775477Y-64367228D02*
X92964163Y-64367228D01*
X93058506Y-64414400D01*
X93152849Y-64508742D01*
X93200020Y-64697428D01*
X93200020Y-65027628D01*
X93152849Y-65216314D01*
X93058506Y-65310657D01*
X92964163Y-65357828D01*
X92775477Y-65357828D01*
X92681134Y-65310657D01*
X92586791Y-65216314D01*
X92539620Y-65027628D01*
X92539620Y-64697428D01*
X92586791Y-64508742D01*
X92681134Y-64414400D01*
X92775477Y-64367228D01*
X93577391Y-65310657D02*
X93718906Y-65357828D01*
X93954763Y-65357828D01*
X94049106Y-65310657D01*
X94096277Y-65263485D01*
X94143449Y-65169142D01*
X94143449Y-65074800D01*
X94096277Y-64980457D01*
X94049106Y-64933285D01*
X93954763Y-64886114D01*
X93766077Y-64838942D01*
X93671734Y-64791771D01*
X93624563Y-64744600D01*
X93577391Y-64650257D01*
X93577391Y-64555914D01*
X93624563Y-64461571D01*
X93671734Y-64414400D01*
X93766077Y-64367228D01*
X94001934Y-64367228D01*
X94143449Y-64414400D01*
X95888791Y-65357828D02*
X95558591Y-64886114D01*
X95322734Y-65357828D02*
X95322734Y-64367228D01*
X95700106Y-64367228D01*
X95794449Y-64414400D01*
X95841620Y-64461571D01*
X95888791Y-64555914D01*
X95888791Y-64697428D01*
X95841620Y-64791771D01*
X95794449Y-64838942D01*
X95700106Y-64886114D01*
X95322734Y-64886114D01*
X96502020Y-64367228D02*
X96690706Y-64367228D01*
X96785049Y-64414400D01*
X96879391Y-64508742D01*
X96926563Y-64697428D01*
X96926563Y-65027628D01*
X96879391Y-65216314D01*
X96785049Y-65310657D01*
X96690706Y-65357828D01*
X96502020Y-65357828D01*
X96407677Y-65310657D01*
X96313334Y-65216314D01*
X96266163Y-65027628D01*
X96266163Y-64697428D01*
X96313334Y-64508742D01*
X96407677Y-64414400D01*
X96502020Y-64367228D01*
X97351106Y-65357828D02*
X97351106Y-64367228D01*
X97681306Y-65074800D01*
X98011506Y-64367228D01*
X98011506Y-65357828D01*
X98483220Y-64980457D02*
X99237963Y-64980457D01*
X99709677Y-65357828D02*
X99709677Y-64367228D01*
X99945534Y-64367228D01*
X100087049Y-64414400D01*
X100181391Y-64508742D01*
X100228563Y-64603085D01*
X100275734Y-64791771D01*
X100275734Y-64933285D01*
X100228563Y-65121971D01*
X100181391Y-65216314D01*
X100087049Y-65310657D01*
X99945534Y-65357828D01*
X99709677Y-65357828D01*
X100700277Y-65357828D02*
X100700277Y-64697428D01*
X100700277Y-64886114D02*
X100747449Y-64791771D01*
X100794620Y-64744600D01*
X100888963Y-64697428D01*
X100983306Y-64697428D01*
X101313506Y-65357828D02*
X101313506Y-64697428D01*
X101313506Y-64367228D02*
X101266334Y-64414400D01*
X101313506Y-64461571D01*
X101360677Y-64414400D01*
X101313506Y-64367228D01*
X101313506Y-64461571D01*
X101690877Y-64697428D02*
X101926734Y-65357828D01*
X102162591Y-64697428D01*
X102917334Y-65310657D02*
X102822991Y-65357828D01*
X102634306Y-65357828D01*
X102539963Y-65310657D01*
X102492791Y-65216314D01*
X102492791Y-64838942D01*
X102539963Y-64744600D01*
X102634306Y-64697428D01*
X102822991Y-64697428D01*
X102917334Y-64744600D01*
X102964506Y-64838942D01*
X102964506Y-64933285D01*
X102492791Y-65027628D01*
X104049449Y-64697428D02*
X104285306Y-65357828D01*
X104521163Y-64697428D01*
X104851363Y-64461571D02*
X104898534Y-64414400D01*
X104992877Y-64367228D01*
X105228734Y-64367228D01*
X105323077Y-64414400D01*
X105370249Y-64461571D01*
X105417420Y-64555914D01*
X105417420Y-64650257D01*
X105370249Y-64791771D01*
X104804191Y-65357828D01*
X105417420Y-65357828D01*
X105841963Y-65263485D02*
X105889134Y-65310657D01*
X105841963Y-65357828D01*
X105794791Y-65310657D01*
X105841963Y-65263485D01*
X105841963Y-65357828D01*
X106785391Y-64367228D02*
X106313677Y-64367228D01*
X106266506Y-64838942D01*
X106313677Y-64791771D01*
X106408020Y-64744600D01*
X106643877Y-64744600D01*
X106738220Y-64791771D01*
X106785391Y-64838942D01*
X106832563Y-64933285D01*
X106832563Y-65169142D01*
X106785391Y-65263485D01*
X106738220Y-65310657D01*
X106643877Y-65357828D01*
X106408020Y-65357828D01*
X106313677Y-65310657D01*
X106266506Y-65263485D01*
X89379134Y-67370960D02*
X89331963Y-67323788D01*
X89237620Y-67182274D01*
X89190449Y-67087931D01*
X89143277Y-66946417D01*
X89096106Y-66710560D01*
X89096106Y-66521874D01*
X89143277Y-66286017D01*
X89190449Y-66144502D01*
X89237620Y-66050160D01*
X89331963Y-65908645D01*
X89379134Y-65861474D01*
X90181049Y-66946417D02*
X90086706Y-66993588D01*
X89898020Y-66993588D01*
X89803677Y-66946417D01*
X89756506Y-66899245D01*
X89709334Y-66804902D01*
X89709334Y-66521874D01*
X89756506Y-66427531D01*
X89803677Y-66380360D01*
X89898020Y-66333188D01*
X90086706Y-66333188D01*
X90181049Y-66380360D01*
X90511249Y-67370960D02*
X90558420Y-67323788D01*
X90652763Y-67182274D01*
X90699934Y-67087931D01*
X90747106Y-66946417D01*
X90794277Y-66710560D01*
X90794277Y-66521874D01*
X90747106Y-66286017D01*
X90699934Y-66144502D01*
X90652763Y-66050160D01*
X90558420Y-65908645D01*
X90511249Y-65861474D01*
X91784877Y-66993588D02*
X91218820Y-66993588D01*
X91501849Y-66993588D02*
X91501849Y-66002988D01*
X91407506Y-66144502D01*
X91313163Y-66238845D01*
X91218820Y-66286017D01*
X92256591Y-66993588D02*
X92445277Y-66993588D01*
X92539620Y-66946417D01*
X92586791Y-66899245D01*
X92681134Y-66757731D01*
X92728306Y-66569045D01*
X92728306Y-66191674D01*
X92681134Y-66097331D01*
X92633963Y-66050160D01*
X92539620Y-66002988D01*
X92350934Y-66002988D01*
X92256591Y-66050160D01*
X92209420Y-66097331D01*
X92162249Y-66191674D01*
X92162249Y-66427531D01*
X92209420Y-66521874D01*
X92256591Y-66569045D01*
X92350934Y-66616217D01*
X92539620Y-66616217D01*
X92633963Y-66569045D01*
X92681134Y-66521874D01*
X92728306Y-66427531D01*
X93200020Y-66993588D02*
X93388706Y-66993588D01*
X93483049Y-66946417D01*
X93530220Y-66899245D01*
X93624563Y-66757731D01*
X93671734Y-66569045D01*
X93671734Y-66191674D01*
X93624563Y-66097331D01*
X93577391Y-66050160D01*
X93483049Y-66002988D01*
X93294363Y-66002988D01*
X93200020Y-66050160D01*
X93152849Y-66097331D01*
X93105677Y-66191674D01*
X93105677Y-66427531D01*
X93152849Y-66521874D01*
X93200020Y-66569045D01*
X93294363Y-66616217D01*
X93483049Y-66616217D01*
X93577391Y-66569045D01*
X93624563Y-66521874D01*
X93671734Y-66427531D01*
X94237791Y-66427531D02*
X94143449Y-66380360D01*
X94096277Y-66333188D01*
X94049106Y-66238845D01*
X94049106Y-66191674D01*
X94096277Y-66097331D01*
X94143449Y-66050160D01*
X94237791Y-66002988D01*
X94426477Y-66002988D01*
X94520820Y-66050160D01*
X94567991Y-66097331D01*
X94615163Y-66191674D01*
X94615163Y-66238845D01*
X94567991Y-66333188D01*
X94520820Y-66380360D01*
X94426477Y-66427531D01*
X94237791Y-66427531D01*
X94143449Y-66474702D01*
X94096277Y-66521874D01*
X94049106Y-66616217D01*
X94049106Y-66804902D01*
X94096277Y-66899245D01*
X94143449Y-66946417D01*
X94237791Y-66993588D01*
X94426477Y-66993588D01*
X94520820Y-66946417D01*
X94567991Y-66899245D01*
X94615163Y-66804902D01*
X94615163Y-66616217D01*
X94567991Y-66521874D01*
X94520820Y-66474702D01*
X94426477Y-66427531D01*
X95039706Y-66616217D02*
X95794449Y-66616217D01*
X96218991Y-66097331D02*
X96266163Y-66050160D01*
X96360506Y-66002988D01*
X96596363Y-66002988D01*
X96690706Y-66050160D01*
X96737877Y-66097331D01*
X96785049Y-66191674D01*
X96785049Y-66286017D01*
X96737877Y-66427531D01*
X96171820Y-66993588D01*
X96785049Y-66993588D01*
X97398277Y-66002988D02*
X97492620Y-66002988D01*
X97586963Y-66050160D01*
X97634134Y-66097331D01*
X97681306Y-66191674D01*
X97728477Y-66380360D01*
X97728477Y-66616217D01*
X97681306Y-66804902D01*
X97634134Y-66899245D01*
X97586963Y-66946417D01*
X97492620Y-66993588D01*
X97398277Y-66993588D01*
X97303934Y-66946417D01*
X97256763Y-66899245D01*
X97209591Y-66804902D01*
X97162420Y-66616217D01*
X97162420Y-66380360D01*
X97209591Y-66191674D01*
X97256763Y-66097331D01*
X97303934Y-66050160D01*
X97398277Y-66002988D01*
X98671906Y-66993588D02*
X98105849Y-66993588D01*
X98388877Y-66993588D02*
X98388877Y-66002988D01*
X98294534Y-66144502D01*
X98200191Y-66238845D01*
X98105849Y-66286017D01*
X99143620Y-66993588D02*
X99332306Y-66993588D01*
X99426649Y-66946417D01*
X99473820Y-66899245D01*
X99568163Y-66757731D01*
X99615334Y-66569045D01*
X99615334Y-66191674D01*
X99568163Y-66097331D01*
X99520991Y-66050160D01*
X99426649Y-66002988D01*
X99237963Y-66002988D01*
X99143620Y-66050160D01*
X99096449Y-66097331D01*
X99049277Y-66191674D01*
X99049277Y-66427531D01*
X99096449Y-66521874D01*
X99143620Y-66569045D01*
X99237963Y-66616217D01*
X99426649Y-66616217D01*
X99520991Y-66569045D01*
X99568163Y-66521874D01*
X99615334Y-66427531D01*
X100653106Y-66002988D02*
X101219163Y-66002988D01*
X100936134Y-66993588D02*
X100936134Y-66002988D01*
X101926734Y-66946417D02*
X101832391Y-66993588D01*
X101643706Y-66993588D01*
X101549363Y-66946417D01*
X101502191Y-66852074D01*
X101502191Y-66474702D01*
X101549363Y-66380360D01*
X101643706Y-66333188D01*
X101832391Y-66333188D01*
X101926734Y-66380360D01*
X101973906Y-66474702D01*
X101973906Y-66569045D01*
X101502191Y-66663388D01*
X102398449Y-66993588D02*
X102398449Y-66333188D01*
X102398449Y-66521874D02*
X102445620Y-66427531D01*
X102492791Y-66380360D01*
X102587134Y-66333188D01*
X102681477Y-66333188D01*
X103389049Y-66946417D02*
X103294706Y-66993588D01*
X103106020Y-66993588D01*
X103011677Y-66946417D01*
X102964506Y-66852074D01*
X102964506Y-66474702D01*
X103011677Y-66380360D01*
X103106020Y-66333188D01*
X103294706Y-66333188D01*
X103389049Y-66380360D01*
X103436220Y-66474702D01*
X103436220Y-66569045D01*
X102964506Y-66663388D01*
X103860763Y-66333188D02*
X103860763Y-66993588D01*
X103860763Y-66427531D02*
X103907934Y-66380360D01*
X104002277Y-66333188D01*
X104143791Y-66333188D01*
X104238134Y-66380360D01*
X104285306Y-66474702D01*
X104285306Y-66993588D01*
X105181563Y-66946417D02*
X105087220Y-66993588D01*
X104898534Y-66993588D01*
X104804191Y-66946417D01*
X104757020Y-66899245D01*
X104709849Y-66804902D01*
X104709849Y-66521874D01*
X104757020Y-66427531D01*
X104804191Y-66380360D01*
X104898534Y-66333188D01*
X105087220Y-66333188D01*
X105181563Y-66380360D01*
X105983477Y-66946417D02*
X105889134Y-66993588D01*
X105700449Y-66993588D01*
X105606106Y-66946417D01*
X105558934Y-66852074D01*
X105558934Y-66474702D01*
X105606106Y-66380360D01*
X105700449Y-66333188D01*
X105889134Y-66333188D01*
X105983477Y-66380360D01*
X106030649Y-66474702D01*
X106030649Y-66569045D01*
X105558934Y-66663388D01*
X107492963Y-66002988D02*
X107492963Y-66710560D01*
X107445791Y-66852074D01*
X107351449Y-66946417D01*
X107209934Y-66993588D01*
X107115591Y-66993588D01*
X107964677Y-66899245D02*
X108011849Y-66946417D01*
X107964677Y-66993588D01*
X107917506Y-66946417D01*
X107964677Y-66899245D01*
X107964677Y-66993588D01*
X109521334Y-66474702D02*
X109662849Y-66521874D01*
X109710020Y-66569045D01*
X109757191Y-66663388D01*
X109757191Y-66804902D01*
X109710020Y-66899245D01*
X109662849Y-66946417D01*
X109568506Y-66993588D01*
X109191134Y-66993588D01*
X109191134Y-66002988D01*
X109521334Y-66002988D01*
X109615677Y-66050160D01*
X109662849Y-66097331D01*
X109710020Y-66191674D01*
X109710020Y-66286017D01*
X109662849Y-66380360D01*
X109615677Y-66427531D01*
X109521334Y-66474702D01*
X109191134Y-66474702D01*
X110323249Y-66993588D02*
X110228906Y-66946417D01*
X110181734Y-66899245D01*
X110134563Y-66804902D01*
X110134563Y-66521874D01*
X110181734Y-66427531D01*
X110228906Y-66380360D01*
X110323249Y-66333188D01*
X110464763Y-66333188D01*
X110559106Y-66380360D01*
X110606277Y-66427531D01*
X110653449Y-66521874D01*
X110653449Y-66804902D01*
X110606277Y-66899245D01*
X110559106Y-66946417D01*
X110464763Y-66993588D01*
X110323249Y-66993588D01*
X111219506Y-66993588D02*
X111125163Y-66946417D01*
X111077991Y-66852074D01*
X111077991Y-66002988D01*
X112021420Y-66993588D02*
X112021420Y-66002988D01*
X112021420Y-66946417D02*
X111927077Y-66993588D01*
X111738391Y-66993588D01*
X111644049Y-66946417D01*
X111596877Y-66899245D01*
X111549706Y-66804902D01*
X111549706Y-66521874D01*
X111596877Y-66427531D01*
X111644049Y-66380360D01*
X111738391Y-66333188D01*
X111927077Y-66333188D01*
X112021420Y-66380360D01*
X112351620Y-66333188D02*
X112728991Y-66333188D01*
X112493134Y-66002988D02*
X112493134Y-66852074D01*
X112540306Y-66946417D01*
X112634649Y-66993588D01*
X112728991Y-66993588D01*
X42348331Y-57742745D02*
X42301160Y-57695573D01*
X42253988Y-57601231D01*
X42253988Y-57365373D01*
X42301160Y-57271031D01*
X42348331Y-57223859D01*
X42442674Y-57176688D01*
X42537017Y-57176688D01*
X42678531Y-57223859D01*
X43244588Y-57789916D01*
X43244588Y-57176688D01*
X42253988Y-56846488D02*
X42253988Y-56186088D01*
X43244588Y-56610631D01*
X43150245Y-55242659D02*
X43197417Y-55289831D01*
X43244588Y-55431345D01*
X43244588Y-55525688D01*
X43197417Y-55667202D01*
X43103074Y-55761545D01*
X43008731Y-55808716D01*
X42820045Y-55855888D01*
X42678531Y-55855888D01*
X42489845Y-55808716D01*
X42395502Y-55761545D01*
X42301160Y-55667202D01*
X42253988Y-55525688D01*
X42253988Y-55431345D01*
X42301160Y-55289831D01*
X42348331Y-55242659D01*
X42253988Y-54629431D02*
X42253988Y-54535088D01*
X42301160Y-54440745D01*
X42348331Y-54393573D01*
X42442674Y-54346402D01*
X42631360Y-54299231D01*
X42867217Y-54299231D01*
X43055902Y-54346402D01*
X43150245Y-54393573D01*
X43197417Y-54440745D01*
X43244588Y-54535088D01*
X43244588Y-54629431D01*
X43197417Y-54723773D01*
X43150245Y-54770945D01*
X43055902Y-54818116D01*
X42867217Y-54865288D01*
X42631360Y-54865288D01*
X42442674Y-54818116D01*
X42348331Y-54770945D01*
X42301160Y-54723773D01*
X42253988Y-54629431D01*
X42678531Y-53733173D02*
X42631360Y-53827516D01*
X42584188Y-53874688D01*
X42489845Y-53921859D01*
X42442674Y-53921859D01*
X42348331Y-53874688D01*
X42301160Y-53827516D01*
X42253988Y-53733173D01*
X42253988Y-53544488D01*
X42301160Y-53450145D01*
X42348331Y-53402973D01*
X42442674Y-53355802D01*
X42489845Y-53355802D01*
X42584188Y-53402973D01*
X42631360Y-53450145D01*
X42678531Y-53544488D01*
X42678531Y-53733173D01*
X42725702Y-53827516D01*
X42772874Y-53874688D01*
X42867217Y-53921859D01*
X43055902Y-53921859D01*
X43150245Y-53874688D01*
X43197417Y-53827516D01*
X43244588Y-53733173D01*
X43244588Y-53544488D01*
X43197417Y-53450145D01*
X43150245Y-53402973D01*
X43055902Y-53355802D01*
X42867217Y-53355802D01*
X42772874Y-53402973D01*
X42725702Y-53450145D01*
X42678531Y-53544488D01*
X42253988Y-52742573D02*
X42253988Y-52648231D01*
X42301160Y-52553888D01*
X42348331Y-52506716D01*
X42442674Y-52459545D01*
X42631360Y-52412373D01*
X42867217Y-52412373D01*
X43055902Y-52459545D01*
X43150245Y-52506716D01*
X43197417Y-52553888D01*
X43244588Y-52648231D01*
X43244588Y-52742573D01*
X43197417Y-52836916D01*
X43150245Y-52884088D01*
X43055902Y-52931259D01*
X42867217Y-52978431D01*
X42631360Y-52978431D01*
X42442674Y-52931259D01*
X42348331Y-52884088D01*
X42301160Y-52836916D01*
X42253988Y-52742573D01*
X42206817Y-50525516D02*
X43480445Y-51374602D01*
X42348331Y-49487745D02*
X42301160Y-49440573D01*
X42253988Y-49346231D01*
X42253988Y-49110373D01*
X42301160Y-49016031D01*
X42348331Y-48968859D01*
X42442674Y-48921688D01*
X42537017Y-48921688D01*
X42678531Y-48968859D01*
X43244588Y-49534916D01*
X43244588Y-48921688D01*
X42253988Y-48591488D02*
X42253988Y-47931088D01*
X43244588Y-48355631D01*
X43150245Y-46987659D02*
X43197417Y-47034831D01*
X43244588Y-47176345D01*
X43244588Y-47270688D01*
X43197417Y-47412202D01*
X43103074Y-47506545D01*
X43008731Y-47553716D01*
X42820045Y-47600888D01*
X42678531Y-47600888D01*
X42489845Y-47553716D01*
X42395502Y-47506545D01*
X42301160Y-47412202D01*
X42253988Y-47270688D01*
X42253988Y-47176345D01*
X42301160Y-47034831D01*
X42348331Y-46987659D01*
X42678531Y-46421602D02*
X42631360Y-46515945D01*
X42584188Y-46563116D01*
X42489845Y-46610288D01*
X42442674Y-46610288D01*
X42348331Y-46563116D01*
X42301160Y-46515945D01*
X42253988Y-46421602D01*
X42253988Y-46232916D01*
X42301160Y-46138573D01*
X42348331Y-46091402D01*
X42442674Y-46044231D01*
X42489845Y-46044231D01*
X42584188Y-46091402D01*
X42631360Y-46138573D01*
X42678531Y-46232916D01*
X42678531Y-46421602D01*
X42725702Y-46515945D01*
X42772874Y-46563116D01*
X42867217Y-46610288D01*
X43055902Y-46610288D01*
X43150245Y-46563116D01*
X43197417Y-46515945D01*
X43244588Y-46421602D01*
X43244588Y-46232916D01*
X43197417Y-46138573D01*
X43150245Y-46091402D01*
X43055902Y-46044231D01*
X42867217Y-46044231D01*
X42772874Y-46091402D01*
X42725702Y-46138573D01*
X42678531Y-46232916D01*
X42253988Y-45431002D02*
X42253988Y-45336659D01*
X42301160Y-45242316D01*
X42348331Y-45195145D01*
X42442674Y-45147973D01*
X42631360Y-45100802D01*
X42867217Y-45100802D01*
X43055902Y-45147973D01*
X43150245Y-45195145D01*
X43197417Y-45242316D01*
X43244588Y-45336659D01*
X43244588Y-45431002D01*
X43197417Y-45525345D01*
X43150245Y-45572516D01*
X43055902Y-45619688D01*
X42867217Y-45666859D01*
X42631360Y-45666859D01*
X42442674Y-45619688D01*
X42348331Y-45572516D01*
X42301160Y-45525345D01*
X42253988Y-45431002D01*
X43244588Y-44157373D02*
X43244588Y-44723431D01*
X43244588Y-44440402D02*
X42253988Y-44440402D01*
X42395502Y-44534745D01*
X42489845Y-44629088D01*
X42537017Y-44723431D01*
X42725702Y-42978088D02*
X42725702Y-42647888D01*
X43244588Y-42506373D02*
X43244588Y-42978088D01*
X42253988Y-42978088D01*
X42253988Y-42506373D01*
X43244588Y-42081831D02*
X42253988Y-42081831D01*
X42253988Y-41704459D01*
X42301160Y-41610116D01*
X42348331Y-41562945D01*
X42442674Y-41515773D01*
X42584188Y-41515773D01*
X42678531Y-41562945D01*
X42725702Y-41610116D01*
X42772874Y-41704459D01*
X42772874Y-42081831D01*
X43244588Y-40525173D02*
X42772874Y-40855373D01*
X43244588Y-41091231D02*
X42253988Y-41091231D01*
X42253988Y-40713859D01*
X42301160Y-40619516D01*
X42348331Y-40572345D01*
X42442674Y-40525173D01*
X42584188Y-40525173D01*
X42678531Y-40572345D01*
X42725702Y-40619516D01*
X42772874Y-40713859D01*
X42772874Y-41091231D01*
X42253988Y-39911945D02*
X42253988Y-39723259D01*
X42301160Y-39628916D01*
X42395502Y-39534573D01*
X42584188Y-39487402D01*
X42914388Y-39487402D01*
X43103074Y-39534573D01*
X43197417Y-39628916D01*
X43244588Y-39723259D01*
X43244588Y-39911945D01*
X43197417Y-40006288D01*
X43103074Y-40100631D01*
X42914388Y-40147802D01*
X42584188Y-40147802D01*
X42395502Y-40100631D01*
X42301160Y-40006288D01*
X42253988Y-39911945D01*
X43244588Y-39062859D02*
X42253988Y-39062859D01*
X42961560Y-38732659D01*
X42253988Y-38402459D01*
X43244588Y-38402459D01*
X44361462Y-57365373D02*
X44361462Y-57695573D01*
X44880348Y-57695573D02*
X43889748Y-57695573D01*
X43889748Y-57223859D01*
X44880348Y-56846488D02*
X44219948Y-56846488D01*
X43889748Y-56846488D02*
X43936920Y-56893659D01*
X43984091Y-56846488D01*
X43936920Y-56799316D01*
X43889748Y-56846488D01*
X43984091Y-56846488D01*
X44880348Y-56374773D02*
X44219948Y-56374773D01*
X44408634Y-56374773D02*
X44314291Y-56327602D01*
X44267120Y-56280431D01*
X44219948Y-56186088D01*
X44219948Y-56091745D01*
X44880348Y-55761545D02*
X44219948Y-55761545D01*
X44314291Y-55761545D02*
X44267120Y-55714373D01*
X44219948Y-55620031D01*
X44219948Y-55478516D01*
X44267120Y-55384173D01*
X44361462Y-55337002D01*
X44880348Y-55337002D01*
X44361462Y-55337002D02*
X44267120Y-55289831D01*
X44219948Y-55195488D01*
X44219948Y-55053973D01*
X44267120Y-54959631D01*
X44361462Y-54912459D01*
X44880348Y-54912459D01*
X44219948Y-54535088D02*
X44880348Y-54346402D01*
X44408634Y-54157716D01*
X44880348Y-53969031D01*
X44219948Y-53780345D01*
X44880348Y-52978431D02*
X44361462Y-52978431D01*
X44267120Y-53025602D01*
X44219948Y-53119945D01*
X44219948Y-53308631D01*
X44267120Y-53402973D01*
X44833177Y-52978431D02*
X44880348Y-53072773D01*
X44880348Y-53308631D01*
X44833177Y-53402973D01*
X44738834Y-53450145D01*
X44644491Y-53450145D01*
X44550148Y-53402973D01*
X44502977Y-53308631D01*
X44502977Y-53072773D01*
X44455805Y-52978431D01*
X44880348Y-52506716D02*
X44219948Y-52506716D01*
X44408634Y-52506716D02*
X44314291Y-52459545D01*
X44267120Y-52412373D01*
X44219948Y-52318031D01*
X44219948Y-52223688D01*
X44833177Y-51516116D02*
X44880348Y-51610459D01*
X44880348Y-51799145D01*
X44833177Y-51893488D01*
X44738834Y-51940659D01*
X44361462Y-51940659D01*
X44267120Y-51893488D01*
X44219948Y-51799145D01*
X44219948Y-51610459D01*
X44267120Y-51516116D01*
X44361462Y-51468945D01*
X44455805Y-51468945D01*
X44550148Y-51940659D01*
X44833177Y-50336831D02*
X44880348Y-50195316D01*
X44880348Y-49959459D01*
X44833177Y-49865116D01*
X44786005Y-49817945D01*
X44691662Y-49770773D01*
X44597320Y-49770773D01*
X44502977Y-49817945D01*
X44455805Y-49865116D01*
X44408634Y-49959459D01*
X44361462Y-50148145D01*
X44314291Y-50242488D01*
X44267120Y-50289659D01*
X44172777Y-50336831D01*
X44078434Y-50336831D01*
X43984091Y-50289659D01*
X43936920Y-50242488D01*
X43889748Y-50148145D01*
X43889748Y-49912288D01*
X43936920Y-49770773D01*
X43748234Y-50053802D02*
X45021862Y-50053802D01*
X44361462Y-49016031D02*
X44361462Y-49346231D01*
X44880348Y-49346231D02*
X43889748Y-49346231D01*
X43889748Y-48874516D01*
X44361462Y-48166945D02*
X44361462Y-48497145D01*
X44880348Y-48497145D02*
X43889748Y-48497145D01*
X43889748Y-48025431D01*
X44314291Y-47506545D02*
X44267120Y-47600888D01*
X44219948Y-47648059D01*
X44125605Y-47695231D01*
X44078434Y-47695231D01*
X43984091Y-47648059D01*
X43936920Y-47600888D01*
X43889748Y-47506545D01*
X43889748Y-47317859D01*
X43936920Y-47223516D01*
X43984091Y-47176345D01*
X44078434Y-47129173D01*
X44125605Y-47129173D01*
X44219948Y-47176345D01*
X44267120Y-47223516D01*
X44314291Y-47317859D01*
X44314291Y-47506545D01*
X44361462Y-47600888D01*
X44408634Y-47648059D01*
X44502977Y-47695231D01*
X44691662Y-47695231D01*
X44786005Y-47648059D01*
X44833177Y-47600888D01*
X44880348Y-47506545D01*
X44880348Y-47317859D01*
X44833177Y-47223516D01*
X44786005Y-47176345D01*
X44691662Y-47129173D01*
X44502977Y-47129173D01*
X44408634Y-47176345D01*
X44361462Y-47223516D01*
X44314291Y-47317859D01*
X43889748Y-46515945D02*
X43889748Y-46421602D01*
X43936920Y-46327259D01*
X43984091Y-46280088D01*
X44078434Y-46232916D01*
X44267120Y-46185745D01*
X44502977Y-46185745D01*
X44691662Y-46232916D01*
X44786005Y-46280088D01*
X44833177Y-46327259D01*
X44880348Y-46421602D01*
X44880348Y-46515945D01*
X44833177Y-46610288D01*
X44786005Y-46657459D01*
X44691662Y-46704631D01*
X44502977Y-46751802D01*
X44267120Y-46751802D01*
X44078434Y-46704631D01*
X43984091Y-46657459D01*
X43936920Y-46610288D01*
X43889748Y-46515945D01*
X43889748Y-45572516D02*
X43889748Y-45478173D01*
X43936920Y-45383831D01*
X43984091Y-45336659D01*
X44078434Y-45289488D01*
X44267120Y-45242316D01*
X44502977Y-45242316D01*
X44691662Y-45289488D01*
X44786005Y-45336659D01*
X44833177Y-45383831D01*
X44880348Y-45478173D01*
X44880348Y-45572516D01*
X44833177Y-45666859D01*
X44786005Y-45714031D01*
X44691662Y-45761202D01*
X44502977Y-45808373D01*
X44267120Y-45808373D01*
X44078434Y-45761202D01*
X43984091Y-45714031D01*
X43936920Y-45666859D01*
X43889748Y-45572516D01*
X44502977Y-44063031D02*
X44502977Y-43308288D01*
X44833177Y-42129002D02*
X44880348Y-41987488D01*
X44880348Y-41751631D01*
X44833177Y-41657288D01*
X44786005Y-41610116D01*
X44691662Y-41562945D01*
X44597320Y-41562945D01*
X44502977Y-41610116D01*
X44455805Y-41657288D01*
X44408634Y-41751631D01*
X44361462Y-41940316D01*
X44314291Y-42034659D01*
X44267120Y-42081831D01*
X44172777Y-42129002D01*
X44078434Y-42129002D01*
X43984091Y-42081831D01*
X43936920Y-42034659D01*
X43889748Y-41940316D01*
X43889748Y-41704459D01*
X43936920Y-41562945D01*
X43748234Y-41845973D02*
X45021862Y-41845973D01*
X44361462Y-40808202D02*
X44361462Y-41138402D01*
X44880348Y-41138402D02*
X43889748Y-41138402D01*
X43889748Y-40666688D01*
X44361462Y-39959116D02*
X44361462Y-40289316D01*
X44880348Y-40289316D02*
X43889748Y-40289316D01*
X43889748Y-39817602D01*
X44361462Y-39110031D02*
X44361462Y-39440231D01*
X44880348Y-39440231D02*
X43889748Y-39440231D01*
X43889748Y-38968516D01*
X44361462Y-38260945D02*
X44361462Y-38591145D01*
X44880348Y-38591145D02*
X43889748Y-38591145D01*
X43889748Y-38119431D01*
X44361462Y-37411859D02*
X44361462Y-37742059D01*
X44880348Y-37742059D02*
X43889748Y-37742059D01*
X43889748Y-37270345D01*
X46516108Y-57695573D02*
X45525508Y-57695573D01*
X45525508Y-57459716D01*
X45572680Y-57318202D01*
X45667022Y-57223859D01*
X45761365Y-57176688D01*
X45950051Y-57129516D01*
X46091565Y-57129516D01*
X46280251Y-57176688D01*
X46374594Y-57223859D01*
X46468937Y-57318202D01*
X46516108Y-57459716D01*
X46516108Y-57695573D01*
X46516108Y-56704973D02*
X45855708Y-56704973D01*
X46044394Y-56704973D02*
X45950051Y-56657802D01*
X45902880Y-56610631D01*
X45855708Y-56516288D01*
X45855708Y-56421945D01*
X46516108Y-56091745D02*
X45855708Y-56091745D01*
X45525508Y-56091745D02*
X45572680Y-56138916D01*
X45619851Y-56091745D01*
X45572680Y-56044573D01*
X45525508Y-56091745D01*
X45619851Y-56091745D01*
X45855708Y-55714373D02*
X46516108Y-55478516D01*
X45855708Y-55242659D01*
X46468937Y-54487916D02*
X46516108Y-54582259D01*
X46516108Y-54770945D01*
X46468937Y-54865288D01*
X46374594Y-54912459D01*
X45997222Y-54912459D01*
X45902880Y-54865288D01*
X45855708Y-54770945D01*
X45855708Y-54582259D01*
X45902880Y-54487916D01*
X45997222Y-54440745D01*
X46091565Y-54440745D01*
X46185908Y-54912459D01*
X46516108Y-53261459D02*
X45525508Y-53261459D01*
X46516108Y-52789745D02*
X45855708Y-52789745D01*
X45950051Y-52789745D02*
X45902880Y-52742573D01*
X45855708Y-52648231D01*
X45855708Y-52506716D01*
X45902880Y-52412373D01*
X45997222Y-52365202D01*
X46516108Y-52365202D01*
X45997222Y-52365202D02*
X45902880Y-52318031D01*
X45855708Y-52223688D01*
X45855708Y-52082173D01*
X45902880Y-51987831D01*
X45997222Y-51940659D01*
X46516108Y-51940659D01*
X46516108Y-51044402D02*
X45997222Y-51044402D01*
X45902880Y-51091573D01*
X45855708Y-51185916D01*
X45855708Y-51374602D01*
X45902880Y-51468945D01*
X46468937Y-51044402D02*
X46516108Y-51138745D01*
X46516108Y-51374602D01*
X46468937Y-51468945D01*
X46374594Y-51516116D01*
X46280251Y-51516116D01*
X46185908Y-51468945D01*
X46138737Y-51374602D01*
X46138737Y-51138745D01*
X46091565Y-51044402D01*
X45855708Y-50148145D02*
X46657622Y-50148145D01*
X46751965Y-50195316D01*
X46799137Y-50242488D01*
X46846308Y-50336831D01*
X46846308Y-50478345D01*
X46799137Y-50572688D01*
X46468937Y-50148145D02*
X46516108Y-50242488D01*
X46516108Y-50431173D01*
X46468937Y-50525516D01*
X46421765Y-50572688D01*
X46327422Y-50619859D01*
X46044394Y-50619859D01*
X45950051Y-50572688D01*
X45902880Y-50525516D01*
X45855708Y-50431173D01*
X45855708Y-50242488D01*
X45902880Y-50148145D01*
X46468937Y-49299059D02*
X46516108Y-49393402D01*
X46516108Y-49582088D01*
X46468937Y-49676431D01*
X46374594Y-49723602D01*
X45997222Y-49723602D01*
X45902880Y-49676431D01*
X45855708Y-49582088D01*
X45855708Y-49393402D01*
X45902880Y-49299059D01*
X45997222Y-49251888D01*
X46091565Y-49251888D01*
X46185908Y-49723602D01*
X46468937Y-48119773D02*
X46516108Y-47978259D01*
X46516108Y-47742402D01*
X46468937Y-47648059D01*
X46421765Y-47600888D01*
X46327422Y-47553716D01*
X46233080Y-47553716D01*
X46138737Y-47600888D01*
X46091565Y-47648059D01*
X46044394Y-47742402D01*
X45997222Y-47931088D01*
X45950051Y-48025431D01*
X45902880Y-48072602D01*
X45808537Y-48119773D01*
X45714194Y-48119773D01*
X45619851Y-48072602D01*
X45572680Y-48025431D01*
X45525508Y-47931088D01*
X45525508Y-47695231D01*
X45572680Y-47553716D01*
X45383994Y-47836745D02*
X46657622Y-47836745D01*
X45525508Y-46940488D02*
X45525508Y-46846145D01*
X45572680Y-46751802D01*
X45619851Y-46704631D01*
X45714194Y-46657459D01*
X45902880Y-46610288D01*
X46138737Y-46610288D01*
X46327422Y-46657459D01*
X46421765Y-46704631D01*
X46468937Y-46751802D01*
X46516108Y-46846145D01*
X46516108Y-46940488D01*
X46468937Y-47034831D01*
X46421765Y-47082002D01*
X46327422Y-47129173D01*
X46138737Y-47176345D01*
X45902880Y-47176345D01*
X45714194Y-47129173D01*
X45619851Y-47082002D01*
X45572680Y-47034831D01*
X45525508Y-46940488D01*
X45525508Y-45997059D02*
X45525508Y-45902716D01*
X45572680Y-45808373D01*
X45619851Y-45761202D01*
X45714194Y-45714031D01*
X45902880Y-45666859D01*
X46138737Y-45666859D01*
X46327422Y-45714031D01*
X46421765Y-45761202D01*
X46468937Y-45808373D01*
X46516108Y-45902716D01*
X46516108Y-45997059D01*
X46468937Y-46091402D01*
X46421765Y-46138573D01*
X46327422Y-46185745D01*
X46138737Y-46232916D01*
X45902880Y-46232916D01*
X45714194Y-46185745D01*
X45619851Y-46138573D01*
X45572680Y-46091402D01*
X45525508Y-45997059D01*
X45525508Y-45053631D02*
X45525508Y-44959288D01*
X45572680Y-44864945D01*
X45619851Y-44817773D01*
X45714194Y-44770602D01*
X45902880Y-44723431D01*
X46138737Y-44723431D01*
X46327422Y-44770602D01*
X46421765Y-44817773D01*
X46468937Y-44864945D01*
X46516108Y-44959288D01*
X46516108Y-45053631D01*
X46468937Y-45147973D01*
X46421765Y-45195145D01*
X46327422Y-45242316D01*
X46138737Y-45289488D01*
X45902880Y-45289488D01*
X45714194Y-45242316D01*
X45619851Y-45195145D01*
X45572680Y-45147973D01*
X45525508Y-45053631D01*
X45525508Y-44110202D02*
X45525508Y-44015859D01*
X45572680Y-43921516D01*
X45619851Y-43874345D01*
X45714194Y-43827173D01*
X45902880Y-43780002D01*
X46138737Y-43780002D01*
X46327422Y-43827173D01*
X46421765Y-43874345D01*
X46468937Y-43921516D01*
X46516108Y-44015859D01*
X46516108Y-44110202D01*
X46468937Y-44204545D01*
X46421765Y-44251716D01*
X46327422Y-44298888D01*
X46138737Y-44346059D01*
X45902880Y-44346059D01*
X45714194Y-44298888D01*
X45619851Y-44251716D01*
X45572680Y-44204545D01*
X45525508Y-44110202D01*
X45525508Y-43166773D02*
X45525508Y-43072431D01*
X45572680Y-42978088D01*
X45619851Y-42930916D01*
X45714194Y-42883745D01*
X45902880Y-42836573D01*
X46138737Y-42836573D01*
X46327422Y-42883745D01*
X46421765Y-42930916D01*
X46468937Y-42978088D01*
X46516108Y-43072431D01*
X46516108Y-43166773D01*
X46468937Y-43261116D01*
X46421765Y-43308288D01*
X46327422Y-43355459D01*
X46138737Y-43402631D01*
X45902880Y-43402631D01*
X45714194Y-43355459D01*
X45619851Y-43308288D01*
X45572680Y-43261116D01*
X45525508Y-43166773D01*
X46138737Y-41657288D02*
X46138737Y-40902545D01*
X46468937Y-39723259D02*
X46516108Y-39581745D01*
X46516108Y-39345888D01*
X46468937Y-39251545D01*
X46421765Y-39204373D01*
X46327422Y-39157202D01*
X46233080Y-39157202D01*
X46138737Y-39204373D01*
X46091565Y-39251545D01*
X46044394Y-39345888D01*
X45997222Y-39534573D01*
X45950051Y-39628916D01*
X45902880Y-39676088D01*
X45808537Y-39723259D01*
X45714194Y-39723259D01*
X45619851Y-39676088D01*
X45572680Y-39628916D01*
X45525508Y-39534573D01*
X45525508Y-39298716D01*
X45572680Y-39157202D01*
X45383994Y-39440231D02*
X46657622Y-39440231D01*
X45997222Y-38402459D02*
X45997222Y-38732659D01*
X46516108Y-38732659D02*
X45525508Y-38732659D01*
X45525508Y-38260945D01*
X45997222Y-37553373D02*
X45997222Y-37883573D01*
X46516108Y-37883573D02*
X45525508Y-37883573D01*
X45525508Y-37411859D01*
X45525508Y-37128831D02*
X45525508Y-36468431D01*
X46516108Y-36892973D01*
X45997222Y-35760859D02*
X45997222Y-36091059D01*
X46516108Y-36091059D02*
X45525508Y-36091059D01*
X45525508Y-35619345D01*
X45997222Y-34911773D02*
X45997222Y-35241973D01*
X46516108Y-35241973D02*
X45525508Y-35241973D01*
X45525508Y-34770259D01*
X112741528Y-46189900D02*
X112741528Y-46001214D01*
X112788700Y-45906871D01*
X112883042Y-45812528D01*
X113071728Y-45765357D01*
X113401928Y-45765357D01*
X113590614Y-45812528D01*
X113684957Y-45906871D01*
X113732128Y-46001214D01*
X113732128Y-46189900D01*
X113684957Y-46284242D01*
X113590614Y-46378585D01*
X113401928Y-46425757D01*
X113071728Y-46425757D01*
X112883042Y-46378585D01*
X112788700Y-46284242D01*
X112741528Y-46189900D01*
X113732128Y-44774757D02*
X113260414Y-45104957D01*
X113732128Y-45340814D02*
X112741528Y-45340814D01*
X112741528Y-44963442D01*
X112788700Y-44869100D01*
X112835871Y-44821928D01*
X112930214Y-44774757D01*
X113071728Y-44774757D01*
X113166071Y-44821928D01*
X113213242Y-44869100D01*
X113260414Y-44963442D01*
X113260414Y-45340814D01*
X113732128Y-43123757D02*
X113732128Y-43595471D01*
X112741528Y-43595471D01*
X113732128Y-42652042D02*
X113684957Y-42746385D01*
X113637785Y-42793557D01*
X113543442Y-42840728D01*
X113260414Y-42840728D01*
X113166071Y-42793557D01*
X113118900Y-42746385D01*
X113071728Y-42652042D01*
X113071728Y-42510528D01*
X113118900Y-42416185D01*
X113166071Y-42369014D01*
X113260414Y-42321842D01*
X113543442Y-42321842D01*
X113637785Y-42369014D01*
X113684957Y-42416185D01*
X113732128Y-42510528D01*
X113732128Y-42652042D01*
X113071728Y-41472757D02*
X113873642Y-41472757D01*
X113967985Y-41519928D01*
X114015157Y-41567100D01*
X114062328Y-41661442D01*
X114062328Y-41802957D01*
X114015157Y-41897300D01*
X113684957Y-41472757D02*
X113732128Y-41567100D01*
X113732128Y-41755785D01*
X113684957Y-41850128D01*
X113637785Y-41897300D01*
X113543442Y-41944471D01*
X113260414Y-41944471D01*
X113166071Y-41897300D01*
X113118900Y-41850128D01*
X113071728Y-41755785D01*
X113071728Y-41567100D01*
X113118900Y-41472757D01*
X113732128Y-41001042D02*
X113071728Y-41001042D01*
X112741528Y-41001042D02*
X112788700Y-41048214D01*
X112835871Y-41001042D01*
X112788700Y-40953871D01*
X112741528Y-41001042D01*
X112835871Y-41001042D01*
X113684957Y-40104785D02*
X113732128Y-40199128D01*
X113732128Y-40387814D01*
X113684957Y-40482157D01*
X113637785Y-40529328D01*
X113543442Y-40576500D01*
X113260414Y-40576500D01*
X113166071Y-40529328D01*
X113118900Y-40482157D01*
X113071728Y-40387814D01*
X113071728Y-40199128D01*
X113118900Y-40104785D01*
X112741528Y-38265100D02*
X112741528Y-37604700D01*
X113732128Y-38029242D01*
X113071728Y-36802785D02*
X113732128Y-36802785D01*
X112694357Y-37038642D02*
X113401928Y-37274500D01*
X113401928Y-36661271D01*
X113732128Y-35812185D02*
X113732128Y-36283900D01*
X112741528Y-36283900D01*
X113684957Y-35529157D02*
X113732128Y-35387642D01*
X113732128Y-35151785D01*
X113684957Y-35057442D01*
X113637785Y-35010271D01*
X113543442Y-34963100D01*
X113449100Y-34963100D01*
X113354757Y-35010271D01*
X113307585Y-35057442D01*
X113260414Y-35151785D01*
X113213242Y-35340471D01*
X113166071Y-35434814D01*
X113118900Y-35481985D01*
X113024557Y-35529157D01*
X112930214Y-35529157D01*
X112835871Y-35481985D01*
X112788700Y-35434814D01*
X112741528Y-35340471D01*
X112741528Y-35104614D01*
X112788700Y-34963100D01*
X112741528Y-34632900D02*
X112741528Y-34019671D01*
X113118900Y-34349871D01*
X113118900Y-34208357D01*
X113166071Y-34114014D01*
X113213242Y-34066842D01*
X113307585Y-34019671D01*
X113543442Y-34019671D01*
X113637785Y-34066842D01*
X113684957Y-34114014D01*
X113732128Y-34208357D01*
X113732128Y-34491385D01*
X113684957Y-34585728D01*
X113637785Y-34632900D01*
X112835871Y-33642300D02*
X112788700Y-33595128D01*
X112741528Y-33500785D01*
X112741528Y-33264928D01*
X112788700Y-33170585D01*
X112835871Y-33123414D01*
X112930214Y-33076242D01*
X113024557Y-33076242D01*
X113166071Y-33123414D01*
X113732128Y-33689471D01*
X113732128Y-33076242D01*
X96187985Y-59122128D02*
X96187985Y-58131528D01*
X96754042Y-59122128D01*
X96754042Y-58131528D01*
X97178585Y-58839100D02*
X97650300Y-58839100D01*
X97084242Y-59122128D02*
X97414442Y-58131528D01*
X97744642Y-59122128D01*
X98074842Y-59122128D02*
X98074842Y-58131528D01*
X98640900Y-59122128D01*
X98640900Y-58131528D01*
X99112614Y-59122128D02*
X99112614Y-58131528D01*
X99348471Y-58131528D01*
X99489985Y-58178700D01*
X99584328Y-58273042D01*
X99631500Y-58367385D01*
X99678671Y-58556071D01*
X99678671Y-58697585D01*
X99631500Y-58886271D01*
X99584328Y-58980614D01*
X99489985Y-59074957D01*
X99348471Y-59122128D01*
X99112614Y-59122128D01*
X101329671Y-59122128D02*
X100857957Y-59122128D01*
X100857957Y-58131528D01*
X101801385Y-59122128D02*
X101707042Y-59074957D01*
X101659871Y-59027785D01*
X101612700Y-58933442D01*
X101612700Y-58650414D01*
X101659871Y-58556071D01*
X101707042Y-58508900D01*
X101801385Y-58461728D01*
X101942900Y-58461728D01*
X102037242Y-58508900D01*
X102084414Y-58556071D01*
X102131585Y-58650414D01*
X102131585Y-58933442D01*
X102084414Y-59027785D01*
X102037242Y-59074957D01*
X101942900Y-59122128D01*
X101801385Y-59122128D01*
X102980671Y-58461728D02*
X102980671Y-59263642D01*
X102933500Y-59357985D01*
X102886328Y-59405157D01*
X102791985Y-59452328D01*
X102650471Y-59452328D01*
X102556128Y-59405157D01*
X102980671Y-59074957D02*
X102886328Y-59122128D01*
X102697642Y-59122128D01*
X102603300Y-59074957D01*
X102556128Y-59027785D01*
X102508957Y-58933442D01*
X102508957Y-58650414D01*
X102556128Y-58556071D01*
X102603300Y-58508900D01*
X102697642Y-58461728D01*
X102886328Y-58461728D01*
X102980671Y-58508900D01*
X103452385Y-59122128D02*
X103452385Y-58461728D01*
X103452385Y-58131528D02*
X103405214Y-58178700D01*
X103452385Y-58225871D01*
X103499557Y-58178700D01*
X103452385Y-58131528D01*
X103452385Y-58225871D01*
X104348642Y-59074957D02*
X104254300Y-59122128D01*
X104065614Y-59122128D01*
X103971271Y-59074957D01*
X103924100Y-59027785D01*
X103876928Y-58933442D01*
X103876928Y-58650414D01*
X103924100Y-58556071D01*
X103971271Y-58508900D01*
X104065614Y-58461728D01*
X104254300Y-58461728D01*
X104348642Y-58508900D01*
X106188328Y-58131528D02*
X106848728Y-58131528D01*
X106424185Y-59122128D01*
X107650642Y-58461728D02*
X107650642Y-59122128D01*
X107414785Y-58084357D02*
X107178928Y-58791928D01*
X107792157Y-58791928D01*
X108641242Y-59122128D02*
X108169528Y-59122128D01*
X108169528Y-58131528D01*
X108924271Y-59074957D02*
X109065785Y-59122128D01*
X109301642Y-59122128D01*
X109395985Y-59074957D01*
X109443157Y-59027785D01*
X109490328Y-58933442D01*
X109490328Y-58839100D01*
X109443157Y-58744757D01*
X109395985Y-58697585D01*
X109301642Y-58650414D01*
X109112957Y-58603242D01*
X109018614Y-58556071D01*
X108971442Y-58508900D01*
X108924271Y-58414557D01*
X108924271Y-58320214D01*
X108971442Y-58225871D01*
X109018614Y-58178700D01*
X109112957Y-58131528D01*
X109348814Y-58131528D01*
X109490328Y-58178700D01*
X110103557Y-58131528D02*
X110197899Y-58131528D01*
X110292242Y-58178700D01*
X110339414Y-58225871D01*
X110386585Y-58320214D01*
X110433757Y-58508900D01*
X110433757Y-58744757D01*
X110386585Y-58933442D01*
X110339414Y-59027785D01*
X110292242Y-59074957D01*
X110197899Y-59122128D01*
X110103557Y-59122128D01*
X110009214Y-59074957D01*
X109962042Y-59027785D01*
X109914871Y-58933442D01*
X109867699Y-58744757D01*
X109867699Y-58508900D01*
X109914871Y-58320214D01*
X109962042Y-58225871D01*
X110009214Y-58178700D01*
X110103557Y-58131528D01*
X111046985Y-58131528D02*
X111141328Y-58131528D01*
X111235671Y-58178700D01*
X111282842Y-58225871D01*
X111330014Y-58320214D01*
X111377185Y-58508900D01*
X111377185Y-58744757D01*
X111330014Y-58933442D01*
X111282842Y-59027785D01*
X111235671Y-59074957D01*
X111141328Y-59122128D01*
X111046985Y-59122128D01*
X110952642Y-59074957D01*
X110905471Y-59027785D01*
X110858299Y-58933442D01*
X110811128Y-58744757D01*
X110811128Y-58508900D01*
X110858299Y-58320214D01*
X110905471Y-58225871D01*
X110952642Y-58178700D01*
X111046985Y-58131528D01*
X102302128Y-48227342D02*
X101311528Y-48227342D01*
X101783242Y-48227342D02*
X101783242Y-47661285D01*
X102302128Y-47661285D02*
X101311528Y-47661285D01*
X102302128Y-47189571D02*
X101641728Y-47189571D01*
X101311528Y-47189571D02*
X101358700Y-47236742D01*
X101405871Y-47189571D01*
X101358700Y-47142400D01*
X101311528Y-47189571D01*
X101405871Y-47189571D01*
X101641728Y-46293314D02*
X102443642Y-46293314D01*
X102537985Y-46340485D01*
X102585157Y-46387657D01*
X102632328Y-46482000D01*
X102632328Y-46623514D01*
X102585157Y-46717857D01*
X102254957Y-46293314D02*
X102302128Y-46387657D01*
X102302128Y-46576342D01*
X102254957Y-46670685D01*
X102207785Y-46717857D01*
X102113442Y-46765028D01*
X101830414Y-46765028D01*
X101736071Y-46717857D01*
X101688900Y-46670685D01*
X101641728Y-46576342D01*
X101641728Y-46387657D01*
X101688900Y-46293314D01*
X102302128Y-45821600D02*
X101311528Y-45821600D01*
X102302128Y-45397057D02*
X101783242Y-45397057D01*
X101688900Y-45444228D01*
X101641728Y-45538571D01*
X101641728Y-45680085D01*
X101688900Y-45774428D01*
X101736071Y-45821600D01*
X101783242Y-43840400D02*
X101783242Y-44170600D01*
X102302128Y-44170600D02*
X101311528Y-44170600D01*
X101311528Y-43698885D01*
X101311528Y-43415857D02*
X102302128Y-43180000D01*
X101594557Y-42991314D01*
X102302128Y-42802628D01*
X101311528Y-42566771D01*
X102019100Y-41481828D02*
X102019100Y-41010114D01*
X102302128Y-41576171D02*
X101311528Y-41245971D01*
X102302128Y-40915771D01*
X102302128Y-40161028D02*
X101311528Y-40161028D01*
X102254957Y-40161028D02*
X102302128Y-40255371D01*
X102302128Y-40444057D01*
X102254957Y-40538400D01*
X102207785Y-40585571D01*
X102113442Y-40632742D01*
X101830414Y-40632742D01*
X101736071Y-40585571D01*
X101688900Y-40538400D01*
X101641728Y-40444057D01*
X101641728Y-40255371D01*
X101688900Y-40161028D01*
X102302128Y-39264771D02*
X101311528Y-39264771D01*
X102254957Y-39264771D02*
X102302128Y-39359114D01*
X102302128Y-39547800D01*
X102254957Y-39642142D01*
X102207785Y-39689314D01*
X102113442Y-39736485D01*
X101830414Y-39736485D01*
X101736071Y-39689314D01*
X101688900Y-39642142D01*
X101641728Y-39547800D01*
X101641728Y-39359114D01*
X101688900Y-39264771D01*
X102302128Y-38793057D02*
X101641728Y-38793057D01*
X101830414Y-38793057D02*
X101736071Y-38745885D01*
X101688900Y-38698714D01*
X101641728Y-38604371D01*
X101641728Y-38510028D01*
X102254957Y-37802457D02*
X102302128Y-37896800D01*
X102302128Y-38085485D01*
X102254957Y-38179828D01*
X102160614Y-38227000D01*
X101783242Y-38227000D01*
X101688900Y-38179828D01*
X101641728Y-38085485D01*
X101641728Y-37896800D01*
X101688900Y-37802457D01*
X101783242Y-37755285D01*
X101877585Y-37755285D01*
X101971928Y-38227000D01*
X102254957Y-37377914D02*
X102302128Y-37283571D01*
X102302128Y-37094885D01*
X102254957Y-37000542D01*
X102160614Y-36953371D01*
X102113442Y-36953371D01*
X102019100Y-37000542D01*
X101971928Y-37094885D01*
X101971928Y-37236400D01*
X101924757Y-37330742D01*
X101830414Y-37377914D01*
X101783242Y-37377914D01*
X101688900Y-37330742D01*
X101641728Y-37236400D01*
X101641728Y-37094885D01*
X101688900Y-37000542D01*
X102254957Y-36576000D02*
X102302128Y-36481657D01*
X102302128Y-36292971D01*
X102254957Y-36198628D01*
X102160614Y-36151457D01*
X102113442Y-36151457D01*
X102019100Y-36198628D01*
X101971928Y-36292971D01*
X101971928Y-36434485D01*
X101924757Y-36528828D01*
X101830414Y-36576000D01*
X101783242Y-36576000D01*
X101688900Y-36528828D01*
X101641728Y-36434485D01*
X101641728Y-36292971D01*
X101688900Y-36198628D01*
X101311528Y-34311771D02*
X101311528Y-33651371D01*
X102302128Y-34075914D01*
X101641728Y-32849457D02*
X102302128Y-32849457D01*
X101264357Y-33085314D02*
X101971928Y-33321171D01*
X101971928Y-32707942D01*
X102302128Y-31858857D02*
X102302128Y-32330571D01*
X101311528Y-32330571D01*
X102254957Y-31575828D02*
X102302128Y-31434314D01*
X102302128Y-31198457D01*
X102254957Y-31104114D01*
X102207785Y-31056942D01*
X102113442Y-31009771D01*
X102019100Y-31009771D01*
X101924757Y-31056942D01*
X101877585Y-31104114D01*
X101830414Y-31198457D01*
X101783242Y-31387142D01*
X101736071Y-31481485D01*
X101688900Y-31528657D01*
X101594557Y-31575828D01*
X101500214Y-31575828D01*
X101405871Y-31528657D01*
X101358700Y-31481485D01*
X101311528Y-31387142D01*
X101311528Y-31151285D01*
X101358700Y-31009771D01*
X101405871Y-30632400D02*
X101358700Y-30585228D01*
X101311528Y-30490885D01*
X101311528Y-30255028D01*
X101358700Y-30160685D01*
X101405871Y-30113514D01*
X101500214Y-30066342D01*
X101594557Y-30066342D01*
X101736071Y-30113514D01*
X102302128Y-30679571D01*
X102302128Y-30066342D01*
X101641728Y-29217257D02*
X102302128Y-29217257D01*
X101264357Y-29453114D02*
X101971928Y-29688971D01*
X101971928Y-29075742D01*
X101311528Y-28226657D02*
X101311528Y-28698371D01*
X101783242Y-28745542D01*
X101736071Y-28698371D01*
X101688900Y-28604028D01*
X101688900Y-28368171D01*
X101736071Y-28273828D01*
X101783242Y-28226657D01*
X101877585Y-28179485D01*
X102113442Y-28179485D01*
X102207785Y-28226657D01*
X102254957Y-28273828D01*
X102302128Y-28368171D01*
X102302128Y-28604028D01*
X102254957Y-28698371D01*
X102207785Y-28745542D01*
X90237128Y-47599600D02*
X90237128Y-48071314D01*
X89246528Y-48071314D01*
X90237128Y-47127885D02*
X90189957Y-47222228D01*
X90142785Y-47269400D01*
X90048442Y-47316571D01*
X89765414Y-47316571D01*
X89671071Y-47269400D01*
X89623900Y-47222228D01*
X89576728Y-47127885D01*
X89576728Y-46986371D01*
X89623900Y-46892028D01*
X89671071Y-46844857D01*
X89765414Y-46797685D01*
X90048442Y-46797685D01*
X90142785Y-46844857D01*
X90189957Y-46892028D01*
X90237128Y-46986371D01*
X90237128Y-47127885D01*
X89576728Y-46467485D02*
X90237128Y-46278800D01*
X89765414Y-46090114D01*
X90237128Y-45901428D01*
X89576728Y-45712742D01*
X89718242Y-44250428D02*
X89718242Y-44580628D01*
X90237128Y-44580628D02*
X89246528Y-44580628D01*
X89246528Y-44108914D01*
X89246528Y-43825885D02*
X90237128Y-43590028D01*
X89529557Y-43401342D01*
X90237128Y-43212657D01*
X89246528Y-42976800D01*
X89954100Y-41891857D02*
X89954100Y-41420142D01*
X90237128Y-41986200D02*
X89246528Y-41656000D01*
X90237128Y-41325800D01*
X90237128Y-40571057D02*
X89246528Y-40571057D01*
X90189957Y-40571057D02*
X90237128Y-40665400D01*
X90237128Y-40854085D01*
X90189957Y-40948428D01*
X90142785Y-40995600D01*
X90048442Y-41042771D01*
X89765414Y-41042771D01*
X89671071Y-40995600D01*
X89623900Y-40948428D01*
X89576728Y-40854085D01*
X89576728Y-40665400D01*
X89623900Y-40571057D01*
X90237128Y-39674800D02*
X89246528Y-39674800D01*
X90189957Y-39674800D02*
X90237128Y-39769142D01*
X90237128Y-39957828D01*
X90189957Y-40052171D01*
X90142785Y-40099342D01*
X90048442Y-40146514D01*
X89765414Y-40146514D01*
X89671071Y-40099342D01*
X89623900Y-40052171D01*
X89576728Y-39957828D01*
X89576728Y-39769142D01*
X89623900Y-39674800D01*
X90237128Y-39203085D02*
X89576728Y-39203085D01*
X89765414Y-39203085D02*
X89671071Y-39155914D01*
X89623900Y-39108742D01*
X89576728Y-39014400D01*
X89576728Y-38920057D01*
X90189957Y-38212485D02*
X90237128Y-38306828D01*
X90237128Y-38495514D01*
X90189957Y-38589857D01*
X90095614Y-38637028D01*
X89718242Y-38637028D01*
X89623900Y-38589857D01*
X89576728Y-38495514D01*
X89576728Y-38306828D01*
X89623900Y-38212485D01*
X89718242Y-38165314D01*
X89812585Y-38165314D01*
X89906928Y-38637028D01*
X90189957Y-37787942D02*
X90237128Y-37693600D01*
X90237128Y-37504914D01*
X90189957Y-37410571D01*
X90095614Y-37363400D01*
X90048442Y-37363400D01*
X89954100Y-37410571D01*
X89906928Y-37504914D01*
X89906928Y-37646428D01*
X89859757Y-37740771D01*
X89765414Y-37787942D01*
X89718242Y-37787942D01*
X89623900Y-37740771D01*
X89576728Y-37646428D01*
X89576728Y-37504914D01*
X89623900Y-37410571D01*
X90189957Y-36986028D02*
X90237128Y-36891685D01*
X90237128Y-36703000D01*
X90189957Y-36608657D01*
X90095614Y-36561485D01*
X90048442Y-36561485D01*
X89954100Y-36608657D01*
X89906928Y-36703000D01*
X89906928Y-36844514D01*
X89859757Y-36938857D01*
X89765414Y-36986028D01*
X89718242Y-36986028D01*
X89623900Y-36938857D01*
X89576728Y-36844514D01*
X89576728Y-36703000D01*
X89623900Y-36608657D01*
X89246528Y-34721800D02*
X89246528Y-34061400D01*
X90237128Y-34485942D01*
X89576728Y-33259485D02*
X90237128Y-33259485D01*
X89199357Y-33495342D02*
X89906928Y-33731200D01*
X89906928Y-33117971D01*
X90237128Y-32268885D02*
X90237128Y-32740600D01*
X89246528Y-32740600D01*
X90189957Y-31985857D02*
X90237128Y-31844342D01*
X90237128Y-31608485D01*
X90189957Y-31514142D01*
X90142785Y-31466971D01*
X90048442Y-31419800D01*
X89954100Y-31419800D01*
X89859757Y-31466971D01*
X89812585Y-31514142D01*
X89765414Y-31608485D01*
X89718242Y-31797171D01*
X89671071Y-31891514D01*
X89623900Y-31938685D01*
X89529557Y-31985857D01*
X89435214Y-31985857D01*
X89340871Y-31938685D01*
X89293700Y-31891514D01*
X89246528Y-31797171D01*
X89246528Y-31561314D01*
X89293700Y-31419800D01*
X89340871Y-31042428D02*
X89293700Y-30995257D01*
X89246528Y-30900914D01*
X89246528Y-30665057D01*
X89293700Y-30570714D01*
X89340871Y-30523542D01*
X89435214Y-30476371D01*
X89529557Y-30476371D01*
X89671071Y-30523542D01*
X90237128Y-31089600D01*
X90237128Y-30476371D01*
X89576728Y-29627285D02*
X90237128Y-29627285D01*
X89199357Y-29863142D02*
X89906928Y-30099000D01*
X89906928Y-29485771D01*
X89246528Y-28636685D02*
X89246528Y-29108400D01*
X89718242Y-29155571D01*
X89671071Y-29108400D01*
X89623900Y-29014057D01*
X89623900Y-28778200D01*
X89671071Y-28683857D01*
X89718242Y-28636685D01*
X89812585Y-28589514D01*
X90048442Y-28589514D01*
X90142785Y-28636685D01*
X90189957Y-28683857D01*
X90237128Y-28778200D01*
X90237128Y-29014057D01*
X90189957Y-29108400D01*
X90142785Y-29155571D01*
X78172128Y-49203428D02*
X77181528Y-49203428D01*
X77653242Y-49203428D02*
X77653242Y-48637371D01*
X78172128Y-48637371D02*
X77181528Y-48637371D01*
X78172128Y-48165657D02*
X77511728Y-48165657D01*
X77181528Y-48165657D02*
X77228700Y-48212828D01*
X77275871Y-48165657D01*
X77228700Y-48118485D01*
X77181528Y-48165657D01*
X77275871Y-48165657D01*
X77511728Y-47269400D02*
X78313642Y-47269400D01*
X78407985Y-47316571D01*
X78455157Y-47363742D01*
X78502328Y-47458085D01*
X78502328Y-47599600D01*
X78455157Y-47693942D01*
X78124957Y-47269400D02*
X78172128Y-47363742D01*
X78172128Y-47552428D01*
X78124957Y-47646771D01*
X78077785Y-47693942D01*
X77983442Y-47741114D01*
X77700414Y-47741114D01*
X77606071Y-47693942D01*
X77558900Y-47646771D01*
X77511728Y-47552428D01*
X77511728Y-47363742D01*
X77558900Y-47269400D01*
X78172128Y-46797685D02*
X77181528Y-46797685D01*
X78172128Y-46373142D02*
X77653242Y-46373142D01*
X77558900Y-46420314D01*
X77511728Y-46514657D01*
X77511728Y-46656171D01*
X77558900Y-46750514D01*
X77606071Y-46797685D01*
X78172128Y-45146685D02*
X77181528Y-45146685D01*
X77181528Y-44910828D01*
X77228700Y-44769314D01*
X77323042Y-44674971D01*
X77417385Y-44627800D01*
X77606071Y-44580628D01*
X77747585Y-44580628D01*
X77936271Y-44627800D01*
X78030614Y-44674971D01*
X78124957Y-44769314D01*
X78172128Y-44910828D01*
X78172128Y-45146685D01*
X78172128Y-44156085D02*
X77511728Y-44156085D01*
X77700414Y-44156085D02*
X77606071Y-44108914D01*
X77558900Y-44061742D01*
X77511728Y-43967400D01*
X77511728Y-43873057D01*
X78172128Y-43542857D02*
X77511728Y-43542857D01*
X77181528Y-43542857D02*
X77228700Y-43590028D01*
X77275871Y-43542857D01*
X77228700Y-43495685D01*
X77181528Y-43542857D01*
X77275871Y-43542857D01*
X77511728Y-43165485D02*
X78172128Y-42929628D01*
X77511728Y-42693771D01*
X78124957Y-41939028D02*
X78172128Y-42033371D01*
X78172128Y-42222057D01*
X78124957Y-42316400D01*
X78030614Y-42363571D01*
X77653242Y-42363571D01*
X77558900Y-42316400D01*
X77511728Y-42222057D01*
X77511728Y-42033371D01*
X77558900Y-41939028D01*
X77653242Y-41891857D01*
X77747585Y-41891857D01*
X77841928Y-42363571D01*
X77889100Y-40759742D02*
X77889100Y-40288028D01*
X78172128Y-40854085D02*
X77181528Y-40523885D01*
X78172128Y-40193685D01*
X78172128Y-39438942D02*
X77181528Y-39438942D01*
X78124957Y-39438942D02*
X78172128Y-39533285D01*
X78172128Y-39721971D01*
X78124957Y-39816314D01*
X78077785Y-39863485D01*
X77983442Y-39910657D01*
X77700414Y-39910657D01*
X77606071Y-39863485D01*
X77558900Y-39816314D01*
X77511728Y-39721971D01*
X77511728Y-39533285D01*
X77558900Y-39438942D01*
X78172128Y-38542685D02*
X77181528Y-38542685D01*
X78124957Y-38542685D02*
X78172128Y-38637028D01*
X78172128Y-38825714D01*
X78124957Y-38920057D01*
X78077785Y-38967228D01*
X77983442Y-39014400D01*
X77700414Y-39014400D01*
X77606071Y-38967228D01*
X77558900Y-38920057D01*
X77511728Y-38825714D01*
X77511728Y-38637028D01*
X77558900Y-38542685D01*
X78172128Y-38070971D02*
X77511728Y-38070971D01*
X77700414Y-38070971D02*
X77606071Y-38023800D01*
X77558900Y-37976628D01*
X77511728Y-37882285D01*
X77511728Y-37787942D01*
X78124957Y-37080371D02*
X78172128Y-37174714D01*
X78172128Y-37363400D01*
X78124957Y-37457742D01*
X78030614Y-37504914D01*
X77653242Y-37504914D01*
X77558900Y-37457742D01*
X77511728Y-37363400D01*
X77511728Y-37174714D01*
X77558900Y-37080371D01*
X77653242Y-37033200D01*
X77747585Y-37033200D01*
X77841928Y-37504914D01*
X78124957Y-36655828D02*
X78172128Y-36561485D01*
X78172128Y-36372800D01*
X78124957Y-36278457D01*
X78030614Y-36231285D01*
X77983442Y-36231285D01*
X77889100Y-36278457D01*
X77841928Y-36372800D01*
X77841928Y-36514314D01*
X77794757Y-36608657D01*
X77700414Y-36655828D01*
X77653242Y-36655828D01*
X77558900Y-36608657D01*
X77511728Y-36514314D01*
X77511728Y-36372800D01*
X77558900Y-36278457D01*
X78124957Y-35853914D02*
X78172128Y-35759571D01*
X78172128Y-35570885D01*
X78124957Y-35476542D01*
X78030614Y-35429371D01*
X77983442Y-35429371D01*
X77889100Y-35476542D01*
X77841928Y-35570885D01*
X77841928Y-35712400D01*
X77794757Y-35806742D01*
X77700414Y-35853914D01*
X77653242Y-35853914D01*
X77558900Y-35806742D01*
X77511728Y-35712400D01*
X77511728Y-35570885D01*
X77558900Y-35476542D01*
X77181528Y-33589685D02*
X77181528Y-32929285D01*
X78172128Y-33353828D01*
X77511728Y-32127371D02*
X78172128Y-32127371D01*
X77134357Y-32363228D02*
X77841928Y-32599085D01*
X77841928Y-31985857D01*
X78172128Y-31136771D02*
X78172128Y-31608485D01*
X77181528Y-31608485D01*
X78124957Y-30853742D02*
X78172128Y-30712228D01*
X78172128Y-30476371D01*
X78124957Y-30382028D01*
X78077785Y-30334857D01*
X77983442Y-30287685D01*
X77889100Y-30287685D01*
X77794757Y-30334857D01*
X77747585Y-30382028D01*
X77700414Y-30476371D01*
X77653242Y-30665057D01*
X77606071Y-30759400D01*
X77558900Y-30806571D01*
X77464557Y-30853742D01*
X77370214Y-30853742D01*
X77275871Y-30806571D01*
X77228700Y-30759400D01*
X77181528Y-30665057D01*
X77181528Y-30429200D01*
X77228700Y-30287685D01*
X77181528Y-29957485D02*
X77181528Y-29344257D01*
X77558900Y-29674457D01*
X77558900Y-29532942D01*
X77606071Y-29438600D01*
X77653242Y-29391428D01*
X77747585Y-29344257D01*
X77983442Y-29344257D01*
X78077785Y-29391428D01*
X78124957Y-29438600D01*
X78172128Y-29532942D01*
X78172128Y-29815971D01*
X78124957Y-29910314D01*
X78077785Y-29957485D01*
X77181528Y-29014057D02*
X77181528Y-28353657D01*
X78172128Y-28778200D01*
X77511728Y-27551742D02*
X78172128Y-27551742D01*
X77134357Y-27787600D02*
X77841928Y-28023457D01*
X77841928Y-27410228D01*
X65599128Y-48321685D02*
X65599128Y-48793400D01*
X64608528Y-48793400D01*
X65599128Y-47849971D02*
X65551957Y-47944314D01*
X65504785Y-47991485D01*
X65410442Y-48038657D01*
X65127414Y-48038657D01*
X65033071Y-47991485D01*
X64985900Y-47944314D01*
X64938728Y-47849971D01*
X64938728Y-47708457D01*
X64985900Y-47614114D01*
X65033071Y-47566942D01*
X65127414Y-47519771D01*
X65410442Y-47519771D01*
X65504785Y-47566942D01*
X65551957Y-47614114D01*
X65599128Y-47708457D01*
X65599128Y-47849971D01*
X64938728Y-47189571D02*
X65599128Y-47000885D01*
X65127414Y-46812200D01*
X65599128Y-46623514D01*
X64938728Y-46434828D01*
X65599128Y-45302714D02*
X64608528Y-45302714D01*
X64608528Y-45066857D01*
X64655700Y-44925342D01*
X64750042Y-44831000D01*
X64844385Y-44783828D01*
X65033071Y-44736657D01*
X65174585Y-44736657D01*
X65363271Y-44783828D01*
X65457614Y-44831000D01*
X65551957Y-44925342D01*
X65599128Y-45066857D01*
X65599128Y-45302714D01*
X65599128Y-44312114D02*
X64938728Y-44312114D01*
X65127414Y-44312114D02*
X65033071Y-44264942D01*
X64985900Y-44217771D01*
X64938728Y-44123428D01*
X64938728Y-44029085D01*
X65599128Y-43698885D02*
X64938728Y-43698885D01*
X64608528Y-43698885D02*
X64655700Y-43746057D01*
X64702871Y-43698885D01*
X64655700Y-43651714D01*
X64608528Y-43698885D01*
X64702871Y-43698885D01*
X64938728Y-43321514D02*
X65599128Y-43085657D01*
X64938728Y-42849800D01*
X65551957Y-42095057D02*
X65599128Y-42189400D01*
X65599128Y-42378085D01*
X65551957Y-42472428D01*
X65457614Y-42519600D01*
X65080242Y-42519600D01*
X64985900Y-42472428D01*
X64938728Y-42378085D01*
X64938728Y-42189400D01*
X64985900Y-42095057D01*
X65080242Y-42047885D01*
X65174585Y-42047885D01*
X65268928Y-42519600D01*
X65316100Y-40915771D02*
X65316100Y-40444057D01*
X65599128Y-41010114D02*
X64608528Y-40679914D01*
X65599128Y-40349714D01*
X65599128Y-39594971D02*
X64608528Y-39594971D01*
X65551957Y-39594971D02*
X65599128Y-39689314D01*
X65599128Y-39878000D01*
X65551957Y-39972342D01*
X65504785Y-40019514D01*
X65410442Y-40066685D01*
X65127414Y-40066685D01*
X65033071Y-40019514D01*
X64985900Y-39972342D01*
X64938728Y-39878000D01*
X64938728Y-39689314D01*
X64985900Y-39594971D01*
X65599128Y-38698714D02*
X64608528Y-38698714D01*
X65551957Y-38698714D02*
X65599128Y-38793057D01*
X65599128Y-38981742D01*
X65551957Y-39076085D01*
X65504785Y-39123257D01*
X65410442Y-39170428D01*
X65127414Y-39170428D01*
X65033071Y-39123257D01*
X64985900Y-39076085D01*
X64938728Y-38981742D01*
X64938728Y-38793057D01*
X64985900Y-38698714D01*
X65599128Y-38227000D02*
X64938728Y-38227000D01*
X65127414Y-38227000D02*
X65033071Y-38179828D01*
X64985900Y-38132657D01*
X64938728Y-38038314D01*
X64938728Y-37943971D01*
X65551957Y-37236400D02*
X65599128Y-37330742D01*
X65599128Y-37519428D01*
X65551957Y-37613771D01*
X65457614Y-37660942D01*
X65080242Y-37660942D01*
X64985900Y-37613771D01*
X64938728Y-37519428D01*
X64938728Y-37330742D01*
X64985900Y-37236400D01*
X65080242Y-37189228D01*
X65174585Y-37189228D01*
X65268928Y-37660942D01*
X65551957Y-36811857D02*
X65599128Y-36717514D01*
X65599128Y-36528828D01*
X65551957Y-36434485D01*
X65457614Y-36387314D01*
X65410442Y-36387314D01*
X65316100Y-36434485D01*
X65268928Y-36528828D01*
X65268928Y-36670342D01*
X65221757Y-36764685D01*
X65127414Y-36811857D01*
X65080242Y-36811857D01*
X64985900Y-36764685D01*
X64938728Y-36670342D01*
X64938728Y-36528828D01*
X64985900Y-36434485D01*
X65551957Y-36009942D02*
X65599128Y-35915600D01*
X65599128Y-35726914D01*
X65551957Y-35632571D01*
X65457614Y-35585400D01*
X65410442Y-35585400D01*
X65316100Y-35632571D01*
X65268928Y-35726914D01*
X65268928Y-35868428D01*
X65221757Y-35962771D01*
X65127414Y-36009942D01*
X65080242Y-36009942D01*
X64985900Y-35962771D01*
X64938728Y-35868428D01*
X64938728Y-35726914D01*
X64985900Y-35632571D01*
X64608528Y-33745714D02*
X64608528Y-33085314D01*
X65599128Y-33509857D01*
X64938728Y-32283400D02*
X65599128Y-32283400D01*
X64561357Y-32519257D02*
X65268928Y-32755114D01*
X65268928Y-32141885D01*
X65599128Y-31292800D02*
X65599128Y-31764514D01*
X64608528Y-31764514D01*
X65551957Y-31009771D02*
X65599128Y-30868257D01*
X65599128Y-30632400D01*
X65551957Y-30538057D01*
X65504785Y-30490885D01*
X65410442Y-30443714D01*
X65316100Y-30443714D01*
X65221757Y-30490885D01*
X65174585Y-30538057D01*
X65127414Y-30632400D01*
X65080242Y-30821085D01*
X65033071Y-30915428D01*
X64985900Y-30962600D01*
X64891557Y-31009771D01*
X64797214Y-31009771D01*
X64702871Y-30962600D01*
X64655700Y-30915428D01*
X64608528Y-30821085D01*
X64608528Y-30585228D01*
X64655700Y-30443714D01*
X64608528Y-30113514D02*
X64608528Y-29500285D01*
X64985900Y-29830485D01*
X64985900Y-29688971D01*
X65033071Y-29594628D01*
X65080242Y-29547457D01*
X65174585Y-29500285D01*
X65410442Y-29500285D01*
X65504785Y-29547457D01*
X65551957Y-29594628D01*
X65599128Y-29688971D01*
X65599128Y-29972000D01*
X65551957Y-30066342D01*
X65504785Y-30113514D01*
X64608528Y-29170085D02*
X64608528Y-28509685D01*
X65599128Y-28934228D01*
X64938728Y-27707771D02*
X65599128Y-27707771D01*
X64561357Y-27943628D02*
X65268928Y-28179485D01*
X65268928Y-27566257D01*
X65673514Y-59122128D02*
X65673514Y-58131528D01*
X65909371Y-58131528D01*
X66050885Y-58178700D01*
X66145228Y-58273042D01*
X66192400Y-58367385D01*
X66239571Y-58556071D01*
X66239571Y-58697585D01*
X66192400Y-58886271D01*
X66145228Y-58980614D01*
X66050885Y-59074957D01*
X65909371Y-59122128D01*
X65673514Y-59122128D01*
X67088657Y-59122128D02*
X67088657Y-58603242D01*
X67041485Y-58508900D01*
X66947142Y-58461728D01*
X66758457Y-58461728D01*
X66664114Y-58508900D01*
X67088657Y-59074957D02*
X66994314Y-59122128D01*
X66758457Y-59122128D01*
X66664114Y-59074957D01*
X66616942Y-58980614D01*
X66616942Y-58886271D01*
X66664114Y-58791928D01*
X66758457Y-58744757D01*
X66994314Y-58744757D01*
X67088657Y-58697585D01*
X67418857Y-58461728D02*
X67796228Y-58461728D01*
X67560371Y-58131528D02*
X67560371Y-58980614D01*
X67607542Y-59074957D01*
X67701885Y-59122128D01*
X67796228Y-59122128D01*
X68550971Y-59122128D02*
X68550971Y-58603242D01*
X68503800Y-58508900D01*
X68409457Y-58461728D01*
X68220771Y-58461728D01*
X68126428Y-58508900D01*
X68550971Y-59074957D02*
X68456628Y-59122128D01*
X68220771Y-59122128D01*
X68126428Y-59074957D01*
X68079257Y-58980614D01*
X68079257Y-58886271D01*
X68126428Y-58791928D01*
X68220771Y-58744757D01*
X68456628Y-58744757D01*
X68550971Y-58697585D01*
X70107628Y-58603242D02*
X70249142Y-58650414D01*
X70296314Y-58697585D01*
X70343485Y-58791928D01*
X70343485Y-58933442D01*
X70296314Y-59027785D01*
X70249142Y-59074957D01*
X70154800Y-59122128D01*
X69777428Y-59122128D01*
X69777428Y-58131528D01*
X70107628Y-58131528D01*
X70201971Y-58178700D01*
X70249142Y-58225871D01*
X70296314Y-58320214D01*
X70296314Y-58414557D01*
X70249142Y-58508900D01*
X70201971Y-58556071D01*
X70107628Y-58603242D01*
X69777428Y-58603242D01*
X71192571Y-58461728D02*
X71192571Y-59122128D01*
X70768028Y-58461728D02*
X70768028Y-58980614D01*
X70815200Y-59074957D01*
X70909542Y-59122128D01*
X71051057Y-59122128D01*
X71145400Y-59074957D01*
X71192571Y-59027785D01*
X71617114Y-59074957D02*
X71711457Y-59122128D01*
X71900142Y-59122128D01*
X71994485Y-59074957D01*
X72041657Y-58980614D01*
X72041657Y-58933442D01*
X71994485Y-58839100D01*
X71900142Y-58791928D01*
X71758628Y-58791928D01*
X71664285Y-58744757D01*
X71617114Y-58650414D01*
X71617114Y-58603242D01*
X71664285Y-58508900D01*
X71758628Y-58461728D01*
X71900142Y-58461728D01*
X71994485Y-58508900D01*
X73551142Y-58603242D02*
X73692657Y-58650414D01*
X73739828Y-58697585D01*
X73787000Y-58791928D01*
X73787000Y-58933442D01*
X73739828Y-59027785D01*
X73692657Y-59074957D01*
X73598314Y-59122128D01*
X73220942Y-59122128D01*
X73220942Y-58131528D01*
X73551142Y-58131528D01*
X73645485Y-58178700D01*
X73692657Y-58225871D01*
X73739828Y-58320214D01*
X73739828Y-58414557D01*
X73692657Y-58508900D01*
X73645485Y-58556071D01*
X73551142Y-58603242D01*
X73220942Y-58603242D01*
X74636085Y-58461728D02*
X74636085Y-59122128D01*
X74211542Y-58461728D02*
X74211542Y-58980614D01*
X74258714Y-59074957D01*
X74353057Y-59122128D01*
X74494571Y-59122128D01*
X74588914Y-59074957D01*
X74636085Y-59027785D01*
X74966285Y-58461728D02*
X75343657Y-58461728D01*
X75107800Y-59122128D02*
X75107800Y-58273042D01*
X75154971Y-58178700D01*
X75249314Y-58131528D01*
X75343657Y-58131528D01*
X75532342Y-58461728D02*
X75909714Y-58461728D01*
X75673857Y-59122128D02*
X75673857Y-58273042D01*
X75721028Y-58178700D01*
X75815371Y-58131528D01*
X75909714Y-58131528D01*
X76617285Y-59074957D02*
X76522942Y-59122128D01*
X76334257Y-59122128D01*
X76239914Y-59074957D01*
X76192742Y-58980614D01*
X76192742Y-58603242D01*
X76239914Y-58508900D01*
X76334257Y-58461728D01*
X76522942Y-58461728D01*
X76617285Y-58508900D01*
X76664457Y-58603242D01*
X76664457Y-58697585D01*
X76192742Y-58791928D01*
X77089000Y-59122128D02*
X77089000Y-58461728D01*
X77089000Y-58650414D02*
X77136171Y-58556071D01*
X77183342Y-58508900D01*
X77277685Y-58461728D01*
X77372028Y-58461728D01*
X79117371Y-58131528D02*
X79777771Y-58131528D01*
X79353228Y-59122128D01*
X80579685Y-58461728D02*
X80579685Y-59122128D01*
X80343828Y-58084357D02*
X80107971Y-58791928D01*
X80721200Y-58791928D01*
X81570285Y-59122128D02*
X81098571Y-59122128D01*
X81098571Y-58131528D01*
X81853314Y-59074957D02*
X81994828Y-59122128D01*
X82230685Y-59122128D01*
X82325028Y-59074957D01*
X82372200Y-59027785D01*
X82419371Y-58933442D01*
X82419371Y-58839100D01*
X82372200Y-58744757D01*
X82325028Y-58697585D01*
X82230685Y-58650414D01*
X82042000Y-58603242D01*
X81947657Y-58556071D01*
X81900485Y-58508900D01*
X81853314Y-58414557D01*
X81853314Y-58320214D01*
X81900485Y-58225871D01*
X81947657Y-58178700D01*
X82042000Y-58131528D01*
X82277857Y-58131528D01*
X82419371Y-58178700D01*
X82796742Y-58225871D02*
X82843914Y-58178700D01*
X82938257Y-58131528D01*
X83174114Y-58131528D01*
X83268457Y-58178700D01*
X83315628Y-58225871D01*
X83362800Y-58320214D01*
X83362800Y-58414557D01*
X83315628Y-58556071D01*
X82749571Y-59122128D01*
X83362800Y-59122128D01*
X84211885Y-58461728D02*
X84211885Y-59122128D01*
X83976028Y-58084357D02*
X83740171Y-58791928D01*
X84353400Y-58791928D01*
X85202485Y-58131528D02*
X84730771Y-58131528D01*
X84683600Y-58603242D01*
X84730771Y-58556071D01*
X84825114Y-58508900D01*
X85060971Y-58508900D01*
X85155314Y-58556071D01*
X85202485Y-58603242D01*
X85249657Y-58697585D01*
X85249657Y-58933442D01*
X85202485Y-59027785D01*
X85155314Y-59074957D01*
X85060971Y-59122128D01*
X84825114Y-59122128D01*
X84730771Y-59074957D01*
X84683600Y-59027785D01*
D11*
G04 #@! TO.C,EPROM1*
X50953180Y-23727100D02*
X45493180Y-23727100D01*
X50953180Y-64487100D02*
X50953180Y-23727100D01*
X38033180Y-64487100D02*
X50953180Y-64487100D01*
X38033180Y-23727100D02*
X38033180Y-64487100D01*
X43493180Y-23727100D02*
X38033180Y-23727100D01*
X45493180Y-23727100D02*
G75*
G02X43493180Y-23727100I-1000000J0D01*
G01*
D12*
G04 #@! TO.C,J1*
X118607840Y-74236580D02*
X118607840Y-69156580D01*
X118607840Y-69156580D02*
X119242840Y-69156580D01*
X53837840Y-74236580D02*
X53837840Y-69156580D01*
X53837840Y-69156580D02*
X53202840Y-69156580D01*
D11*
G04 #@! TO.C,HiAddrLatch1*
X80236840Y-25154580D02*
X78586840Y-25154580D01*
X80236840Y-50674580D02*
X80236840Y-25154580D01*
X74936840Y-50674580D02*
X80236840Y-50674580D01*
X74936840Y-25154580D02*
X74936840Y-50674580D01*
X76586840Y-25154580D02*
X74936840Y-25154580D01*
X78586840Y-25154580D02*
G75*
G02X76586840Y-25154580I-1000000J0D01*
G01*
G04 #@! TO.C,DataBuffer1*
X62413840Y-56092580D02*
X62413840Y-57742580D01*
X87933840Y-56092580D02*
X62413840Y-56092580D01*
X87933840Y-61392580D02*
X87933840Y-56092580D01*
X62413840Y-61392580D02*
X87933840Y-61392580D01*
X62413840Y-59742580D02*
X62413840Y-61392580D01*
X62413840Y-57742580D02*
G75*
G02X62413840Y-59742580I0J-1000000D01*
G01*
G04 #@! TO.C,HiAddrBuffer1*
X104366840Y-25154580D02*
X102716840Y-25154580D01*
X104366840Y-50674580D02*
X104366840Y-25154580D01*
X99066840Y-50674580D02*
X104366840Y-50674580D01*
X99066840Y-25154580D02*
X99066840Y-50674580D01*
X100716840Y-25154580D02*
X99066840Y-25154580D01*
X102716840Y-25154580D02*
G75*
G02X100716840Y-25154580I-1000000J0D01*
G01*
G04 #@! TO.C,LowAddrBuffer1*
X90651840Y-25154580D02*
G75*
G02X88651840Y-25154580I-1000000J0D01*
G01*
X88651840Y-25154580D02*
X87001840Y-25154580D01*
X87001840Y-25154580D02*
X87001840Y-50674580D01*
X87001840Y-50674580D02*
X92301840Y-50674580D01*
X92301840Y-50674580D02*
X92301840Y-25154580D01*
X92301840Y-25154580D02*
X90651840Y-25154580D01*
G04 #@! TO.C,LowAddrLatch1*
X66013840Y-25154580D02*
G75*
G02X64013840Y-25154580I-1000000J0D01*
G01*
X64013840Y-25154580D02*
X62363840Y-25154580D01*
X62363840Y-25154580D02*
X62363840Y-50674580D01*
X62363840Y-50674580D02*
X67663840Y-50674580D01*
X67663840Y-50674580D02*
X67663840Y-25154580D01*
X67663840Y-25154580D02*
X66013840Y-25154580D01*
G04 #@! TO.C,U1*
X94290840Y-55965580D02*
X94290840Y-57615580D01*
X112190840Y-55965580D02*
X94290840Y-55965580D01*
X112190840Y-61265580D02*
X112190840Y-55965580D01*
X94290840Y-61265580D02*
X112190840Y-61265580D01*
X94290840Y-59615580D02*
X94290840Y-61265580D01*
X94290840Y-57615580D02*
G75*
G02X94290840Y-59615580I0J-1000000D01*
G01*
G04 #@! TO.C,U2*
X114146840Y-30488580D02*
G75*
G02X112146840Y-30488580I-1000000J0D01*
G01*
X112146840Y-30488580D02*
X110496840Y-30488580D01*
X110496840Y-30488580D02*
X110496840Y-48388580D01*
X110496840Y-48388580D02*
X115796840Y-48388580D01*
X115796840Y-48388580D02*
X115796840Y-30488580D01*
X115796840Y-30488580D02*
X114146840Y-30488580D01*
G04 #@! TO.C,C1*
X60607840Y-56888580D02*
X60672840Y-56888580D01*
X58432840Y-56888580D02*
X58497840Y-56888580D01*
X60607840Y-60128580D02*
X60672840Y-60128580D01*
X58432840Y-60128580D02*
X58497840Y-60128580D01*
X60672840Y-60128580D02*
X60672840Y-56888580D01*
X58432840Y-60128580D02*
X58432840Y-56888580D01*
G04 #@! TO.C,C2*
X112915840Y-60128580D02*
X112915840Y-56888580D01*
X115155840Y-60128580D02*
X115155840Y-56888580D01*
X112915840Y-60128580D02*
X112980840Y-60128580D01*
X115090840Y-60128580D02*
X115155840Y-60128580D01*
X112915840Y-56888580D02*
X112980840Y-56888580D01*
X115090840Y-56888580D02*
X115155840Y-56888580D01*
G04 #@! TO.C,C3*
X90833840Y-57142580D02*
X90898840Y-57142580D01*
X88658840Y-57142580D02*
X88723840Y-57142580D01*
X90833840Y-60382580D02*
X90898840Y-60382580D01*
X88658840Y-60382580D02*
X88723840Y-60382580D01*
X90898840Y-60382580D02*
X90898840Y-57142580D01*
X88658840Y-60382580D02*
X88658840Y-57142580D01*
G04 #@! TO.C,C4*
X100203840Y-51145580D02*
X103443840Y-51145580D01*
X100203840Y-53385580D02*
X103443840Y-53385580D01*
X100203840Y-51145580D02*
X100203840Y-51210580D01*
X100203840Y-53320580D02*
X100203840Y-53385580D01*
X103443840Y-51145580D02*
X103443840Y-51210580D01*
X103443840Y-53320580D02*
X103443840Y-53385580D01*
G04 #@! TO.C,C5*
X88138840Y-51272580D02*
X91378840Y-51272580D01*
X88138840Y-53512580D02*
X91378840Y-53512580D01*
X88138840Y-51272580D02*
X88138840Y-51337580D01*
X88138840Y-53447580D02*
X88138840Y-53512580D01*
X91378840Y-51272580D02*
X91378840Y-51337580D01*
X91378840Y-53447580D02*
X91378840Y-53512580D01*
G04 #@! TO.C,C6*
X79313840Y-53574580D02*
X79313840Y-53639580D01*
X79313840Y-51399580D02*
X79313840Y-51464580D01*
X76073840Y-53574580D02*
X76073840Y-53639580D01*
X76073840Y-51399580D02*
X76073840Y-51464580D01*
X76073840Y-53639580D02*
X79313840Y-53639580D01*
X76073840Y-51399580D02*
X79313840Y-51399580D01*
G04 #@! TO.C,C7*
X63373840Y-51272580D02*
X66613840Y-51272580D01*
X63373840Y-53512580D02*
X66613840Y-53512580D01*
X63373840Y-51272580D02*
X63373840Y-51337580D01*
X63373840Y-53447580D02*
X63373840Y-53512580D01*
X66613840Y-51272580D02*
X66613840Y-51337580D01*
X66613840Y-53447580D02*
X66613840Y-53512580D01*
G04 #@! TO.C,C8*
X114873840Y-51161580D02*
X114873840Y-51226580D01*
X114873840Y-48986580D02*
X114873840Y-49051580D01*
X111633840Y-51161580D02*
X111633840Y-51226580D01*
X111633840Y-48986580D02*
X111633840Y-49051580D01*
X111633840Y-51226580D02*
X114873840Y-51226580D01*
X111633840Y-48986580D02*
X114873840Y-48986580D01*
G04 #@! TD*
M02*
