G04 #@! TF.GenerationSoftware,KiCad,Pcbnew,(6.0.2-0)*
G04 #@! TF.CreationDate,2022-03-19T10:19:41-04:00*
G04 #@! TF.ProjectId,ProDOS ROM-Drive,50726f44-4f53-4205-924f-4d2d44726976,4.0*
G04 #@! TF.SameCoordinates,Original*
G04 #@! TF.FileFunction,Copper,L2,Bot*
G04 #@! TF.FilePolarity,Positive*
%FSLAX46Y46*%
G04 Gerber Fmt 4.6, Leading zero omitted, Abs format (unit mm)*
G04 Created by KiCad (PCBNEW (6.0.2-0)) date 2022-03-19 10:19:41*
%MOMM*%
%LPD*%
G01*
G04 APERTURE LIST*
%ADD10C,0.149860*%
G04 #@! TA.AperFunction,NonConductor*
%ADD11C,0.149860*%
G04 #@! TD*
G04 #@! TA.AperFunction,ComponentPad*
%ADD12R,1.600000X1.600000*%
G04 #@! TD*
G04 #@! TA.AperFunction,ComponentPad*
%ADD13O,1.600000X1.600000*%
G04 #@! TD*
G04 #@! TA.AperFunction,ComponentPad*
%ADD14C,1.600000*%
G04 #@! TD*
G04 #@! TA.AperFunction,ViaPad*
%ADD15C,1.270000*%
G04 #@! TD*
G04 #@! TA.AperFunction,ViaPad*
%ADD16C,0.762000*%
G04 #@! TD*
G04 #@! TA.AperFunction,Conductor*
%ADD17C,0.812800*%
G04 #@! TD*
G04 #@! TA.AperFunction,Conductor*
%ADD18C,0.177800*%
G04 #@! TD*
G04 APERTURE END LIST*
D10*
D11*
X42622796Y-27765266D02*
X41632196Y-27765266D01*
X41632196Y-28142637D01*
X41679368Y-28236980D01*
X41726539Y-28284151D01*
X41820882Y-28331323D01*
X41962396Y-28331323D01*
X42056739Y-28284151D01*
X42103910Y-28236980D01*
X42151082Y-28142637D01*
X42151082Y-27765266D01*
X42622796Y-28755866D02*
X41962396Y-28755866D01*
X42151082Y-28755866D02*
X42056739Y-28803037D01*
X42009568Y-28850209D01*
X41962396Y-28944551D01*
X41962396Y-29038894D01*
X42622796Y-29510609D02*
X42575625Y-29416266D01*
X42528453Y-29369094D01*
X42434110Y-29321923D01*
X42151082Y-29321923D01*
X42056739Y-29369094D01*
X42009568Y-29416266D01*
X41962396Y-29510609D01*
X41962396Y-29652123D01*
X42009568Y-29746466D01*
X42056739Y-29793637D01*
X42151082Y-29840809D01*
X42434110Y-29840809D01*
X42528453Y-29793637D01*
X42575625Y-29746466D01*
X42622796Y-29652123D01*
X42622796Y-29510609D01*
X42622796Y-30265351D02*
X41632196Y-30265351D01*
X41632196Y-30501209D01*
X41679368Y-30642723D01*
X41773710Y-30737066D01*
X41868053Y-30784237D01*
X42056739Y-30831409D01*
X42198253Y-30831409D01*
X42386939Y-30784237D01*
X42481282Y-30737066D01*
X42575625Y-30642723D01*
X42622796Y-30501209D01*
X42622796Y-30265351D01*
X41632196Y-31444637D02*
X41632196Y-31633323D01*
X41679368Y-31727666D01*
X41773710Y-31822009D01*
X41962396Y-31869180D01*
X42292596Y-31869180D01*
X42481282Y-31822009D01*
X42575625Y-31727666D01*
X42622796Y-31633323D01*
X42622796Y-31444637D01*
X42575625Y-31350294D01*
X42481282Y-31255951D01*
X42292596Y-31208780D01*
X41962396Y-31208780D01*
X41773710Y-31255951D01*
X41679368Y-31350294D01*
X41632196Y-31444637D01*
X42575625Y-32246551D02*
X42622796Y-32388066D01*
X42622796Y-32623923D01*
X42575625Y-32718266D01*
X42528453Y-32765437D01*
X42434110Y-32812609D01*
X42339768Y-32812609D01*
X42245425Y-32765437D01*
X42198253Y-32718266D01*
X42151082Y-32623923D01*
X42103910Y-32435237D01*
X42056739Y-32340894D01*
X42009568Y-32293723D01*
X41915225Y-32246551D01*
X41820882Y-32246551D01*
X41726539Y-32293723D01*
X41679368Y-32340894D01*
X41632196Y-32435237D01*
X41632196Y-32671094D01*
X41679368Y-32812609D01*
X42622796Y-34557951D02*
X42151082Y-34227751D01*
X42622796Y-33991894D02*
X41632196Y-33991894D01*
X41632196Y-34369266D01*
X41679368Y-34463609D01*
X41726539Y-34510780D01*
X41820882Y-34557951D01*
X41962396Y-34557951D01*
X42056739Y-34510780D01*
X42103910Y-34463609D01*
X42151082Y-34369266D01*
X42151082Y-33991894D01*
X41632196Y-35171180D02*
X41632196Y-35359866D01*
X41679368Y-35454209D01*
X41773710Y-35548551D01*
X41962396Y-35595723D01*
X42292596Y-35595723D01*
X42481282Y-35548551D01*
X42575625Y-35454209D01*
X42622796Y-35359866D01*
X42622796Y-35171180D01*
X42575625Y-35076837D01*
X42481282Y-34982494D01*
X42292596Y-34935323D01*
X41962396Y-34935323D01*
X41773710Y-34982494D01*
X41679368Y-35076837D01*
X41632196Y-35171180D01*
X42622796Y-36020266D02*
X41632196Y-36020266D01*
X42339768Y-36350466D01*
X41632196Y-36680666D01*
X42622796Y-36680666D01*
X42245425Y-37152380D02*
X42245425Y-37907123D01*
X42622796Y-38378837D02*
X41632196Y-38378837D01*
X41632196Y-38614694D01*
X41679368Y-38756209D01*
X41773710Y-38850551D01*
X41868053Y-38897723D01*
X42056739Y-38944894D01*
X42198253Y-38944894D01*
X42386939Y-38897723D01*
X42481282Y-38850551D01*
X42575625Y-38756209D01*
X42622796Y-38614694D01*
X42622796Y-38378837D01*
X42622796Y-39369437D02*
X41962396Y-39369437D01*
X42151082Y-39369437D02*
X42056739Y-39416609D01*
X42009568Y-39463780D01*
X41962396Y-39558123D01*
X41962396Y-39652466D01*
X42622796Y-39982666D02*
X41962396Y-39982666D01*
X41632196Y-39982666D02*
X41679368Y-39935494D01*
X41726539Y-39982666D01*
X41679368Y-40029837D01*
X41632196Y-39982666D01*
X41726539Y-39982666D01*
X41962396Y-40360037D02*
X42622796Y-40595894D01*
X41962396Y-40831751D01*
X42575625Y-41586494D02*
X42622796Y-41492151D01*
X42622796Y-41303466D01*
X42575625Y-41209123D01*
X42481282Y-41161951D01*
X42103910Y-41161951D01*
X42009568Y-41209123D01*
X41962396Y-41303466D01*
X41962396Y-41492151D01*
X42009568Y-41586494D01*
X42103910Y-41633666D01*
X42198253Y-41633666D01*
X42292596Y-41161951D01*
X41962396Y-42718609D02*
X42622796Y-42954466D01*
X41962396Y-43190323D01*
X41962396Y-43992237D02*
X42622796Y-43992237D01*
X41585025Y-43756380D02*
X42292596Y-43520523D01*
X42292596Y-44133751D01*
X42528453Y-44511123D02*
X42575625Y-44558294D01*
X42622796Y-44511123D01*
X42575625Y-44463951D01*
X42528453Y-44511123D01*
X42622796Y-44511123D01*
X41632196Y-45171523D02*
X41632196Y-45265866D01*
X41679368Y-45360209D01*
X41726539Y-45407380D01*
X41820882Y-45454551D01*
X42009568Y-45501723D01*
X42245425Y-45501723D01*
X42434110Y-45454551D01*
X42528453Y-45407380D01*
X42575625Y-45360209D01*
X42622796Y-45265866D01*
X42622796Y-45171523D01*
X42575625Y-45077180D01*
X42528453Y-45030009D01*
X42434110Y-44982837D01*
X42245425Y-44935666D01*
X42009568Y-44935666D01*
X41820882Y-44982837D01*
X41726539Y-45030009D01*
X41679368Y-45077180D01*
X41632196Y-45171523D01*
X43698776Y-28095466D02*
X43698776Y-27765266D01*
X44217662Y-27765266D02*
X43227062Y-27765266D01*
X43227062Y-28236980D01*
X44217662Y-28755866D02*
X44170491Y-28661523D01*
X44123319Y-28614351D01*
X44028976Y-28567180D01*
X43745948Y-28567180D01*
X43651605Y-28614351D01*
X43604434Y-28661523D01*
X43557262Y-28755866D01*
X43557262Y-28897380D01*
X43604434Y-28991723D01*
X43651605Y-29038894D01*
X43745948Y-29086066D01*
X44028976Y-29086066D01*
X44123319Y-29038894D01*
X44170491Y-28991723D01*
X44217662Y-28897380D01*
X44217662Y-28755866D01*
X44217662Y-29510609D02*
X43557262Y-29510609D01*
X43745948Y-29510609D02*
X43651605Y-29557780D01*
X43604434Y-29604951D01*
X43557262Y-29699294D01*
X43557262Y-29793637D01*
X43934634Y-30831409D02*
X43934634Y-31303123D01*
X44217662Y-30737066D02*
X43227062Y-31067266D01*
X44217662Y-31397466D01*
X43557262Y-31727666D02*
X44547862Y-31727666D01*
X43604434Y-31727666D02*
X43557262Y-31822009D01*
X43557262Y-32010694D01*
X43604434Y-32105037D01*
X43651605Y-32152209D01*
X43745948Y-32199380D01*
X44028976Y-32199380D01*
X44123319Y-32152209D01*
X44170491Y-32105037D01*
X44217662Y-32010694D01*
X44217662Y-31822009D01*
X44170491Y-31727666D01*
X43557262Y-32623923D02*
X44547862Y-32623923D01*
X43604434Y-32623923D02*
X43557262Y-32718266D01*
X43557262Y-32906951D01*
X43604434Y-33001294D01*
X43651605Y-33048466D01*
X43745948Y-33095637D01*
X44028976Y-33095637D01*
X44123319Y-33048466D01*
X44170491Y-33001294D01*
X44217662Y-32906951D01*
X44217662Y-32718266D01*
X44170491Y-32623923D01*
X44217662Y-33661694D02*
X44170491Y-33567351D01*
X44076148Y-33520180D01*
X43227062Y-33520180D01*
X44170491Y-34416437D02*
X44217662Y-34322094D01*
X44217662Y-34133408D01*
X44170491Y-34039066D01*
X44076148Y-33991894D01*
X43698776Y-33991894D01*
X43604434Y-34039066D01*
X43557262Y-34133408D01*
X43557262Y-34322094D01*
X43604434Y-34416437D01*
X43698776Y-34463608D01*
X43793119Y-34463608D01*
X43887462Y-33991894D01*
X44547862Y-35548551D02*
X44547862Y-35784408D01*
X43132719Y-35784408D01*
X43132719Y-35548551D01*
X44547862Y-36586323D02*
X44547862Y-36350466D01*
X43132719Y-36350466D01*
X43132719Y-36586323D01*
X44170491Y-38142980D02*
X44217662Y-38048637D01*
X44217662Y-37859951D01*
X44170491Y-37765608D01*
X44123319Y-37718437D01*
X44028976Y-37671266D01*
X43745948Y-37671266D01*
X43651605Y-37718437D01*
X43604434Y-37765608D01*
X43557262Y-37859951D01*
X43557262Y-38048637D01*
X43604434Y-38142980D01*
X44217662Y-38709037D02*
X44170491Y-38614694D01*
X44123319Y-38567523D01*
X44028976Y-38520351D01*
X43745948Y-38520351D01*
X43651605Y-38567523D01*
X43604434Y-38614694D01*
X43557262Y-38709037D01*
X43557262Y-38850551D01*
X43604434Y-38944894D01*
X43651605Y-38992066D01*
X43745948Y-39039237D01*
X44028976Y-39039237D01*
X44123319Y-38992066D01*
X44170491Y-38944894D01*
X44217662Y-38850551D01*
X44217662Y-38709037D01*
X44217662Y-39463780D02*
X43557262Y-39463780D01*
X43651605Y-39463780D02*
X43604434Y-39510951D01*
X43557262Y-39605294D01*
X43557262Y-39746808D01*
X43604434Y-39841151D01*
X43698776Y-39888323D01*
X44217662Y-39888323D01*
X43698776Y-39888323D02*
X43604434Y-39935494D01*
X43557262Y-40029837D01*
X43557262Y-40171351D01*
X43604434Y-40265694D01*
X43698776Y-40312866D01*
X44217662Y-40312866D01*
X43557262Y-40784580D02*
X44547862Y-40784580D01*
X43604434Y-40784580D02*
X43557262Y-40878923D01*
X43557262Y-41067608D01*
X43604434Y-41161951D01*
X43651605Y-41209123D01*
X43745948Y-41256294D01*
X44028976Y-41256294D01*
X44123319Y-41209123D01*
X44170491Y-41161951D01*
X44217662Y-41067608D01*
X44217662Y-40878923D01*
X44170491Y-40784580D01*
X43557262Y-42105380D02*
X44217662Y-42105380D01*
X43557262Y-41680837D02*
X44076148Y-41680837D01*
X44170491Y-41728008D01*
X44217662Y-41822351D01*
X44217662Y-41963866D01*
X44170491Y-42058208D01*
X44123319Y-42105380D01*
X43557262Y-42435580D02*
X43557262Y-42812951D01*
X43227062Y-42577094D02*
X44076148Y-42577094D01*
X44170491Y-42624266D01*
X44217662Y-42718608D01*
X44217662Y-42812951D01*
X44170491Y-43520523D02*
X44217662Y-43426180D01*
X44217662Y-43237494D01*
X44170491Y-43143151D01*
X44076148Y-43095980D01*
X43698776Y-43095980D01*
X43604434Y-43143151D01*
X43557262Y-43237494D01*
X43557262Y-43426180D01*
X43604434Y-43520523D01*
X43698776Y-43567694D01*
X43793119Y-43567694D01*
X43887462Y-43095980D01*
X44217662Y-43992237D02*
X43557262Y-43992237D01*
X43745948Y-43992237D02*
X43651605Y-44039408D01*
X43604434Y-44086580D01*
X43557262Y-44180923D01*
X43557262Y-44275266D01*
X44170491Y-44558294D02*
X44217662Y-44652637D01*
X44217662Y-44841323D01*
X44170491Y-44935666D01*
X44076148Y-44982837D01*
X44028976Y-44982837D01*
X43934634Y-44935666D01*
X43887462Y-44841323D01*
X43887462Y-44699808D01*
X43840291Y-44605466D01*
X43745948Y-44558294D01*
X43698776Y-44558294D01*
X43604434Y-44605466D01*
X43557262Y-44699808D01*
X43557262Y-44841323D01*
X43604434Y-44935666D01*
X45293642Y-28095466D02*
X45340814Y-28236980D01*
X45387985Y-28284151D01*
X45482328Y-28331323D01*
X45623842Y-28331323D01*
X45718185Y-28284151D01*
X45765357Y-28236980D01*
X45812528Y-28142637D01*
X45812528Y-27765266D01*
X44821928Y-27765266D01*
X44821928Y-28095466D01*
X44869100Y-28189809D01*
X44916271Y-28236980D01*
X45010614Y-28284151D01*
X45104957Y-28284151D01*
X45199300Y-28236980D01*
X45246471Y-28189809D01*
X45293642Y-28095466D01*
X45293642Y-27765266D01*
X45812528Y-28897380D02*
X45765357Y-28803037D01*
X45718185Y-28755866D01*
X45623842Y-28708694D01*
X45340814Y-28708694D01*
X45246471Y-28755866D01*
X45199300Y-28803037D01*
X45152128Y-28897380D01*
X45152128Y-29038894D01*
X45199300Y-29133237D01*
X45246471Y-29180409D01*
X45340814Y-29227580D01*
X45623842Y-29227580D01*
X45718185Y-29180409D01*
X45765357Y-29133237D01*
X45812528Y-29038894D01*
X45812528Y-28897380D01*
X45812528Y-29793637D02*
X45765357Y-29699294D01*
X45718185Y-29652123D01*
X45623842Y-29604951D01*
X45340814Y-29604951D01*
X45246471Y-29652123D01*
X45199300Y-29699294D01*
X45152128Y-29793637D01*
X45152128Y-29935151D01*
X45199300Y-30029494D01*
X45246471Y-30076666D01*
X45340814Y-30123837D01*
X45623842Y-30123837D01*
X45718185Y-30076666D01*
X45765357Y-30029494D01*
X45812528Y-29935151D01*
X45812528Y-29793637D01*
X45152128Y-30406866D02*
X45152128Y-30784237D01*
X44821928Y-30548380D02*
X45671014Y-30548380D01*
X45765357Y-30595551D01*
X45812528Y-30689894D01*
X45812528Y-30784237D01*
X45812528Y-31538980D02*
X45293642Y-31538980D01*
X45199300Y-31491809D01*
X45152128Y-31397466D01*
X45152128Y-31208780D01*
X45199300Y-31114437D01*
X45765357Y-31538980D02*
X45812528Y-31444637D01*
X45812528Y-31208780D01*
X45765357Y-31114437D01*
X45671014Y-31067266D01*
X45576671Y-31067266D01*
X45482328Y-31114437D01*
X45435157Y-31208780D01*
X45435157Y-31444637D01*
X45387985Y-31538980D01*
X45812528Y-32010694D02*
X44821928Y-32010694D01*
X45199300Y-32010694D02*
X45152128Y-32105037D01*
X45152128Y-32293723D01*
X45199300Y-32388066D01*
X45246471Y-32435237D01*
X45340814Y-32482409D01*
X45623842Y-32482409D01*
X45718185Y-32435237D01*
X45765357Y-32388066D01*
X45812528Y-32293723D01*
X45812528Y-32105037D01*
X45765357Y-32010694D01*
X45812528Y-33048466D02*
X45765357Y-32954123D01*
X45671014Y-32906951D01*
X44821928Y-32906951D01*
X45765357Y-33803208D02*
X45812528Y-33708866D01*
X45812528Y-33520180D01*
X45765357Y-33425837D01*
X45671014Y-33378666D01*
X45293642Y-33378666D01*
X45199300Y-33425837D01*
X45152128Y-33520180D01*
X45152128Y-33708866D01*
X45199300Y-33803208D01*
X45293642Y-33850380D01*
X45387985Y-33850380D01*
X45482328Y-33378666D01*
X45812528Y-35548551D02*
X45812528Y-34982494D01*
X45812528Y-35265523D02*
X44821928Y-35265523D01*
X44963442Y-35171180D01*
X45057785Y-35076837D01*
X45104957Y-34982494D01*
X45812528Y-36727837D02*
X44821928Y-36727837D01*
X45529500Y-37058037D01*
X44821928Y-37388237D01*
X45812528Y-37388237D01*
X45293642Y-38190151D02*
X45340814Y-38331666D01*
X45387985Y-38378837D01*
X45482328Y-38426009D01*
X45623842Y-38426009D01*
X45718185Y-38378837D01*
X45765357Y-38331666D01*
X45812528Y-38237323D01*
X45812528Y-37859951D01*
X44821928Y-37859951D01*
X44821928Y-38190151D01*
X44869100Y-38284494D01*
X44916271Y-38331666D01*
X45010614Y-38378837D01*
X45104957Y-38378837D01*
X45199300Y-38331666D01*
X45246471Y-38284494D01*
X45293642Y-38190151D01*
X45293642Y-37859951D01*
X45812528Y-39605294D02*
X45152128Y-39605294D01*
X45340814Y-39605294D02*
X45246471Y-39652466D01*
X45199300Y-39699637D01*
X45152128Y-39793980D01*
X45152128Y-39888323D01*
X45765357Y-40595894D02*
X45812528Y-40501551D01*
X45812528Y-40312866D01*
X45765357Y-40218523D01*
X45671014Y-40171351D01*
X45293642Y-40171351D01*
X45199300Y-40218523D01*
X45152128Y-40312866D01*
X45152128Y-40501551D01*
X45199300Y-40595894D01*
X45293642Y-40643066D01*
X45387985Y-40643066D01*
X45482328Y-40171351D01*
X45812528Y-41492151D02*
X45293642Y-41492151D01*
X45199300Y-41444980D01*
X45152128Y-41350637D01*
X45152128Y-41161951D01*
X45199300Y-41067608D01*
X45765357Y-41492151D02*
X45812528Y-41397808D01*
X45812528Y-41161951D01*
X45765357Y-41067608D01*
X45671014Y-41020437D01*
X45576671Y-41020437D01*
X45482328Y-41067608D01*
X45435157Y-41161951D01*
X45435157Y-41397808D01*
X45387985Y-41492151D01*
X45812528Y-42388408D02*
X44821928Y-42388408D01*
X45765357Y-42388408D02*
X45812528Y-42294066D01*
X45812528Y-42105380D01*
X45765357Y-42011037D01*
X45718185Y-41963866D01*
X45623842Y-41916694D01*
X45340814Y-41916694D01*
X45246471Y-41963866D01*
X45199300Y-42011037D01*
X45152128Y-42105380D01*
X45152128Y-42294066D01*
X45199300Y-42388408D01*
X45435157Y-42860123D02*
X45435157Y-43614866D01*
X45812528Y-44228094D02*
X45765357Y-44133751D01*
X45718185Y-44086580D01*
X45623842Y-44039408D01*
X45340814Y-44039408D01*
X45246471Y-44086580D01*
X45199300Y-44133751D01*
X45152128Y-44228094D01*
X45152128Y-44369608D01*
X45199300Y-44463951D01*
X45246471Y-44511123D01*
X45340814Y-44558294D01*
X45623842Y-44558294D01*
X45718185Y-44511123D01*
X45765357Y-44463951D01*
X45812528Y-44369608D01*
X45812528Y-44228094D01*
X45152128Y-44982837D02*
X45812528Y-44982837D01*
X45246471Y-44982837D02*
X45199300Y-45030008D01*
X45152128Y-45124351D01*
X45152128Y-45265866D01*
X45199300Y-45360208D01*
X45293642Y-45407380D01*
X45812528Y-45407380D01*
X45812528Y-46020608D02*
X45765357Y-45926266D01*
X45671014Y-45879094D01*
X44821928Y-45879094D01*
X45152128Y-46303637D02*
X45812528Y-46539494D01*
X45152128Y-46775351D02*
X45812528Y-46539494D01*
X46048385Y-46445151D01*
X46095557Y-46397980D01*
X46142728Y-46303637D01*
X45765357Y-47860294D02*
X45812528Y-47954637D01*
X45812528Y-48143323D01*
X45765357Y-48237666D01*
X45671014Y-48284837D01*
X45623842Y-48284837D01*
X45529500Y-48237666D01*
X45482328Y-48143323D01*
X45482328Y-48001808D01*
X45435157Y-47907466D01*
X45340814Y-47860294D01*
X45293642Y-47860294D01*
X45199300Y-47907466D01*
X45152128Y-48001808D01*
X45152128Y-48143323D01*
X45199300Y-48237666D01*
X45812528Y-48850894D02*
X45765357Y-48756551D01*
X45718185Y-48709380D01*
X45623842Y-48662208D01*
X45340814Y-48662208D01*
X45246471Y-48709380D01*
X45199300Y-48756551D01*
X45152128Y-48850894D01*
X45152128Y-48992408D01*
X45199300Y-49086751D01*
X45246471Y-49133923D01*
X45340814Y-49181094D01*
X45623842Y-49181094D01*
X45718185Y-49133923D01*
X45765357Y-49086751D01*
X45812528Y-48992408D01*
X45812528Y-48850894D01*
X45812528Y-49747151D02*
X45765357Y-49652808D01*
X45671014Y-49605637D01*
X44821928Y-49605637D01*
X45812528Y-50124523D02*
X45152128Y-50124523D01*
X44821928Y-50124523D02*
X44869100Y-50077351D01*
X44916271Y-50124523D01*
X44869100Y-50171694D01*
X44821928Y-50124523D01*
X44916271Y-50124523D01*
X45812528Y-51020780D02*
X44821928Y-51020780D01*
X45765357Y-51020780D02*
X45812528Y-50926437D01*
X45812528Y-50737751D01*
X45765357Y-50643408D01*
X45718185Y-50596237D01*
X45623842Y-50549066D01*
X45340814Y-50549066D01*
X45246471Y-50596237D01*
X45199300Y-50643408D01*
X45152128Y-50737751D01*
X45152128Y-50926437D01*
X45199300Y-51020780D01*
X45765357Y-52200066D02*
X45812528Y-52294408D01*
X45812528Y-52483094D01*
X45765357Y-52577437D01*
X45671014Y-52624608D01*
X45623842Y-52624608D01*
X45529500Y-52577437D01*
X45482328Y-52483094D01*
X45482328Y-52341580D01*
X45435157Y-52247237D01*
X45340814Y-52200066D01*
X45293642Y-52200066D01*
X45199300Y-52247237D01*
X45152128Y-52341580D01*
X45152128Y-52483094D01*
X45199300Y-52577437D01*
X45152128Y-52907637D02*
X45152128Y-53285008D01*
X44821928Y-53049151D02*
X45671014Y-53049151D01*
X45765357Y-53096323D01*
X45812528Y-53190666D01*
X45812528Y-53285008D01*
X45812528Y-54039751D02*
X45293642Y-54039751D01*
X45199300Y-53992580D01*
X45152128Y-53898237D01*
X45152128Y-53709551D01*
X45199300Y-53615208D01*
X45765357Y-54039751D02*
X45812528Y-53945408D01*
X45812528Y-53709551D01*
X45765357Y-53615208D01*
X45671014Y-53568037D01*
X45576671Y-53568037D01*
X45482328Y-53615208D01*
X45435157Y-53709551D01*
X45435157Y-53945408D01*
X45387985Y-54039751D01*
X45152128Y-54369951D02*
X45152128Y-54747323D01*
X44821928Y-54511466D02*
X45671014Y-54511466D01*
X45765357Y-54558637D01*
X45812528Y-54652980D01*
X45812528Y-54747323D01*
X45765357Y-55454894D02*
X45812528Y-55360551D01*
X45812528Y-55171866D01*
X45765357Y-55077523D01*
X45671014Y-55030351D01*
X45293642Y-55030351D01*
X45199300Y-55077523D01*
X45152128Y-55171866D01*
X45152128Y-55360551D01*
X45199300Y-55454894D01*
X45293642Y-55502066D01*
X45387985Y-55502066D01*
X45482328Y-55030351D01*
X45812528Y-57105894D02*
X44821928Y-57105894D01*
X45765357Y-57105894D02*
X45812528Y-57011551D01*
X45812528Y-56822866D01*
X45765357Y-56728523D01*
X45718185Y-56681351D01*
X45623842Y-56634180D01*
X45340814Y-56634180D01*
X45246471Y-56681351D01*
X45199300Y-56728523D01*
X45152128Y-56822866D01*
X45152128Y-57011551D01*
X45199300Y-57105894D01*
X45812528Y-57577608D02*
X45152128Y-57577608D01*
X44821928Y-57577608D02*
X44869100Y-57530437D01*
X44916271Y-57577608D01*
X44869100Y-57624780D01*
X44821928Y-57577608D01*
X44916271Y-57577608D01*
X45765357Y-58002151D02*
X45812528Y-58096494D01*
X45812528Y-58285180D01*
X45765357Y-58379523D01*
X45671014Y-58426694D01*
X45623842Y-58426694D01*
X45529500Y-58379523D01*
X45482328Y-58285180D01*
X45482328Y-58143666D01*
X45435157Y-58049323D01*
X45340814Y-58002151D01*
X45293642Y-58002151D01*
X45199300Y-58049323D01*
X45152128Y-58143666D01*
X45152128Y-58285180D01*
X45199300Y-58379523D01*
X45812528Y-58851237D02*
X44821928Y-58851237D01*
X45435157Y-58945580D02*
X45812528Y-59228608D01*
X45152128Y-59228608D02*
X45529500Y-58851237D01*
X47784766Y-28048294D02*
X47737594Y-28001123D01*
X47596080Y-27906780D01*
X47501737Y-27859609D01*
X47360223Y-27812437D01*
X47124366Y-27765266D01*
X46935680Y-27765266D01*
X46699823Y-27812437D01*
X46558308Y-27859609D01*
X46463966Y-27906780D01*
X46322451Y-28001123D01*
X46275280Y-28048294D01*
X47360223Y-28850209D02*
X47407394Y-28755866D01*
X47407394Y-28567180D01*
X47360223Y-28472837D01*
X47313051Y-28425666D01*
X47218708Y-28378494D01*
X46935680Y-28378494D01*
X46841337Y-28425666D01*
X46794166Y-28472837D01*
X46746994Y-28567180D01*
X46746994Y-28755866D01*
X46794166Y-28850209D01*
X47784766Y-29180409D02*
X47737594Y-29227580D01*
X47596080Y-29321923D01*
X47501737Y-29369094D01*
X47360223Y-29416266D01*
X47124366Y-29463437D01*
X46935680Y-29463437D01*
X46699823Y-29416266D01*
X46558308Y-29369094D01*
X46463966Y-29321923D01*
X46322451Y-29227580D01*
X46275280Y-29180409D01*
X47407394Y-30454037D02*
X47407394Y-29887980D01*
X47407394Y-30171009D02*
X46416794Y-30171009D01*
X46558308Y-30076666D01*
X46652651Y-29982323D01*
X46699823Y-29887980D01*
X47407394Y-30925751D02*
X47407394Y-31114437D01*
X47360223Y-31208780D01*
X47313051Y-31255951D01*
X47171537Y-31350294D01*
X46982851Y-31397466D01*
X46605480Y-31397466D01*
X46511137Y-31350294D01*
X46463966Y-31303123D01*
X46416794Y-31208780D01*
X46416794Y-31020094D01*
X46463966Y-30925751D01*
X46511137Y-30878580D01*
X46605480Y-30831409D01*
X46841337Y-30831409D01*
X46935680Y-30878580D01*
X46982851Y-30925751D01*
X47030023Y-31020094D01*
X47030023Y-31208780D01*
X46982851Y-31303123D01*
X46935680Y-31350294D01*
X46841337Y-31397466D01*
X47407394Y-31869180D02*
X47407394Y-32057866D01*
X47360223Y-32152209D01*
X47313051Y-32199380D01*
X47171537Y-32293723D01*
X46982851Y-32340894D01*
X46605480Y-32340894D01*
X46511137Y-32293723D01*
X46463966Y-32246551D01*
X46416794Y-32152209D01*
X46416794Y-31963523D01*
X46463966Y-31869180D01*
X46511137Y-31822009D01*
X46605480Y-31774837D01*
X46841337Y-31774837D01*
X46935680Y-31822009D01*
X46982851Y-31869180D01*
X47030023Y-31963523D01*
X47030023Y-32152209D01*
X46982851Y-32246551D01*
X46935680Y-32293723D01*
X46841337Y-32340894D01*
X46841337Y-32906951D02*
X46794166Y-32812609D01*
X46746994Y-32765437D01*
X46652651Y-32718266D01*
X46605480Y-32718266D01*
X46511137Y-32765437D01*
X46463966Y-32812609D01*
X46416794Y-32906951D01*
X46416794Y-33095637D01*
X46463966Y-33189980D01*
X46511137Y-33237151D01*
X46605480Y-33284323D01*
X46652651Y-33284323D01*
X46746994Y-33237151D01*
X46794166Y-33189980D01*
X46841337Y-33095637D01*
X46841337Y-32906951D01*
X46888508Y-32812609D01*
X46935680Y-32765437D01*
X47030023Y-32718266D01*
X47218708Y-32718266D01*
X47313051Y-32765437D01*
X47360223Y-32812609D01*
X47407394Y-32906951D01*
X47407394Y-33095637D01*
X47360223Y-33189980D01*
X47313051Y-33237151D01*
X47218708Y-33284323D01*
X47030023Y-33284323D01*
X46935680Y-33237151D01*
X46888508Y-33189980D01*
X46841337Y-33095637D01*
X47030023Y-33708866D02*
X47030023Y-34463609D01*
X46511137Y-34888151D02*
X46463966Y-34935323D01*
X46416794Y-35029666D01*
X46416794Y-35265523D01*
X46463966Y-35359866D01*
X46511137Y-35407037D01*
X46605480Y-35454208D01*
X46699823Y-35454208D01*
X46841337Y-35407037D01*
X47407394Y-34840980D01*
X47407394Y-35454208D01*
X46416794Y-36067437D02*
X46416794Y-36161780D01*
X46463966Y-36256123D01*
X46511137Y-36303294D01*
X46605480Y-36350466D01*
X46794166Y-36397637D01*
X47030023Y-36397637D01*
X47218708Y-36350466D01*
X47313051Y-36303294D01*
X47360223Y-36256123D01*
X47407394Y-36161780D01*
X47407394Y-36067437D01*
X47360223Y-35973094D01*
X47313051Y-35925923D01*
X47218708Y-35878751D01*
X47030023Y-35831580D01*
X46794166Y-35831580D01*
X46605480Y-35878751D01*
X46511137Y-35925923D01*
X46463966Y-35973094D01*
X46416794Y-36067437D01*
X46511137Y-36775008D02*
X46463966Y-36822180D01*
X46416794Y-36916523D01*
X46416794Y-37152380D01*
X46463966Y-37246723D01*
X46511137Y-37293894D01*
X46605480Y-37341066D01*
X46699823Y-37341066D01*
X46841337Y-37293894D01*
X47407394Y-36727837D01*
X47407394Y-37341066D01*
X46511137Y-37718437D02*
X46463966Y-37765608D01*
X46416794Y-37859951D01*
X46416794Y-38095808D01*
X46463966Y-38190151D01*
X46511137Y-38237323D01*
X46605480Y-38284494D01*
X46699823Y-38284494D01*
X46841337Y-38237323D01*
X47407394Y-37671266D01*
X47407394Y-38284494D01*
X46416794Y-39322266D02*
X46416794Y-39888323D01*
X47407394Y-39605294D02*
X46416794Y-39605294D01*
X47360223Y-40595894D02*
X47407394Y-40501551D01*
X47407394Y-40312866D01*
X47360223Y-40218523D01*
X47265880Y-40171351D01*
X46888508Y-40171351D01*
X46794166Y-40218523D01*
X46746994Y-40312866D01*
X46746994Y-40501551D01*
X46794166Y-40595894D01*
X46888508Y-40643066D01*
X46982851Y-40643066D01*
X47077194Y-40171351D01*
X47407394Y-41067608D02*
X46746994Y-41067608D01*
X46935680Y-41067608D02*
X46841337Y-41114780D01*
X46794166Y-41161951D01*
X46746994Y-41256294D01*
X46746994Y-41350637D01*
X47360223Y-42058208D02*
X47407394Y-41963866D01*
X47407394Y-41775180D01*
X47360223Y-41680837D01*
X47265880Y-41633666D01*
X46888508Y-41633666D01*
X46794166Y-41680837D01*
X46746994Y-41775180D01*
X46746994Y-41963866D01*
X46794166Y-42058208D01*
X46888508Y-42105380D01*
X46982851Y-42105380D01*
X47077194Y-41633666D01*
X46746994Y-42529923D02*
X47407394Y-42529923D01*
X46841337Y-42529923D02*
X46794166Y-42577094D01*
X46746994Y-42671437D01*
X46746994Y-42812951D01*
X46794166Y-42907294D01*
X46888508Y-42954466D01*
X47407394Y-42954466D01*
X47360223Y-43850723D02*
X47407394Y-43756380D01*
X47407394Y-43567694D01*
X47360223Y-43473351D01*
X47313051Y-43426180D01*
X47218708Y-43379008D01*
X46935680Y-43379008D01*
X46841337Y-43426180D01*
X46794166Y-43473351D01*
X46746994Y-43567694D01*
X46746994Y-43756380D01*
X46794166Y-43850723D01*
X47360223Y-44652637D02*
X47407394Y-44558294D01*
X47407394Y-44369608D01*
X47360223Y-44275266D01*
X47265880Y-44228094D01*
X46888508Y-44228094D01*
X46794166Y-44275266D01*
X46746994Y-44369608D01*
X46746994Y-44558294D01*
X46794166Y-44652637D01*
X46888508Y-44699808D01*
X46982851Y-44699808D01*
X47077194Y-44228094D01*
X46416794Y-46162123D02*
X47124366Y-46162123D01*
X47265880Y-46114951D01*
X47360223Y-46020608D01*
X47407394Y-45879094D01*
X47407394Y-45784751D01*
X47313051Y-46633837D02*
X47360223Y-46681008D01*
X47407394Y-46633837D01*
X47360223Y-46586666D01*
X47313051Y-46633837D01*
X47407394Y-46633837D01*
X46888508Y-48190494D02*
X46935680Y-48332008D01*
X46982851Y-48379180D01*
X47077194Y-48426351D01*
X47218708Y-48426351D01*
X47313051Y-48379180D01*
X47360223Y-48332008D01*
X47407394Y-48237666D01*
X47407394Y-47860294D01*
X46416794Y-47860294D01*
X46416794Y-48190494D01*
X46463966Y-48284837D01*
X46511137Y-48332008D01*
X46605480Y-48379180D01*
X46699823Y-48379180D01*
X46794166Y-48332008D01*
X46841337Y-48284837D01*
X46888508Y-48190494D01*
X46888508Y-47860294D01*
X47407394Y-48992408D02*
X47360223Y-48898066D01*
X47313051Y-48850894D01*
X47218708Y-48803723D01*
X46935680Y-48803723D01*
X46841337Y-48850894D01*
X46794166Y-48898066D01*
X46746994Y-48992408D01*
X46746994Y-49133923D01*
X46794166Y-49228266D01*
X46841337Y-49275437D01*
X46935680Y-49322608D01*
X47218708Y-49322608D01*
X47313051Y-49275437D01*
X47360223Y-49228266D01*
X47407394Y-49133923D01*
X47407394Y-48992408D01*
X47407394Y-49888666D02*
X47360223Y-49794323D01*
X47265880Y-49747151D01*
X46416794Y-49747151D01*
X47407394Y-50690580D02*
X46416794Y-50690580D01*
X47360223Y-50690580D02*
X47407394Y-50596237D01*
X47407394Y-50407551D01*
X47360223Y-50313208D01*
X47313051Y-50266037D01*
X47218708Y-50218866D01*
X46935680Y-50218866D01*
X46841337Y-50266037D01*
X46794166Y-50313208D01*
X46746994Y-50407551D01*
X46746994Y-50596237D01*
X46794166Y-50690580D01*
X46746994Y-51020780D02*
X46746994Y-51398151D01*
X46416794Y-51162294D02*
X47265880Y-51162294D01*
X47360223Y-51209466D01*
X47407394Y-51303808D01*
X47407394Y-51398151D01*
X49002260Y-27765266D02*
X48011660Y-27765266D01*
X49002260Y-28189809D02*
X48483374Y-28189809D01*
X48389032Y-28142637D01*
X48341860Y-28048294D01*
X48341860Y-27906780D01*
X48389032Y-27812437D01*
X48436203Y-27765266D01*
X48341860Y-28520009D02*
X48341860Y-28897380D01*
X48011660Y-28661523D02*
X48860746Y-28661523D01*
X48955089Y-28708694D01*
X49002260Y-28803037D01*
X49002260Y-28897380D01*
X48341860Y-29086066D02*
X48341860Y-29463437D01*
X48011660Y-29227580D02*
X48860746Y-29227580D01*
X48955089Y-29274751D01*
X49002260Y-29369094D01*
X49002260Y-29463437D01*
X48341860Y-29793637D02*
X49332460Y-29793637D01*
X48389032Y-29793637D02*
X48341860Y-29887980D01*
X48341860Y-30076666D01*
X48389032Y-30171009D01*
X48436203Y-30218180D01*
X48530546Y-30265351D01*
X48813574Y-30265351D01*
X48907917Y-30218180D01*
X48955089Y-30171009D01*
X49002260Y-30076666D01*
X49002260Y-29887980D01*
X48955089Y-29793637D01*
X48955089Y-30642723D02*
X49002260Y-30737066D01*
X49002260Y-30925751D01*
X48955089Y-31020094D01*
X48860746Y-31067266D01*
X48813574Y-31067266D01*
X48719232Y-31020094D01*
X48672060Y-30925751D01*
X48672060Y-30784237D01*
X48624889Y-30689894D01*
X48530546Y-30642723D01*
X48483374Y-30642723D01*
X48389032Y-30689894D01*
X48341860Y-30784237D01*
X48341860Y-30925751D01*
X48389032Y-31020094D01*
X48907917Y-31491809D02*
X48955089Y-31538980D01*
X49002260Y-31491809D01*
X48955089Y-31444637D01*
X48907917Y-31491809D01*
X49002260Y-31491809D01*
X48389032Y-31491809D02*
X48436203Y-31538980D01*
X48483374Y-31491809D01*
X48436203Y-31444637D01*
X48389032Y-31491809D01*
X48483374Y-31491809D01*
X47964489Y-32671094D02*
X49238117Y-31822009D01*
X47964489Y-33708866D02*
X49238117Y-32859780D01*
X48341860Y-34463609D02*
X49143774Y-34463609D01*
X49238117Y-34416437D01*
X49285289Y-34369266D01*
X49332460Y-34274923D01*
X49332460Y-34133409D01*
X49285289Y-34039066D01*
X48955089Y-34463609D02*
X49002260Y-34369266D01*
X49002260Y-34180580D01*
X48955089Y-34086237D01*
X48907917Y-34039066D01*
X48813574Y-33991894D01*
X48530546Y-33991894D01*
X48436203Y-34039066D01*
X48389032Y-34086237D01*
X48341860Y-34180580D01*
X48341860Y-34369266D01*
X48389032Y-34463609D01*
X49002260Y-34935323D02*
X48341860Y-34935323D01*
X48011660Y-34935323D02*
X48058832Y-34888151D01*
X48106003Y-34935323D01*
X48058832Y-34982494D01*
X48011660Y-34935323D01*
X48106003Y-34935323D01*
X48341860Y-35265523D02*
X48341860Y-35642894D01*
X48011660Y-35407037D02*
X48860746Y-35407037D01*
X48955089Y-35454209D01*
X49002260Y-35548551D01*
X49002260Y-35642894D01*
X49002260Y-35973094D02*
X48011660Y-35973094D01*
X49002260Y-36397637D02*
X48483374Y-36397637D01*
X48389032Y-36350466D01*
X48341860Y-36256123D01*
X48341860Y-36114609D01*
X48389032Y-36020266D01*
X48436203Y-35973094D01*
X48341860Y-37293894D02*
X49002260Y-37293894D01*
X48341860Y-36869351D02*
X48860746Y-36869351D01*
X48955089Y-36916523D01*
X49002260Y-37010866D01*
X49002260Y-37152380D01*
X48955089Y-37246723D01*
X48907917Y-37293894D01*
X49002260Y-37765609D02*
X48011660Y-37765609D01*
X48389032Y-37765609D02*
X48341860Y-37859951D01*
X48341860Y-38048637D01*
X48389032Y-38142980D01*
X48436203Y-38190151D01*
X48530546Y-38237323D01*
X48813574Y-38237323D01*
X48907917Y-38190151D01*
X48955089Y-38142980D01*
X49002260Y-38048637D01*
X49002260Y-37859951D01*
X48955089Y-37765609D01*
X48907917Y-38661866D02*
X48955089Y-38709037D01*
X49002260Y-38661866D01*
X48955089Y-38614694D01*
X48907917Y-38661866D01*
X49002260Y-38661866D01*
X48955089Y-39558123D02*
X49002260Y-39463780D01*
X49002260Y-39275094D01*
X48955089Y-39180751D01*
X48907917Y-39133580D01*
X48813574Y-39086409D01*
X48530546Y-39086409D01*
X48436203Y-39133580D01*
X48389032Y-39180751D01*
X48341860Y-39275094D01*
X48341860Y-39463780D01*
X48389032Y-39558123D01*
X49002260Y-40124180D02*
X48955089Y-40029837D01*
X48907917Y-39982666D01*
X48813574Y-39935494D01*
X48530546Y-39935494D01*
X48436203Y-39982666D01*
X48389032Y-40029837D01*
X48341860Y-40124180D01*
X48341860Y-40265694D01*
X48389032Y-40360037D01*
X48436203Y-40407209D01*
X48530546Y-40454380D01*
X48813574Y-40454380D01*
X48907917Y-40407209D01*
X48955089Y-40360037D01*
X49002260Y-40265694D01*
X49002260Y-40124180D01*
X49002260Y-40878923D02*
X48341860Y-40878923D01*
X48436203Y-40878923D02*
X48389032Y-40926094D01*
X48341860Y-41020437D01*
X48341860Y-41161951D01*
X48389032Y-41256294D01*
X48483374Y-41303466D01*
X49002260Y-41303466D01*
X48483374Y-41303466D02*
X48389032Y-41350637D01*
X48341860Y-41444980D01*
X48341860Y-41586494D01*
X48389032Y-41680837D01*
X48483374Y-41728009D01*
X49002260Y-41728009D01*
X47964489Y-42907294D02*
X49238117Y-42058209D01*
X48341860Y-43095980D02*
X48341860Y-43473351D01*
X48011660Y-43237494D02*
X48860746Y-43237494D01*
X48955089Y-43284666D01*
X49002260Y-43379009D01*
X49002260Y-43473351D01*
X48341860Y-43803551D02*
X49190946Y-43803551D01*
X49285289Y-43756380D01*
X49332460Y-43662037D01*
X49332460Y-43614866D01*
X48011660Y-43803551D02*
X48058832Y-43756380D01*
X48106003Y-43803551D01*
X48058832Y-43850723D01*
X48011660Y-43803551D01*
X48106003Y-43803551D01*
X49002260Y-44275266D02*
X48011660Y-44275266D01*
X48389032Y-44275266D02*
X48341860Y-44369609D01*
X48341860Y-44558294D01*
X48389032Y-44652637D01*
X48436203Y-44699809D01*
X48530546Y-44746980D01*
X48813574Y-44746980D01*
X48907917Y-44699809D01*
X48955089Y-44652637D01*
X49002260Y-44558294D01*
X49002260Y-44369609D01*
X48955089Y-44275266D01*
X49002260Y-45313037D02*
X48955089Y-45218694D01*
X48907917Y-45171523D01*
X48813574Y-45124351D01*
X48530546Y-45124351D01*
X48436203Y-45171523D01*
X48389032Y-45218694D01*
X48341860Y-45313037D01*
X48341860Y-45454551D01*
X48389032Y-45548894D01*
X48436203Y-45596066D01*
X48530546Y-45643237D01*
X48813574Y-45643237D01*
X48907917Y-45596066D01*
X48955089Y-45548894D01*
X49002260Y-45454551D01*
X49002260Y-45313037D01*
X49002260Y-46209294D02*
X48955089Y-46114951D01*
X48860746Y-46067780D01*
X48011660Y-46067780D01*
X49002260Y-47011208D02*
X48011660Y-47011208D01*
X48955089Y-47011208D02*
X49002260Y-46916866D01*
X49002260Y-46728180D01*
X48955089Y-46633837D01*
X48907917Y-46586666D01*
X48813574Y-46539494D01*
X48530546Y-46539494D01*
X48436203Y-46586666D01*
X48389032Y-46633837D01*
X48341860Y-46728180D01*
X48341860Y-46916866D01*
X48389032Y-47011208D01*
X48341860Y-47341408D02*
X48341860Y-47718780D01*
X48011660Y-47482923D02*
X48860746Y-47482923D01*
X48955089Y-47530094D01*
X49002260Y-47624437D01*
X49002260Y-47718780D01*
X47964489Y-48756551D02*
X49238117Y-47907466D01*
X49002260Y-49086751D02*
X48011660Y-49086751D01*
X48011660Y-49464123D01*
X48058832Y-49558466D01*
X48106003Y-49605637D01*
X48200346Y-49652808D01*
X48341860Y-49652808D01*
X48436203Y-49605637D01*
X48483374Y-49558466D01*
X48530546Y-49464123D01*
X48530546Y-49086751D01*
X49002260Y-50077351D02*
X48341860Y-50077351D01*
X48530546Y-50077351D02*
X48436203Y-50124523D01*
X48389032Y-50171694D01*
X48341860Y-50266037D01*
X48341860Y-50360380D01*
X49002260Y-50832094D02*
X48955089Y-50737751D01*
X48907917Y-50690580D01*
X48813574Y-50643408D01*
X48530546Y-50643408D01*
X48436203Y-50690580D01*
X48389032Y-50737751D01*
X48341860Y-50832094D01*
X48341860Y-50973608D01*
X48389032Y-51067951D01*
X48436203Y-51115123D01*
X48530546Y-51162294D01*
X48813574Y-51162294D01*
X48907917Y-51115123D01*
X48955089Y-51067951D01*
X49002260Y-50973608D01*
X49002260Y-50832094D01*
X49002260Y-51586837D02*
X48011660Y-51586837D01*
X48011660Y-51822694D01*
X48058832Y-51964208D01*
X48153174Y-52058551D01*
X48247517Y-52105723D01*
X48436203Y-52152894D01*
X48577717Y-52152894D01*
X48766403Y-52105723D01*
X48860746Y-52058551D01*
X48955089Y-51964208D01*
X49002260Y-51822694D01*
X49002260Y-51586837D01*
X48011660Y-52766123D02*
X48011660Y-52954808D01*
X48058832Y-53049151D01*
X48153174Y-53143494D01*
X48341860Y-53190666D01*
X48672060Y-53190666D01*
X48860746Y-53143494D01*
X48955089Y-53049151D01*
X49002260Y-52954808D01*
X49002260Y-52766123D01*
X48955089Y-52671780D01*
X48860746Y-52577437D01*
X48672060Y-52530266D01*
X48341860Y-52530266D01*
X48153174Y-52577437D01*
X48058832Y-52671780D01*
X48011660Y-52766123D01*
X48955089Y-53568037D02*
X49002260Y-53709551D01*
X49002260Y-53945408D01*
X48955089Y-54039751D01*
X48907917Y-54086923D01*
X48813574Y-54134094D01*
X48719232Y-54134094D01*
X48624889Y-54086923D01*
X48577717Y-54039751D01*
X48530546Y-53945408D01*
X48483374Y-53756723D01*
X48436203Y-53662380D01*
X48389032Y-53615208D01*
X48294689Y-53568037D01*
X48200346Y-53568037D01*
X48106003Y-53615208D01*
X48058832Y-53662380D01*
X48011660Y-53756723D01*
X48011660Y-53992580D01*
X48058832Y-54134094D01*
X48624889Y-54558637D02*
X48624889Y-55313380D01*
X49002260Y-56351151D02*
X48530546Y-56020951D01*
X49002260Y-55785094D02*
X48011660Y-55785094D01*
X48011660Y-56162466D01*
X48058832Y-56256808D01*
X48106003Y-56303980D01*
X48200346Y-56351151D01*
X48341860Y-56351151D01*
X48436203Y-56303980D01*
X48483374Y-56256808D01*
X48530546Y-56162466D01*
X48530546Y-55785094D01*
X48011660Y-56964380D02*
X48011660Y-57153066D01*
X48058832Y-57247408D01*
X48153174Y-57341751D01*
X48341860Y-57388923D01*
X48672060Y-57388923D01*
X48860746Y-57341751D01*
X48955089Y-57247408D01*
X49002260Y-57153066D01*
X49002260Y-56964380D01*
X48955089Y-56870037D01*
X48860746Y-56775694D01*
X48672060Y-56728523D01*
X48341860Y-56728523D01*
X48153174Y-56775694D01*
X48058832Y-56870037D01*
X48011660Y-56964380D01*
X49002260Y-57813466D02*
X48011660Y-57813466D01*
X48719232Y-58143666D01*
X48011660Y-58473866D01*
X49002260Y-58473866D01*
X48624889Y-58945580D02*
X48624889Y-59700323D01*
X49002260Y-60172037D02*
X48011660Y-60172037D01*
X48011660Y-60407894D01*
X48058832Y-60549408D01*
X48153174Y-60643751D01*
X48247517Y-60690923D01*
X48436203Y-60738094D01*
X48577717Y-60738094D01*
X48766403Y-60690923D01*
X48860746Y-60643751D01*
X48955089Y-60549408D01*
X49002260Y-60407894D01*
X49002260Y-60172037D01*
X49002260Y-61162637D02*
X48341860Y-61162637D01*
X48530546Y-61162637D02*
X48436203Y-61209808D01*
X48389032Y-61256980D01*
X48341860Y-61351323D01*
X48341860Y-61445666D01*
X49002260Y-61775866D02*
X48341860Y-61775866D01*
X48011660Y-61775866D02*
X48058832Y-61728694D01*
X48106003Y-61775866D01*
X48058832Y-61823037D01*
X48011660Y-61775866D01*
X48106003Y-61775866D01*
X48341860Y-62153237D02*
X49002260Y-62389094D01*
X48341860Y-62624951D01*
X48955089Y-63379694D02*
X49002260Y-63285351D01*
X49002260Y-63096666D01*
X48955089Y-63002323D01*
X48860746Y-62955151D01*
X48483374Y-62955151D01*
X48389032Y-63002323D01*
X48341860Y-63096666D01*
X48341860Y-63285351D01*
X48389032Y-63379694D01*
X48483374Y-63426866D01*
X48577717Y-63426866D01*
X48672060Y-62955151D01*
D12*
X109336840Y-31818580D03*
D13*
X109336840Y-34358580D03*
X109336840Y-36898580D03*
X109336840Y-39438580D03*
X109336840Y-41978580D03*
X109336840Y-44518580D03*
X109336840Y-47058580D03*
X116956840Y-47058580D03*
X116956840Y-44518580D03*
X116956840Y-41978580D03*
X116956840Y-39438580D03*
X116956840Y-36898580D03*
X116956840Y-34358580D03*
X116956840Y-31818580D03*
D12*
X95620840Y-62425580D03*
D13*
X98160840Y-62425580D03*
X100700840Y-62425580D03*
X103240840Y-62425580D03*
X105780840Y-62425580D03*
X108320840Y-62425580D03*
X110860840Y-62425580D03*
X110860840Y-54805580D03*
X108320840Y-54805580D03*
X105780840Y-54805580D03*
X103240840Y-54805580D03*
X100700840Y-54805580D03*
X98160840Y-54805580D03*
X95620840Y-54805580D03*
D12*
X61203840Y-26484580D03*
D13*
X61203840Y-29024580D03*
X61203840Y-31564580D03*
X61203840Y-34104580D03*
X61203840Y-36644580D03*
X61203840Y-39184580D03*
X61203840Y-41724580D03*
X61203840Y-44264580D03*
X61203840Y-46804580D03*
X61203840Y-49344580D03*
X68823840Y-49344580D03*
X68823840Y-46804580D03*
X68823840Y-44264580D03*
X68823840Y-41724580D03*
X68823840Y-39184580D03*
X68823840Y-36644580D03*
X68823840Y-34104580D03*
X68823840Y-31564580D03*
X68823840Y-29024580D03*
X68823840Y-26484580D03*
D12*
X85841840Y-26484580D03*
D13*
X85841840Y-29024580D03*
X85841840Y-31564580D03*
X85841840Y-34104580D03*
X85841840Y-36644580D03*
X85841840Y-39184580D03*
X85841840Y-41724580D03*
X85841840Y-44264580D03*
X85841840Y-46804580D03*
X85841840Y-49344580D03*
X93461840Y-49344580D03*
X93461840Y-46804580D03*
X93461840Y-44264580D03*
X93461840Y-41724580D03*
X93461840Y-39184580D03*
X93461840Y-36644580D03*
X93461840Y-34104580D03*
X93461840Y-31564580D03*
X93461840Y-29024580D03*
X93461840Y-26484580D03*
D12*
X73776840Y-26484580D03*
D13*
X73776840Y-29024580D03*
X73776840Y-31564580D03*
X73776840Y-34104580D03*
X73776840Y-36644580D03*
X73776840Y-39184580D03*
X73776840Y-41724580D03*
X73776840Y-44264580D03*
X73776840Y-46804580D03*
X73776840Y-49344580D03*
X81396840Y-49344580D03*
X81396840Y-46804580D03*
X81396840Y-44264580D03*
X81396840Y-41724580D03*
X81396840Y-39184580D03*
X81396840Y-36644580D03*
X81396840Y-34104580D03*
X81396840Y-31564580D03*
X81396840Y-29024580D03*
X81396840Y-26484580D03*
D12*
X97906840Y-26484580D03*
D13*
X97906840Y-29024580D03*
X97906840Y-31564580D03*
X97906840Y-34104580D03*
X97906840Y-36644580D03*
X97906840Y-39184580D03*
X97906840Y-41724580D03*
X97906840Y-44264580D03*
X97906840Y-46804580D03*
X97906840Y-49344580D03*
X105526840Y-49344580D03*
X105526840Y-46804580D03*
X105526840Y-44264580D03*
X105526840Y-41724580D03*
X105526840Y-39184580D03*
X105526840Y-36644580D03*
X105526840Y-34104580D03*
X105526840Y-31564580D03*
X105526840Y-29024580D03*
X105526840Y-26484580D03*
G04 #@! TA.AperFunction,ConnectorPad*
G36*
G01*
X116067840Y-76459080D02*
X116067840Y-69474080D01*
G75*
G02*
X116385340Y-69156580I317500J0D01*
G01*
X117020340Y-69156580D01*
G75*
G02*
X117337840Y-69474080I0J-317500D01*
G01*
X117337840Y-76459080D01*
G75*
G02*
X117020340Y-76776580I-317500J0D01*
G01*
X116385340Y-76776580D01*
G75*
G02*
X116067840Y-76459080I0J317500D01*
G01*
G37*
G04 #@! TD.AperFunction*
G04 #@! TA.AperFunction,ConnectorPad*
G36*
G01*
X113527840Y-76459080D02*
X113527840Y-69474080D01*
G75*
G02*
X113845340Y-69156580I317500J0D01*
G01*
X114480340Y-69156580D01*
G75*
G02*
X114797840Y-69474080I0J-317500D01*
G01*
X114797840Y-76459080D01*
G75*
G02*
X114480340Y-76776580I-317500J0D01*
G01*
X113845340Y-76776580D01*
G75*
G02*
X113527840Y-76459080I0J317500D01*
G01*
G37*
G04 #@! TD.AperFunction*
G04 #@! TA.AperFunction,ConnectorPad*
G36*
G01*
X110987840Y-76459080D02*
X110987840Y-69474080D01*
G75*
G02*
X111305340Y-69156580I317500J0D01*
G01*
X111940340Y-69156580D01*
G75*
G02*
X112257840Y-69474080I0J-317500D01*
G01*
X112257840Y-76459080D01*
G75*
G02*
X111940340Y-76776580I-317500J0D01*
G01*
X111305340Y-76776580D01*
G75*
G02*
X110987840Y-76459080I0J317500D01*
G01*
G37*
G04 #@! TD.AperFunction*
G04 #@! TA.AperFunction,ConnectorPad*
G36*
G01*
X108447840Y-76459080D02*
X108447840Y-69474080D01*
G75*
G02*
X108765340Y-69156580I317500J0D01*
G01*
X109400340Y-69156580D01*
G75*
G02*
X109717840Y-69474080I0J-317500D01*
G01*
X109717840Y-76459080D01*
G75*
G02*
X109400340Y-76776580I-317500J0D01*
G01*
X108765340Y-76776580D01*
G75*
G02*
X108447840Y-76459080I0J317500D01*
G01*
G37*
G04 #@! TD.AperFunction*
G04 #@! TA.AperFunction,ConnectorPad*
G36*
G01*
X105907840Y-76459080D02*
X105907840Y-69474080D01*
G75*
G02*
X106225340Y-69156580I317500J0D01*
G01*
X106860340Y-69156580D01*
G75*
G02*
X107177840Y-69474080I0J-317500D01*
G01*
X107177840Y-76459080D01*
G75*
G02*
X106860340Y-76776580I-317500J0D01*
G01*
X106225340Y-76776580D01*
G75*
G02*
X105907840Y-76459080I0J317500D01*
G01*
G37*
G04 #@! TD.AperFunction*
G04 #@! TA.AperFunction,ConnectorPad*
G36*
G01*
X103367840Y-76459080D02*
X103367840Y-69474080D01*
G75*
G02*
X103685340Y-69156580I317500J0D01*
G01*
X104320340Y-69156580D01*
G75*
G02*
X104637840Y-69474080I0J-317500D01*
G01*
X104637840Y-76459080D01*
G75*
G02*
X104320340Y-76776580I-317500J0D01*
G01*
X103685340Y-76776580D01*
G75*
G02*
X103367840Y-76459080I0J317500D01*
G01*
G37*
G04 #@! TD.AperFunction*
G04 #@! TA.AperFunction,ConnectorPad*
G36*
G01*
X100827840Y-76459080D02*
X100827840Y-69474080D01*
G75*
G02*
X101145340Y-69156580I317500J0D01*
G01*
X101780340Y-69156580D01*
G75*
G02*
X102097840Y-69474080I0J-317500D01*
G01*
X102097840Y-76459080D01*
G75*
G02*
X101780340Y-76776580I-317500J0D01*
G01*
X101145340Y-76776580D01*
G75*
G02*
X100827840Y-76459080I0J317500D01*
G01*
G37*
G04 #@! TD.AperFunction*
G04 #@! TA.AperFunction,ConnectorPad*
G36*
G01*
X98287840Y-76459080D02*
X98287840Y-69474080D01*
G75*
G02*
X98605340Y-69156580I317500J0D01*
G01*
X99240340Y-69156580D01*
G75*
G02*
X99557840Y-69474080I0J-317500D01*
G01*
X99557840Y-76459080D01*
G75*
G02*
X99240340Y-76776580I-317500J0D01*
G01*
X98605340Y-76776580D01*
G75*
G02*
X98287840Y-76459080I0J317500D01*
G01*
G37*
G04 #@! TD.AperFunction*
G04 #@! TA.AperFunction,ConnectorPad*
G36*
G01*
X95747840Y-76459080D02*
X95747840Y-69474080D01*
G75*
G02*
X96065340Y-69156580I317500J0D01*
G01*
X96700340Y-69156580D01*
G75*
G02*
X97017840Y-69474080I0J-317500D01*
G01*
X97017840Y-76459080D01*
G75*
G02*
X96700340Y-76776580I-317500J0D01*
G01*
X96065340Y-76776580D01*
G75*
G02*
X95747840Y-76459080I0J317500D01*
G01*
G37*
G04 #@! TD.AperFunction*
G04 #@! TA.AperFunction,ConnectorPad*
G36*
G01*
X93207840Y-76459080D02*
X93207840Y-69474080D01*
G75*
G02*
X93525340Y-69156580I317500J0D01*
G01*
X94160340Y-69156580D01*
G75*
G02*
X94477840Y-69474080I0J-317500D01*
G01*
X94477840Y-76459080D01*
G75*
G02*
X94160340Y-76776580I-317500J0D01*
G01*
X93525340Y-76776580D01*
G75*
G02*
X93207840Y-76459080I0J317500D01*
G01*
G37*
G04 #@! TD.AperFunction*
G04 #@! TA.AperFunction,ConnectorPad*
G36*
G01*
X90667840Y-76459080D02*
X90667840Y-69474080D01*
G75*
G02*
X90985340Y-69156580I317500J0D01*
G01*
X91620340Y-69156580D01*
G75*
G02*
X91937840Y-69474080I0J-317500D01*
G01*
X91937840Y-76459080D01*
G75*
G02*
X91620340Y-76776580I-317500J0D01*
G01*
X90985340Y-76776580D01*
G75*
G02*
X90667840Y-76459080I0J317500D01*
G01*
G37*
G04 #@! TD.AperFunction*
G04 #@! TA.AperFunction,ConnectorPad*
G36*
G01*
X88127840Y-76459080D02*
X88127840Y-69474080D01*
G75*
G02*
X88445340Y-69156580I317500J0D01*
G01*
X89080340Y-69156580D01*
G75*
G02*
X89397840Y-69474080I0J-317500D01*
G01*
X89397840Y-76459080D01*
G75*
G02*
X89080340Y-76776580I-317500J0D01*
G01*
X88445340Y-76776580D01*
G75*
G02*
X88127840Y-76459080I0J317500D01*
G01*
G37*
G04 #@! TD.AperFunction*
G04 #@! TA.AperFunction,ConnectorPad*
G36*
G01*
X85587840Y-76459080D02*
X85587840Y-69474080D01*
G75*
G02*
X85905340Y-69156580I317500J0D01*
G01*
X86540340Y-69156580D01*
G75*
G02*
X86857840Y-69474080I0J-317500D01*
G01*
X86857840Y-76459080D01*
G75*
G02*
X86540340Y-76776580I-317500J0D01*
G01*
X85905340Y-76776580D01*
G75*
G02*
X85587840Y-76459080I0J317500D01*
G01*
G37*
G04 #@! TD.AperFunction*
G04 #@! TA.AperFunction,ConnectorPad*
G36*
G01*
X83047840Y-76459080D02*
X83047840Y-69474080D01*
G75*
G02*
X83365340Y-69156580I317500J0D01*
G01*
X84000340Y-69156580D01*
G75*
G02*
X84317840Y-69474080I0J-317500D01*
G01*
X84317840Y-76459080D01*
G75*
G02*
X84000340Y-76776580I-317500J0D01*
G01*
X83365340Y-76776580D01*
G75*
G02*
X83047840Y-76459080I0J317500D01*
G01*
G37*
G04 #@! TD.AperFunction*
G04 #@! TA.AperFunction,ConnectorPad*
G36*
G01*
X80507840Y-76459080D02*
X80507840Y-69474080D01*
G75*
G02*
X80825340Y-69156580I317500J0D01*
G01*
X81460340Y-69156580D01*
G75*
G02*
X81777840Y-69474080I0J-317500D01*
G01*
X81777840Y-76459080D01*
G75*
G02*
X81460340Y-76776580I-317500J0D01*
G01*
X80825340Y-76776580D01*
G75*
G02*
X80507840Y-76459080I0J317500D01*
G01*
G37*
G04 #@! TD.AperFunction*
G04 #@! TA.AperFunction,ConnectorPad*
G36*
G01*
X77967840Y-76459080D02*
X77967840Y-69474080D01*
G75*
G02*
X78285340Y-69156580I317500J0D01*
G01*
X78920340Y-69156580D01*
G75*
G02*
X79237840Y-69474080I0J-317500D01*
G01*
X79237840Y-76459080D01*
G75*
G02*
X78920340Y-76776580I-317500J0D01*
G01*
X78285340Y-76776580D01*
G75*
G02*
X77967840Y-76459080I0J317500D01*
G01*
G37*
G04 #@! TD.AperFunction*
G04 #@! TA.AperFunction,ConnectorPad*
G36*
G01*
X75427840Y-76459080D02*
X75427840Y-69474080D01*
G75*
G02*
X75745340Y-69156580I317500J0D01*
G01*
X76380340Y-69156580D01*
G75*
G02*
X76697840Y-69474080I0J-317500D01*
G01*
X76697840Y-76459080D01*
G75*
G02*
X76380340Y-76776580I-317500J0D01*
G01*
X75745340Y-76776580D01*
G75*
G02*
X75427840Y-76459080I0J317500D01*
G01*
G37*
G04 #@! TD.AperFunction*
G04 #@! TA.AperFunction,ConnectorPad*
G36*
G01*
X72887840Y-76459080D02*
X72887840Y-69474080D01*
G75*
G02*
X73205340Y-69156580I317500J0D01*
G01*
X73840340Y-69156580D01*
G75*
G02*
X74157840Y-69474080I0J-317500D01*
G01*
X74157840Y-76459080D01*
G75*
G02*
X73840340Y-76776580I-317500J0D01*
G01*
X73205340Y-76776580D01*
G75*
G02*
X72887840Y-76459080I0J317500D01*
G01*
G37*
G04 #@! TD.AperFunction*
G04 #@! TA.AperFunction,ConnectorPad*
G36*
G01*
X70347840Y-76459080D02*
X70347840Y-69474080D01*
G75*
G02*
X70665340Y-69156580I317500J0D01*
G01*
X71300340Y-69156580D01*
G75*
G02*
X71617840Y-69474080I0J-317500D01*
G01*
X71617840Y-76459080D01*
G75*
G02*
X71300340Y-76776580I-317500J0D01*
G01*
X70665340Y-76776580D01*
G75*
G02*
X70347840Y-76459080I0J317500D01*
G01*
G37*
G04 #@! TD.AperFunction*
G04 #@! TA.AperFunction,ConnectorPad*
G36*
G01*
X67807840Y-76459080D02*
X67807840Y-69474080D01*
G75*
G02*
X68125340Y-69156580I317500J0D01*
G01*
X68760340Y-69156580D01*
G75*
G02*
X69077840Y-69474080I0J-317500D01*
G01*
X69077840Y-76459080D01*
G75*
G02*
X68760340Y-76776580I-317500J0D01*
G01*
X68125340Y-76776580D01*
G75*
G02*
X67807840Y-76459080I0J317500D01*
G01*
G37*
G04 #@! TD.AperFunction*
G04 #@! TA.AperFunction,ConnectorPad*
G36*
G01*
X65267840Y-76459080D02*
X65267840Y-69474080D01*
G75*
G02*
X65585340Y-69156580I317500J0D01*
G01*
X66220340Y-69156580D01*
G75*
G02*
X66537840Y-69474080I0J-317500D01*
G01*
X66537840Y-76459080D01*
G75*
G02*
X66220340Y-76776580I-317500J0D01*
G01*
X65585340Y-76776580D01*
G75*
G02*
X65267840Y-76459080I0J317500D01*
G01*
G37*
G04 #@! TD.AperFunction*
G04 #@! TA.AperFunction,ConnectorPad*
G36*
G01*
X62727840Y-76459080D02*
X62727840Y-69474080D01*
G75*
G02*
X63045340Y-69156580I317500J0D01*
G01*
X63680340Y-69156580D01*
G75*
G02*
X63997840Y-69474080I0J-317500D01*
G01*
X63997840Y-76459080D01*
G75*
G02*
X63680340Y-76776580I-317500J0D01*
G01*
X63045340Y-76776580D01*
G75*
G02*
X62727840Y-76459080I0J317500D01*
G01*
G37*
G04 #@! TD.AperFunction*
G04 #@! TA.AperFunction,ConnectorPad*
G36*
G01*
X60187840Y-76459080D02*
X60187840Y-69474080D01*
G75*
G02*
X60505340Y-69156580I317500J0D01*
G01*
X61140340Y-69156580D01*
G75*
G02*
X61457840Y-69474080I0J-317500D01*
G01*
X61457840Y-76459080D01*
G75*
G02*
X61140340Y-76776580I-317500J0D01*
G01*
X60505340Y-76776580D01*
G75*
G02*
X60187840Y-76459080I0J317500D01*
G01*
G37*
G04 #@! TD.AperFunction*
G04 #@! TA.AperFunction,ConnectorPad*
G36*
G01*
X57647840Y-76459080D02*
X57647840Y-69474080D01*
G75*
G02*
X57965340Y-69156580I317500J0D01*
G01*
X58600340Y-69156580D01*
G75*
G02*
X58917840Y-69474080I0J-317500D01*
G01*
X58917840Y-76459080D01*
G75*
G02*
X58600340Y-76776580I-317500J0D01*
G01*
X57965340Y-76776580D01*
G75*
G02*
X57647840Y-76459080I0J317500D01*
G01*
G37*
G04 #@! TD.AperFunction*
G04 #@! TA.AperFunction,ConnectorPad*
G36*
G01*
X55107840Y-76459080D02*
X55107840Y-69474080D01*
G75*
G02*
X55425340Y-69156580I317500J0D01*
G01*
X56060340Y-69156580D01*
G75*
G02*
X56377840Y-69474080I0J-317500D01*
G01*
X56377840Y-76459080D01*
G75*
G02*
X56060340Y-76776580I-317500J0D01*
G01*
X55425340Y-76776580D01*
G75*
G02*
X55107840Y-76459080I0J317500D01*
G01*
G37*
G04 #@! TD.AperFunction*
D12*
X36873180Y-25057100D03*
D13*
X36873180Y-27597100D03*
X36873180Y-30137100D03*
X36873180Y-32677100D03*
X36873180Y-35217100D03*
X36873180Y-37757100D03*
X36873180Y-40297100D03*
X36873180Y-42837100D03*
X36873180Y-45377100D03*
X36873180Y-47917100D03*
X36873180Y-50457100D03*
X36873180Y-52997100D03*
X36873180Y-55537100D03*
X36873180Y-58077100D03*
X36873180Y-60617100D03*
X36873180Y-63157100D03*
X52113180Y-63157100D03*
X52113180Y-60617100D03*
X52113180Y-58077100D03*
X52113180Y-55537100D03*
X52113180Y-52997100D03*
X52113180Y-50457100D03*
X52113180Y-47917100D03*
X52113180Y-45377100D03*
X52113180Y-42837100D03*
X52113180Y-40297100D03*
X52113180Y-37757100D03*
X52113180Y-35217100D03*
X52113180Y-32677100D03*
X52113180Y-30137100D03*
X52113180Y-27597100D03*
X52113180Y-25057100D03*
D12*
X63743840Y-62552580D03*
D13*
X66283840Y-62552580D03*
X68823840Y-62552580D03*
X71363840Y-62552580D03*
X73903840Y-62552580D03*
X76443840Y-62552580D03*
X78983840Y-62552580D03*
X81523840Y-62552580D03*
X84063840Y-62552580D03*
X86603840Y-62552580D03*
X86603840Y-54932580D03*
X84063840Y-54932580D03*
X81523840Y-54932580D03*
X78983840Y-54932580D03*
X76443840Y-54932580D03*
X73903840Y-54932580D03*
X71363840Y-54932580D03*
X68823840Y-54932580D03*
X66283840Y-54932580D03*
X63743840Y-54932580D03*
D14*
X59552840Y-59758580D03*
X59552840Y-57258580D03*
X114035840Y-59758580D03*
X114035840Y-57258580D03*
X89778840Y-60012580D03*
X89778840Y-57512580D03*
X100573840Y-52265580D03*
X103073840Y-52265580D03*
X88508840Y-52392580D03*
X91008840Y-52392580D03*
X76443840Y-52519580D03*
X78943840Y-52519580D03*
X63743840Y-52392580D03*
X66243840Y-52392580D03*
X112003840Y-50106580D03*
X114503840Y-50106580D03*
D15*
X96850200Y-59055000D03*
X89397841Y-41772841D03*
D16*
X110327440Y-59489340D03*
X83593851Y-60142120D03*
X56642000Y-42926000D03*
X79138780Y-60396120D03*
X76869504Y-60711179D03*
X67276980Y-35171281D03*
X71363840Y-59850020D03*
X64955387Y-31597633D03*
X65407022Y-64449040D03*
X55656480Y-27348180D03*
X107269280Y-39672260D03*
X58260178Y-27348180D03*
X92567760Y-57269380D03*
X75816936Y-49361884D03*
X80761840Y-52392580D03*
X79885459Y-49202259D03*
X91267280Y-55087520D03*
X73510140Y-52595780D03*
X69898260Y-51168300D03*
X101346000Y-57269380D03*
X71594980Y-53106320D03*
X38722300Y-45897800D03*
X88254840Y-55567580D03*
X93842840Y-54932580D03*
X82504271Y-48518981D03*
X95874840Y-47312580D03*
X76062840Y-48328580D03*
X86184740Y-51630580D03*
X82415034Y-52214354D03*
X79456280Y-29164280D03*
X65966834Y-33578800D03*
X88356440Y-32727900D03*
X66014600Y-46075600D03*
X65836800Y-48666400D03*
X84609861Y-43129200D03*
X87325200Y-43489969D03*
X84246720Y-27810460D03*
X67259200Y-28275181D03*
X70601840Y-28275181D03*
X88171020Y-28397200D03*
X91732100Y-28580080D03*
X39666704Y-62908656D03*
X38574980Y-62732920D03*
X58262520Y-67795140D03*
X115354100Y-55803800D03*
X63350140Y-57823100D03*
X82806540Y-33764220D03*
X90451940Y-36819840D03*
X87350600Y-37068760D03*
X79985517Y-36423600D03*
X84155280Y-33850580D03*
X54978300Y-37431980D03*
X75092560Y-37810441D03*
X54592220Y-29319220D03*
X75107800Y-45844460D03*
X84155279Y-47553979D03*
X72229980Y-49171860D03*
X87350600Y-47553979D03*
X74962583Y-47940575D03*
X90525600Y-47955200D03*
X70408800Y-49110900D03*
X77091439Y-33456880D03*
X77091439Y-36621720D03*
X67193160Y-39560500D03*
X50370740Y-39479220D03*
X87299800Y-38404800D03*
X84155279Y-38506400D03*
X95676720Y-45593000D03*
X79202280Y-31579820D03*
X95176241Y-38072070D03*
X100965000Y-47244000D03*
X100787200Y-50571400D03*
X71038720Y-35930840D03*
X65659000Y-30426660D03*
X86616540Y-52862480D03*
X87680800Y-35747960D03*
X56962040Y-64495581D03*
X56535320Y-68160900D03*
X79537560Y-27401520D03*
X96527620Y-42682160D03*
X96144080Y-30815181D03*
X87972900Y-30114240D03*
X87238840Y-66362580D03*
X79224346Y-64825086D03*
X102224840Y-41216580D03*
X65376266Y-65655666D03*
X66753740Y-30429200D03*
X76890880Y-32232600D03*
X73362820Y-64698791D03*
X75519280Y-64698791D03*
X86939120Y-57856120D03*
X78552040Y-57917181D03*
X77995780Y-64833500D03*
X77342220Y-56580232D03*
X79174239Y-37810440D03*
X79364840Y-56243220D03*
X111622840Y-68267580D03*
X114162840Y-68013580D03*
X115277900Y-54211220D03*
D17*
X63743840Y-52392580D02*
X63743840Y-54932580D01*
X95620840Y-57825640D02*
X96850200Y-59055000D01*
X89397841Y-28896057D02*
X91809318Y-26484580D01*
X78132839Y-27264967D02*
X78132839Y-50198771D01*
X76443840Y-51887770D02*
X76443840Y-52519580D01*
X68823840Y-26484580D02*
X67184470Y-26484580D01*
X85841840Y-39184580D02*
X85841840Y-41724580D01*
X91809318Y-26484580D02*
X93461840Y-26484580D01*
X95620840Y-54805580D02*
X95620840Y-57825640D01*
X89397840Y-51503580D02*
X88508840Y-52392580D01*
X89397841Y-41772841D02*
X89397841Y-36504880D01*
X79037687Y-26360119D02*
X78132839Y-27264967D01*
X89397841Y-28896057D02*
X89397841Y-39778919D01*
X89397841Y-51503579D02*
X89397841Y-41772841D01*
X63743840Y-54932580D02*
X63743840Y-55567580D01*
X80141009Y-26360119D02*
X79037687Y-26360119D01*
X88508840Y-52392580D02*
X89397841Y-51503579D01*
X80265470Y-26484580D02*
X80141009Y-26360119D01*
X81396840Y-26484580D02*
X80265470Y-26484580D01*
X78132839Y-50198771D02*
X76443840Y-51887770D01*
X63743840Y-55567580D02*
X59552840Y-59758580D01*
X67184470Y-26484580D02*
X63743840Y-29925210D01*
X63743840Y-29925210D02*
X63743840Y-52392580D01*
X89778840Y-53622580D02*
X91008840Y-52392580D01*
X89778840Y-57512580D02*
X89778840Y-53622580D01*
X116702840Y-72966580D02*
X116702840Y-68267580D01*
X53261114Y-65163700D02*
X58092439Y-60332375D01*
X97906840Y-44264580D02*
X97906840Y-49344580D01*
X97906840Y-29024580D02*
X97906840Y-34104580D01*
X110860840Y-62425580D02*
X110860840Y-60433580D01*
X85841840Y-49344580D02*
X85841840Y-44264580D01*
X89400234Y-62552580D02*
X91239241Y-60713573D01*
X58092439Y-60332375D02*
X58092439Y-58718981D01*
X61203840Y-49344580D02*
X61203840Y-55607580D01*
X116702840Y-68267580D02*
X110860840Y-62425580D01*
X58092439Y-58718981D02*
X59552840Y-57258580D01*
X61203840Y-55607580D02*
X59552840Y-57258580D01*
X91239241Y-60713573D02*
X91239241Y-58972981D01*
X97906840Y-34104580D02*
X97906840Y-39184580D01*
X114035840Y-57258580D02*
X114035840Y-50574580D01*
X114035840Y-50574580D02*
X114503840Y-50106580D01*
X86603840Y-62552580D02*
X89400234Y-62552580D01*
X91239241Y-58972981D02*
X89778840Y-57512580D01*
X97906840Y-39184580D02*
X97906840Y-44264580D01*
X36873180Y-63157100D02*
X38879780Y-65163700D01*
X110860840Y-60433580D02*
X114035840Y-57258580D01*
X38879780Y-65163700D02*
X53261114Y-65163700D01*
D18*
X110860840Y-31262518D02*
X110860840Y-39956764D01*
X110860840Y-39956764D02*
X111114761Y-40210685D01*
X108270139Y-33291879D02*
X108270139Y-30805219D01*
X108270139Y-30805219D02*
X108323479Y-30751879D01*
X110327440Y-59489340D02*
X110860840Y-58955940D01*
X108323479Y-30751879D02*
X110350201Y-30751879D01*
X110860840Y-58955940D02*
X110860840Y-54805580D01*
X111114761Y-40210685D02*
X111114761Y-43815079D01*
X110350201Y-30751879D02*
X110860840Y-31262518D01*
X109336840Y-34358580D02*
X108270139Y-33291879D01*
X111114761Y-43815079D02*
X110860840Y-44069000D01*
X110860840Y-44069000D02*
X110860840Y-54805580D01*
X63553340Y-65283080D02*
X61775340Y-65283080D01*
X66283840Y-62552580D02*
X63553340Y-65283080D01*
X58282840Y-68775580D02*
X58282840Y-72966580D01*
X61775340Y-65283080D02*
X58282840Y-68775580D01*
X60822840Y-68902580D02*
X60822840Y-72966580D01*
X68823840Y-62552580D02*
X68823840Y-63124080D01*
X63304420Y-66421000D02*
X60822840Y-68902580D01*
X68823840Y-63124080D02*
X65532000Y-66415920D01*
X65521840Y-66421000D02*
X63304420Y-66421000D01*
X65532000Y-66415920D02*
X65526920Y-66415920D01*
X65526920Y-66415920D02*
X65521840Y-66421000D01*
X67139810Y-66776610D02*
X65615810Y-66776610D01*
X71363840Y-62552580D02*
X67139810Y-66776610D01*
X65615810Y-66776610D02*
X63362840Y-69029580D01*
X63362840Y-69029580D02*
X63362840Y-72966580D01*
X70231000Y-64643000D02*
X65902840Y-68971160D01*
X73903840Y-62552580D02*
X71813420Y-64643000D01*
X65902840Y-68971160D02*
X65902840Y-72966580D01*
X71813420Y-64643000D02*
X70231000Y-64643000D01*
X68442840Y-68922900D02*
X68442840Y-72966580D01*
X71922640Y-65443100D02*
X68442840Y-68922900D01*
X73553320Y-65443100D02*
X71922640Y-65443100D01*
X76443840Y-62552580D02*
X73553320Y-65443100D01*
X70982840Y-68859400D02*
X70982840Y-72966580D01*
X76019660Y-65516760D02*
X74325480Y-65516760D01*
X78983840Y-62552580D02*
X76019660Y-65516760D01*
X74325480Y-65516760D02*
X70982840Y-68859400D01*
X79306420Y-65659000D02*
X76791820Y-65659000D01*
X79629000Y-65336420D02*
X79306420Y-65659000D01*
X80761840Y-63314580D02*
X80761840Y-64203580D01*
X79629000Y-65336420D02*
X79375000Y-65590420D01*
X76791820Y-65659000D02*
X73522840Y-68927980D01*
X81523840Y-62552580D02*
X80761840Y-63314580D01*
X80761840Y-64203580D02*
X79629000Y-65336420D01*
X73522840Y-68927980D02*
X73522840Y-72966580D01*
X81246980Y-66106040D02*
X83395820Y-66106040D01*
X76062840Y-69060060D02*
X76062840Y-72966580D01*
X79908399Y-67444621D02*
X77713840Y-67444620D01*
X77713840Y-67444620D02*
X76098400Y-69060060D01*
X84013040Y-65488820D02*
X84013040Y-62603380D01*
X81246980Y-66106040D02*
X79908399Y-67444621D01*
X84013040Y-65488820D02*
X83395820Y-66106040D01*
X76098400Y-69060060D02*
X76062840Y-69060060D01*
X84013040Y-62603380D02*
X84063840Y-62552580D01*
X85130541Y-53459281D02*
X85130541Y-52872541D01*
X85130541Y-52872541D02*
X85130541Y-50919281D01*
X83507579Y-40769529D02*
X83507579Y-33506661D01*
X82819151Y-41457957D02*
X83507579Y-40769529D01*
X86603840Y-54932580D02*
X85130541Y-53459281D01*
X81565498Y-31564580D02*
X81396840Y-31564580D01*
X83507579Y-49296319D02*
X83507579Y-46321979D01*
X83507579Y-33506661D02*
X81565498Y-31564580D01*
X83507579Y-46321979D02*
X82819151Y-45633551D01*
X85130541Y-50919281D02*
X83507579Y-49296319D01*
X82819151Y-45633551D02*
X82819151Y-41457957D01*
X84063840Y-54932580D02*
X84063840Y-52633898D01*
X84063840Y-59672131D02*
X83593851Y-60142120D01*
X84063840Y-52633898D02*
X83151971Y-51722029D01*
X84063840Y-54932580D02*
X84063840Y-59672131D01*
X82463541Y-41310659D02*
X83151971Y-40622229D01*
X83151971Y-35859711D02*
X81396840Y-34104580D01*
X83151971Y-51722029D02*
X83151971Y-46525171D01*
X83151971Y-46525171D02*
X82463541Y-45836741D01*
X83151971Y-40622229D02*
X83151971Y-35859711D01*
X82463541Y-45836741D02*
X82463541Y-41310659D01*
X56642000Y-53548280D02*
X52113180Y-58077100D01*
X56642000Y-42926000D02*
X56642000Y-53548280D01*
X80086251Y-52046377D02*
X80086251Y-53771749D01*
X78983840Y-54874160D02*
X78983840Y-54932580D01*
X79093039Y-56862970D02*
X78874610Y-56862970D01*
X81396840Y-44264580D02*
X79238248Y-46423172D01*
X79238248Y-46423172D02*
X79238248Y-51198374D01*
X80086251Y-53771749D02*
X78983840Y-54874160D01*
X78643480Y-55272940D02*
X78983840Y-54932580D01*
X79555350Y-57325281D02*
X79093039Y-56862970D01*
X79138780Y-60396120D02*
X79555351Y-59979549D01*
X79555351Y-59979549D02*
X79555350Y-57325281D01*
X78643480Y-56631840D02*
X78643480Y-55272940D01*
X79238248Y-51198374D02*
X80086251Y-52046377D01*
X78874610Y-56862970D02*
X78643480Y-56631840D01*
X75692000Y-56896000D02*
X75692000Y-55684420D01*
X74754251Y-53242991D02*
X73193157Y-53242991D01*
X76200000Y-57404000D02*
X75692000Y-56896000D01*
X72645470Y-44264580D02*
X73776840Y-44264580D01*
X76443840Y-54932580D02*
X74754251Y-53242991D01*
X75692000Y-55684420D02*
X76443840Y-54932580D01*
X71488299Y-45421751D02*
X72645470Y-44264580D01*
X76200000Y-60041675D02*
X76200000Y-57404000D01*
X76869504Y-60711179D02*
X76200000Y-60041675D01*
X73193157Y-53242991D02*
X71488299Y-51538133D01*
X71488299Y-51538133D02*
X71488299Y-45421751D01*
X71123657Y-51676399D02*
X71123657Y-48768000D01*
X71123657Y-48768000D02*
X71123657Y-44377763D01*
X73903840Y-54456582D02*
X71123657Y-51676399D01*
X73903840Y-54932580D02*
X73903840Y-54456582D01*
X71123657Y-44377763D02*
X73776840Y-41724580D01*
X71363840Y-54932580D02*
X71363840Y-59850020D01*
X66413380Y-43632120D02*
X67757629Y-44976369D01*
X67757629Y-51326369D02*
X71363840Y-54932580D01*
X67276980Y-35171281D02*
X66413380Y-36034881D01*
X66413380Y-36034881D02*
X66413380Y-43632120D01*
X67757629Y-44976369D02*
X67757629Y-51326369D01*
X65087500Y-52851854D02*
X65087500Y-49466500D01*
X65770637Y-53534991D02*
X65087500Y-52851854D01*
X65067180Y-31709426D02*
X64955387Y-31597633D01*
X65067180Y-32651601D02*
X65067180Y-31709426D01*
X67426251Y-53534991D02*
X65770637Y-53534991D01*
X65087500Y-32631281D02*
X65087500Y-49466500D01*
X65067180Y-32651601D02*
X65087500Y-32631281D01*
X68823840Y-54932580D02*
X67426251Y-53534991D01*
X110479741Y-33939281D02*
X110479741Y-40078573D01*
X110759151Y-43581421D02*
X110479741Y-43860831D01*
X66283840Y-60792360D02*
X66283840Y-54932580D01*
X65788021Y-64068041D02*
X66347097Y-64068041D01*
X109336840Y-31818580D02*
X109336840Y-32796380D01*
X65407022Y-64449040D02*
X65788021Y-64068041D01*
X110759151Y-40357983D02*
X110759151Y-43581421D01*
X110479741Y-47607173D02*
X109387541Y-48699373D01*
X109387541Y-60227509D02*
X108320840Y-61294210D01*
X67401529Y-63013609D02*
X67401529Y-61910049D01*
X67401529Y-61910049D02*
X66283840Y-60792360D01*
X109387541Y-48699373D02*
X109387541Y-60227509D01*
X110479741Y-43860831D02*
X110479741Y-47607173D01*
X110479741Y-40078573D02*
X110759151Y-40357983D01*
X66347097Y-64068041D02*
X67401529Y-63013609D01*
X108320840Y-61294210D02*
X108320840Y-62425580D01*
X109336840Y-32796380D02*
X110479741Y-33939281D01*
X82605880Y-26002126D02*
X81437433Y-24833679D01*
X82605880Y-27815540D02*
X82605880Y-26002126D01*
X106867960Y-48003460D02*
X105526840Y-49344580D01*
X107269280Y-39672260D02*
X107269280Y-47602140D01*
X37850980Y-25057100D02*
X36873180Y-25057100D01*
X54988460Y-26680160D02*
X55656480Y-27348180D01*
X52625197Y-26530399D02*
X39324279Y-26530399D01*
X39324279Y-26530399D02*
X37850980Y-25057100D01*
X60774679Y-24833679D02*
X58260178Y-27348180D01*
X52774958Y-26680160D02*
X52625197Y-26530399D01*
X52774958Y-26680160D02*
X54988460Y-26680160D01*
X107269280Y-47602140D02*
X106867960Y-48003460D01*
X81396840Y-29024580D02*
X82605880Y-27815540D01*
X81437433Y-24833679D02*
X60774679Y-24833679D01*
X107276900Y-47594520D02*
X106867960Y-48003460D01*
X103761539Y-43489881D02*
X103761539Y-51151537D01*
X71594980Y-53106320D02*
X69898260Y-51409600D01*
X92567760Y-56388000D02*
X91267280Y-55087520D01*
X104307541Y-55317597D02*
X102355758Y-57269380D01*
X75816936Y-49361884D02*
X73510140Y-51668680D01*
X79593369Y-48910169D02*
X79885459Y-49202259D01*
X80761840Y-50728961D02*
X80761840Y-52392580D01*
X105526840Y-41724580D02*
X103761539Y-43489881D01*
X81396840Y-46804580D02*
X80246220Y-46804580D01*
X103761539Y-51151537D02*
X104307541Y-51697539D01*
X69898260Y-51409600D02*
X69898260Y-51168300D01*
X80246220Y-46804580D02*
X79593369Y-47457431D01*
X79885459Y-49852580D02*
X80761840Y-50728961D01*
X92567760Y-57269380D02*
X92567760Y-56388000D01*
X79885459Y-49852580D02*
X79885459Y-49202259D01*
X104307541Y-51697539D02*
X104307541Y-55317597D01*
X102355758Y-57269380D02*
X101346000Y-57269380D01*
X73510140Y-51668680D02*
X73510140Y-52595780D01*
X79593369Y-47457431D02*
X79593369Y-48910169D01*
X86661341Y-53865879D02*
X87315139Y-53865879D01*
X38722300Y-45897800D02*
X38722300Y-31986220D01*
X73776840Y-46804580D02*
X74908210Y-46804580D01*
X85968839Y-53173377D02*
X86661341Y-53865879D01*
X82793840Y-49311560D02*
X82793840Y-50741580D01*
X86184740Y-51630580D02*
X86184740Y-52169395D01*
X95874840Y-52900580D02*
X93842840Y-54932580D01*
X88381840Y-55440580D02*
X88254840Y-55567580D01*
X82793840Y-48808550D02*
X82793840Y-49311560D01*
X82793840Y-50741580D02*
X82463541Y-51071879D01*
X38722300Y-31986220D02*
X36873180Y-30137100D01*
X82463541Y-51071879D02*
X82463541Y-52165847D01*
X85968839Y-52385296D02*
X85968839Y-53173377D01*
X82463541Y-52165847D02*
X82415034Y-52214354D01*
X86184740Y-52169395D02*
X85968839Y-52385296D01*
X88381840Y-54932580D02*
X88381840Y-55440580D01*
X82504271Y-48518981D02*
X82793840Y-48808550D01*
X87315139Y-53865879D02*
X88381840Y-54932580D01*
X74908210Y-46804580D02*
X76062840Y-47959210D01*
X76062840Y-47959210D02*
X76062840Y-48328580D01*
X95874840Y-47312580D02*
X95874840Y-52900580D01*
X73776840Y-29024580D02*
X72702420Y-30099000D01*
X86665234Y-30497879D02*
X80789879Y-30497879D01*
X67211935Y-29425889D02*
X65701173Y-29425889D01*
X65011299Y-30115763D02*
X65011299Y-30737557D01*
X67885046Y-30099000D02*
X67211935Y-29425889D01*
X65966834Y-31693092D02*
X65966834Y-33578800D01*
X65701173Y-29425889D02*
X65011299Y-30115763D01*
X88356440Y-32727900D02*
X88356440Y-32189085D01*
X65011299Y-30737557D02*
X65966834Y-31693092D01*
X88356440Y-32189085D02*
X86665234Y-30497879D01*
X80789879Y-30497879D02*
X79456280Y-29164280D01*
X72702420Y-30099000D02*
X67885046Y-30099000D01*
X84630091Y-43108970D02*
X84609861Y-43129200D01*
X66014600Y-48488600D02*
X65836800Y-48666400D01*
X66014600Y-46075600D02*
X66014600Y-48488600D01*
X86944201Y-43108970D02*
X84630091Y-43108970D01*
X87325200Y-43489969D02*
X86944201Y-43108970D01*
X84246720Y-27810460D02*
X87584280Y-27810460D01*
X91732100Y-28580080D02*
X91732100Y-29834840D01*
X87584280Y-27810460D02*
X88171020Y-28397200D01*
X91732100Y-29834840D02*
X93461840Y-31564580D01*
X67642641Y-27891740D02*
X70218399Y-27891740D01*
X70218399Y-27891740D02*
X70601840Y-28275181D01*
X67259200Y-28275181D02*
X67642641Y-27891740D01*
X38041581Y-48582593D02*
X38950900Y-49491912D01*
X38950900Y-49491912D02*
X38950900Y-62192852D01*
X38950900Y-62192852D02*
X39666704Y-62908656D01*
X36873180Y-45377100D02*
X38041581Y-46545501D01*
X38041581Y-46545501D02*
X38041581Y-48582593D01*
X38574980Y-62732920D02*
X38574980Y-49618900D01*
X38574980Y-49618900D02*
X36873180Y-47917100D01*
X58262520Y-67795140D02*
X62677139Y-63380521D01*
X116956840Y-41978580D02*
X118023541Y-43045281D01*
X62677139Y-58496101D02*
X63350140Y-57823100D01*
X62677139Y-63380521D02*
X62677139Y-58496101D01*
X118023541Y-53134359D02*
X115354100Y-55803800D01*
X118023541Y-43045281D02*
X118023541Y-53134359D01*
X99695000Y-26055518D02*
X98981161Y-25341679D01*
X105403542Y-33020000D02*
X99695000Y-27311458D01*
X99695000Y-27311458D02*
X99695000Y-26055518D01*
X52108066Y-45382214D02*
X52113180Y-45382214D01*
X51046479Y-46443801D02*
X52108066Y-45382214D01*
X53924209Y-42334180D02*
X53924209Y-43566071D01*
X109336840Y-36898580D02*
X106593541Y-34155281D01*
X51046479Y-49390399D02*
X51046479Y-46443801D01*
X55239921Y-29630117D02*
X53924209Y-30945829D01*
X106593541Y-33592563D02*
X106020978Y-33020000D01*
X53924209Y-41793160D02*
X53924209Y-43223189D01*
X82448341Y-25341679D02*
X81577022Y-24470360D01*
X53924209Y-41793160D02*
X53924209Y-42334180D01*
X53924209Y-30945829D02*
X53924209Y-41793160D01*
X59777884Y-24470360D02*
X55239921Y-29008323D01*
X55239921Y-29008323D02*
X55239921Y-29630117D01*
X98981161Y-25341679D02*
X82448341Y-25341679D01*
X81577022Y-24470360D02*
X59777884Y-24470360D01*
X53924209Y-43566071D02*
X52113180Y-45377100D01*
X52113180Y-50457100D02*
X51046479Y-49390399D01*
X106020978Y-33020000D02*
X105403542Y-33020000D01*
X106593541Y-34155281D02*
X106593541Y-33592563D01*
X68823840Y-36644580D02*
X69989701Y-37810441D01*
X87350600Y-36376358D02*
X87350600Y-37068760D01*
X69989701Y-37810441D02*
X75092560Y-37810441D01*
X93461840Y-46804580D02*
X90439240Y-43781980D01*
X90439240Y-36832540D02*
X90451940Y-36819840D01*
X85343764Y-35577879D02*
X86552121Y-35577879D01*
X86552121Y-35577879D02*
X87350600Y-36376358D01*
X90439240Y-43781980D02*
X90439240Y-42750740D01*
X90439240Y-42750740D02*
X90439240Y-36832540D01*
X79985517Y-36423600D02*
X79985517Y-33937185D01*
X54978300Y-37431980D02*
X54978300Y-45051980D01*
X54978300Y-45051980D02*
X52113180Y-47917100D01*
X84155280Y-33850580D02*
X84155280Y-34389395D01*
X90439240Y-43629580D02*
X90439240Y-42750740D01*
X82080199Y-33037879D02*
X82806540Y-33764220D01*
X84155280Y-34389395D02*
X85343764Y-35577879D01*
X79985517Y-33937185D02*
X80884823Y-33037879D01*
X80884823Y-33037879D02*
X82080199Y-33037879D01*
X75946000Y-42743132D02*
X75946000Y-44196000D01*
X76984860Y-37978170D02*
X76984860Y-39116000D01*
X76984860Y-39116000D02*
X76984860Y-41704272D01*
X75946000Y-44196000D02*
X75107800Y-45034200D01*
X75796038Y-36789348D02*
X76984860Y-37978170D01*
X54592220Y-29319220D02*
X53568599Y-30342841D01*
X75107800Y-45034200D02*
X75107800Y-45844460D01*
X70811039Y-29024580D02*
X71877740Y-27957879D01*
X53568599Y-30342841D02*
X53568599Y-41381681D01*
X53568599Y-41381681D02*
X52113180Y-42837100D01*
X76984860Y-41704272D02*
X75946000Y-42743132D01*
X74288857Y-27957879D02*
X75796038Y-29465060D01*
X71877740Y-27957879D02*
X74288857Y-27957879D01*
X75796038Y-29465060D02*
X75796038Y-36789348D01*
X68823840Y-29024580D02*
X70811039Y-29024580D01*
X85293247Y-50487481D02*
X84155279Y-49349513D01*
X84155279Y-49349513D02*
X84155279Y-47553979D01*
X94528541Y-47316597D02*
X93889938Y-47955200D01*
X86390433Y-50487481D02*
X85293247Y-50487481D01*
X87350600Y-47553979D02*
X87350600Y-49527314D01*
X94528541Y-42791281D02*
X94528541Y-47316597D01*
X70408800Y-49110900D02*
X68823840Y-47525940D01*
X68823840Y-47525940D02*
X68823840Y-46804580D01*
X73353683Y-48048157D02*
X72229980Y-49171860D01*
X87350600Y-49527314D02*
X86390433Y-50487481D01*
X74855001Y-48048157D02*
X74962583Y-47940575D01*
X73353683Y-48048157D02*
X74855001Y-48048157D01*
X93461840Y-41724580D02*
X94528541Y-42791281D01*
X93889938Y-47955200D02*
X90525600Y-47955200D01*
X77091439Y-33456880D02*
X77091439Y-36621720D01*
X50370740Y-39479220D02*
X50370740Y-34419540D01*
X50370740Y-34419540D02*
X52113180Y-32677100D01*
X73776840Y-39184580D02*
X70402558Y-39184580D01*
X69335857Y-40251281D02*
X67883941Y-40251281D01*
X67883941Y-40251281D02*
X67193160Y-39560500D01*
X70402558Y-39184580D02*
X69335857Y-40251281D01*
X79202280Y-36598961D02*
X79202280Y-31579820D01*
X81396840Y-39184580D02*
X80596841Y-38384581D01*
X84620000Y-38041679D02*
X86936679Y-38041679D01*
X95676720Y-45593000D02*
X95676720Y-38572549D01*
X80596841Y-38384581D02*
X80596841Y-37993522D01*
X80596841Y-37993522D02*
X79202280Y-36598961D01*
X86936679Y-38041679D02*
X87299800Y-38404800D01*
X95676720Y-38572549D02*
X95176241Y-38072070D01*
X84155279Y-38506400D02*
X84620000Y-38041679D01*
X69335857Y-33037879D02*
X68311823Y-33037879D01*
X67401441Y-32127497D02*
X67401441Y-30118303D01*
X67064637Y-29781499D02*
X66304161Y-29781499D01*
X100965000Y-50393600D02*
X100787200Y-50571400D01*
X87680800Y-35747960D02*
X87998301Y-36065461D01*
X87010329Y-51929876D02*
X86616540Y-52323665D01*
X67401441Y-30118303D02*
X67064637Y-29781499D01*
X87010329Y-51272351D02*
X87010329Y-51929876D01*
X100965000Y-47244000D02*
X100965000Y-50393600D01*
X87998301Y-36065461D02*
X87998301Y-50284379D01*
X87998301Y-50284379D02*
X87010329Y-51272351D01*
X68311823Y-33037879D02*
X67401441Y-32127497D01*
X66304161Y-29781499D02*
X65659000Y-30426660D01*
X86616540Y-52323665D02*
X86616540Y-52862480D01*
X71038720Y-35930840D02*
X71038720Y-34740742D01*
X71038720Y-34740742D02*
X69335857Y-33037879D01*
X95321110Y-44990012D02*
X95029019Y-45282103D01*
X93195139Y-56938161D02*
X95620840Y-59363862D01*
X94528541Y-30091281D02*
X94528541Y-39816941D01*
X95029019Y-50807619D02*
X94462600Y-51374038D01*
X93461840Y-29024580D02*
X94528541Y-30091281D01*
X56962040Y-67734180D02*
X56962040Y-64495581D01*
X95620840Y-59363862D02*
X95620840Y-62425580D01*
X56535320Y-68160900D02*
X56962040Y-67734180D01*
X94528541Y-39816941D02*
X95321110Y-40609510D01*
X94462600Y-53354222D02*
X93195139Y-54621683D01*
X93195139Y-54621683D02*
X93195139Y-56938161D01*
X94462600Y-51374038D02*
X94462600Y-53354222D01*
X95321110Y-40609510D02*
X95321110Y-44990012D01*
X95029019Y-45282103D02*
X95029019Y-50807619D01*
X83972400Y-67731641D02*
X83451701Y-68252340D01*
X88135460Y-67106800D02*
X87510619Y-67731641D01*
X80103981Y-29309073D02*
X80103981Y-27967941D01*
X80909148Y-30114240D02*
X80103981Y-29309073D01*
X107726480Y-43588940D02*
X107726480Y-47647848D01*
X107254139Y-48120189D02*
X107254139Y-54910999D01*
X78602840Y-68800980D02*
X79151480Y-68252340D01*
X109336840Y-41978580D02*
X107726480Y-43588940D01*
X102056038Y-60109100D02*
X100477320Y-60109100D01*
X96144080Y-42298620D02*
X96527620Y-42682160D01*
X107254139Y-54910999D02*
X102056038Y-60109100D01*
X87510619Y-67731641D02*
X83972400Y-67731641D01*
X80103981Y-27967941D02*
X79537560Y-27401520D01*
X107726480Y-47647848D02*
X107254139Y-48120189D01*
X98160840Y-63556950D02*
X94610990Y-67106800D01*
X94610990Y-67106800D02*
X88135460Y-67106800D01*
X78602840Y-72966580D02*
X78602840Y-68800980D01*
X98160840Y-62425580D02*
X98160840Y-63556950D01*
X96144080Y-30815181D02*
X96144080Y-42298620D01*
X83451701Y-68252340D02*
X79151480Y-68252340D01*
X100477320Y-60109100D02*
X98160840Y-62425580D01*
X87972900Y-30114240D02*
X80909148Y-30114240D01*
X101843841Y-52687073D02*
X101122433Y-53408481D01*
X101122433Y-53408481D02*
X100192939Y-53408481D01*
X96687541Y-61412219D02*
X96687541Y-63438941D01*
X80406150Y-63643282D02*
X80406150Y-56019499D01*
X99227541Y-54373879D02*
X99227541Y-58872219D01*
X101843841Y-41597579D02*
X101843841Y-52687073D01*
X80050541Y-55663890D02*
X80050541Y-54324253D01*
X96687541Y-63438941D02*
X93763902Y-66362580D01*
X80406150Y-56019499D02*
X80050541Y-55663890D01*
X81409541Y-52965253D02*
X80050541Y-54324253D01*
X100192939Y-53408481D02*
X99227541Y-54373879D01*
X102224840Y-41216580D02*
X101843841Y-41597579D01*
X81409541Y-50488651D02*
X81409541Y-52965253D01*
X93763902Y-66362580D02*
X87238840Y-66362580D01*
X81396840Y-49344580D02*
X81396840Y-50475950D01*
X99227541Y-58872219D02*
X96687541Y-61412219D01*
X79224346Y-64825086D02*
X80406150Y-63643282D01*
X81396840Y-50475950D02*
X81409541Y-50488651D01*
X67757139Y-63274793D02*
X65376266Y-65655666D01*
X66040000Y-43761648D02*
X67386741Y-45108389D01*
X67757139Y-57507132D02*
X67757139Y-63274793D01*
X66614534Y-33982166D02*
X66040000Y-34556700D01*
X66040000Y-34556700D02*
X66040000Y-43761648D01*
X66753740Y-30429200D02*
X66614534Y-30568406D01*
X67386741Y-51638741D02*
X70104000Y-54356000D01*
X70104000Y-54356000D02*
X70104000Y-55160271D01*
X66614534Y-30568406D02*
X66614534Y-33982166D01*
X70104000Y-55160271D02*
X67757139Y-57507132D01*
X67386741Y-45108389D02*
X67386741Y-51638741D01*
X76962000Y-53848000D02*
X75946000Y-53848000D01*
X76327000Y-42865040D02*
X77373480Y-41818560D01*
X75184000Y-53086000D02*
X75184000Y-51313080D01*
X76683843Y-56200428D02*
X76683843Y-59610222D01*
X77137589Y-61358390D02*
X77562019Y-60933960D01*
X75843167Y-61358390D02*
X77137589Y-61358390D01*
X75946000Y-53848000D02*
X75184000Y-53086000D01*
X77373480Y-41818560D02*
X77373480Y-37863882D01*
X74970541Y-61935459D02*
X75266098Y-61935459D01*
X77510051Y-54396051D02*
X76962000Y-53848000D01*
X75266098Y-61935459D02*
X75843167Y-61358390D01*
X77562019Y-60488398D02*
X77562019Y-60933961D01*
X75819000Y-44834444D02*
X76327000Y-44326444D01*
X76683843Y-59610222D02*
X77562019Y-60488398D01*
X76327000Y-44326444D02*
X76327000Y-42865040D01*
X76934060Y-48241202D02*
X75819000Y-47126142D01*
X76683843Y-56200428D02*
X76856136Y-56028136D01*
X73472040Y-64576960D02*
X74970541Y-63078459D01*
X75184000Y-51313080D02*
X76934060Y-49563020D01*
X75819000Y-47126142D02*
X75819000Y-44834444D01*
X77373480Y-37863882D02*
X76443738Y-36934140D01*
X76934060Y-49563020D02*
X76934060Y-48241202D01*
X74970541Y-63078459D02*
X74970541Y-61935459D01*
X76856136Y-56028136D02*
X76695009Y-56189263D01*
X76856136Y-56028136D02*
X77510051Y-55374220D01*
X76443738Y-32679742D02*
X76890880Y-32232600D01*
X76443738Y-36934140D02*
X76443738Y-32679742D01*
X77510051Y-55374220D02*
X77510051Y-54396051D01*
X87365939Y-51838761D02*
X87365939Y-53027679D01*
X75727560Y-64617600D02*
X75946000Y-64617600D01*
X85841840Y-34104580D02*
X86641839Y-34904579D01*
X89016840Y-54678580D02*
X89016840Y-55778400D01*
X75519280Y-64698791D02*
X75600471Y-64617600D01*
X77917139Y-58552082D02*
X78552040Y-57917181D01*
X77917139Y-62966836D02*
X77917139Y-58552082D01*
X87365939Y-53027679D02*
X89016840Y-54678580D01*
X86641839Y-34904579D02*
X87937239Y-34904579D01*
X87937239Y-34904579D02*
X88353911Y-35321251D01*
X88353911Y-50850789D02*
X87365939Y-51838761D01*
X75600471Y-64617600D02*
X75946000Y-64617600D01*
X75946000Y-64617600D02*
X76266375Y-64617600D01*
X76266375Y-64617600D02*
X77917139Y-62966836D01*
X89016840Y-55778400D02*
X86939120Y-57856120D01*
X88353911Y-35321251D02*
X88353911Y-50850789D01*
X77586251Y-52046377D02*
X77586251Y-53970035D01*
X78881659Y-38103020D02*
X78881659Y-50750969D01*
X78881659Y-50750969D02*
X77586251Y-52046377D01*
X77865171Y-56057281D02*
X77342220Y-56580232D01*
X80050541Y-56928921D02*
X79364840Y-56243220D01*
X77586251Y-53970035D02*
X77865171Y-54248955D01*
X77865171Y-54248955D02*
X77865171Y-56057281D01*
X80050541Y-63064597D02*
X80050541Y-56928921D01*
X79174239Y-37810440D02*
X78881659Y-38103020D01*
X79006700Y-63822580D02*
X79292558Y-63822580D01*
X77995780Y-64833500D02*
X79006700Y-63822580D01*
X79292558Y-63822580D02*
X80050541Y-63064597D01*
X115890139Y-43451879D02*
X116956840Y-44518580D01*
X116956840Y-36898580D02*
X115890139Y-37965281D01*
X115890139Y-37965281D02*
X115890139Y-43451879D01*
X109460138Y-43434000D02*
X110403541Y-42490597D01*
X108320840Y-54805580D02*
X108320840Y-47878901D01*
X108842702Y-43434000D02*
X109460138Y-43434000D01*
X110403541Y-42490597D02*
X110403541Y-40505281D01*
X108193939Y-47752000D02*
X108193939Y-44082763D01*
X108193939Y-44082763D02*
X108842702Y-43434000D01*
X108320840Y-47878901D02*
X108193939Y-47752000D01*
X110403541Y-40505281D02*
X109336840Y-39438580D01*
X111622840Y-68267580D02*
X111622840Y-72966580D01*
X114162840Y-72966580D02*
X114162840Y-68013580D01*
X115379500Y-35935920D02*
X116956840Y-34358580D01*
X115646741Y-50655173D02*
X115646741Y-43711389D01*
X115277900Y-54211220D02*
X115277900Y-51024014D01*
X115379500Y-43444148D02*
X115379500Y-35935920D01*
X115277900Y-51024014D02*
X115646741Y-50655173D01*
X115646741Y-43711389D02*
X115379500Y-43444148D01*
M02*
